JosefinSans-Regular.ufo
<glyph name="exclam" format="2">
  <advance width="202"/>
  <unicode hex="0021"/>
  <outline>
    <contour>
      <point x="54" y="760" type="line"/>
      <point x="54" y="189" type="line"/>
      <point x="144" y="189" type="line"/>
      <point x="144" y="760" type="line"/>
    </contour>
    <contour>
      <point x="102" y="1" type="curve" smooth="yes"/>
      <point x="138" y="1"/>
      <point x="164" y="24"/>
      <point x="164" y="57" type="curve" smooth="yes"/>
      <point x="164" y="89"/>
      <point x="138" y="114"/>
      <point x="102" y="114" type="curve" smooth="yes"/>
      <point x="66" y="114"/>
      <point x="38" y="89"/>
      <point x="38" y="57" type="curve" smooth="yes"/>
      <point x="38" y="24"/>
      <point x="65" y="1"/>
    </contour>
  </outline>
</glyph>
<glyph name="quotedbl" format="2">
  <advance width="352"/>
  <unicode hex="0022"/>
  <outline>
    <contour>
      <point x="199" y="478" type="line"/>
      <point x="199" y="730" type="line"/>
      <point x="290" y="730" type="line"/>
      <point x="286" y="478" type="line"/>
    </contour>
    <contour>
      <point x="64" y="478" type="line"/>
      <point x="64" y="730" type="line"/>
      <point x="154" y="730" type="line"/>
      <point x="150" y="478" type="line"/>
    </contour>
  </outline>
</glyph>
<glyph name="numbersign" format="2">
  <advance width="581"/>
  <unicode hex="0023"/>
  <outline>
    <contour>
      <point x="295" y="0" type="line"/>
      <point x="317" y="186" type="line"/>
      <point x="223" y="186" type="line"/>
      <point x="201" y="0" type="line"/>
      <point x="108" y="0" type="line"/>
      <point x="130" y="186" type="line"/>
      <point x="40" y="186" type="line"/>
      <point x="43" y="217"/>
      <point x="48" y="246"/>
      <point x="51" y="276" type="curve"/>
      <point x="141" y="276" type="line"/>
      <point x="153" y="373" type="line"/>
      <point x="63" y="373" type="line"/>
      <point x="72" y="462" type="line"/>
      <point x="163" y="462" type="line"/>
      <point x="171" y="526"/>
      <point x="178" y="588"/>
      <point x="187" y="652" type="curve"/>
      <point x="279" y="652" type="line"/>
      <point x="255" y="462" type="line"/>
      <point x="349" y="462" type="line"/>
      <point x="373" y="652" type="line"/>
      <point x="466" y="652" type="line"/>
      <point x="442" y="462" type="line"/>
      <point x="541" y="462" type="line"/>
      <point x="539" y="432"/>
      <point x="536" y="402"/>
      <point x="533" y="373" type="curve"/>
      <point x="432" y="373" type="line"/>
      <point x="420" y="276" type="line"/>
      <point x="520" y="276" type="line"/>
      <point x="517" y="246"/>
      <point x="512" y="217"/>
      <point x="510" y="186" type="curve"/>
      <point x="409" y="186" type="line"/>
      <point x="402" y="124"/>
      <point x="394" y="62"/>
      <point x="388" y="0" type="curve"/>
    </contour>
    <contour>
      <point x="245" y="373" type="line"/>
      <point x="242" y="340"/>
      <point x="238" y="308"/>
      <point x="234" y="276" type="curve"/>
      <point x="328" y="276" type="line"/>
      <point x="339" y="373" type="line"/>
    </contour>
  </outline>
</glyph>
<glyph name="dollar" format="1">
  <advance width="582"/>
  <unicode hex="0024"/>
  <outline>
    <contour>
      <point x="515" y="685" type="qcurve"/>
      <point x="476" y="596" type="line"/>
      <point x="438" y="610"/>
      <point x="362" y="627"/>
      <point x="327" y="629" type="qcurve"/>
      <point x="327" y="424" type="line"/>
      <point x="364" y="410"/>
      <point x="441" y="376"/>
      <point x="502" y="327"/>
      <point x="541" y="257"/>
      <point x="541" y="206" type="qcurve"/>
      <point x="541" y="119"/>
      <point x="427" y="11"/>
      <point x="327" y="-3" type="qcurve"/>
      <point x="327" y="-68" type="line"/>
      <point x="264" y="-68" type="line"/>
      <point x="264" y="-8" type="line"/>
      <point x="262" y="-8" type="line"/>
      <point x="219" y="-8"/>
      <point x="148" y="5"/>
      <point x="91" y="24"/>
      <point x="49" y="45"/>
      <point x="35" y="54" type="qcurve"/>
      <point x="83" y="149" type="line"/>
      <point x="123" y="126"/>
      <point x="221" y="98"/>
      <point x="261" y="98" type="qcurve"/>
      <point x="264" y="98" type="line"/>
      <point x="264" y="341" type="line"/>
      <point x="228" y="354"/>
      <point x="159" y="386"/>
      <point x="105" y="429"/>
      <point x="71" y="488"/>
      <point x="71" y="530" type="qcurve"/>
      <point x="71" y="563"/>
      <point x="95" y="628"/>
      <point x="144" y="682"/>
      <point x="216" y="720"/>
      <point x="264" y="726" type="qcurve"/>
      <point x="264" y="792" type="line"/>
      <point x="327" y="792" type="line"/>
      <point x="327" y="728" type="line"/>
      <point x="360" y="726"/>
      <point x="424" y="714"/>
      <point x="475" y="700"/>
      <point x="510" y="687"/>
    </contour>
    <contour>
      <point x="433" y="207" type="qcurve"/>
      <point x="433" y="227"/>
      <point x="416" y="259"/>
      <point x="388" y="286"/>
      <point x="349" y="307"/>
      <point x="327" y="317" type="qcurve"/>
      <point x="327" y="107" type="line"/>
      <point x="346" y="112"/>
      <point x="384" y="128"/>
      <point x="414" y="152"/>
      <point x="433" y="185"/>
    </contour>
    <contour>
      <point x="179" y="538" type="qcurve"/>
      <point x="179" y="506"/>
      <point x="227" y="466"/>
      <point x="264" y="449" type="qcurve"/>
      <point x="264" y="623" type="line"/>
      <point x="224" y="613"/>
      <point x="179" y="568"/>
    </contour>
  </outline>
</glyph>
<glyph name="percent" format="2">
  <advance width="785"/>
  <unicode hex="0025"/>
  <outline>
    <contour>
      <point x="204" y="271" type="curve"/>
      <point x="297" y="271"/>
      <point x="349" y="343"/>
      <point x="349" y="445" type="curve"/>
      <point x="349" y="546"/>
      <point x="298" y="619"/>
      <point x="204" y="619" type="curve"/>
      <point x="108" y="619"/>
      <point x="58" y="546"/>
      <point x="58" y="445" type="curve"/>
      <point x="58" y="343"/>
      <point x="108" y="271"/>
    </contour>
    <contour>
      <point x="147" y="445" type="curve"/>
      <point x="147" y="515"/>
      <point x="165" y="546"/>
      <point x="204" y="546" type="curve"/>
      <point x="241" y="546"/>
      <point x="259" y="513"/>
      <point x="259" y="445" type="curve"/>
      <point x="259" y="382"/>
      <point x="241" y="343"/>
      <point x="204" y="343" type="curve"/>
      <point x="165" y="343"/>
      <point x="147" y="382"/>
    </contour>
    <contour>
      <point x="586" y="-18" type="curve"/>
      <point x="679" y="-18"/>
      <point x="731" y="54"/>
      <point x="731" y="156" type="curve"/>
      <point x="731" y="257"/>
      <point x="680" y="330"/>
      <point x="586" y="330" type="curve"/>
      <point x="491" y="330"/>
      <point x="441" y="257"/>
      <point x="441" y="156" type="curve"/>
      <point x="441" y="54"/>
      <point x="491" y="-18"/>
    </contour>
    <contour>
      <point x="529" y="156" type="curve"/>
      <point x="529" y="225"/>
      <point x="548" y="257"/>
      <point x="586" y="257" type="curve"/>
      <point x="624" y="257"/>
      <point x="642" y="223"/>
      <point x="642" y="156" type="curve"/>
      <point x="642" y="93"/>
      <point x="624" y="54"/>
      <point x="586" y="54" type="curve"/>
      <point x="548" y="54"/>
      <point x="529" y="93"/>
    </contour>
    <contour>
      <point x="665" y="620" type="line"/>
      <point x="564" y="620" type="line"/>
      <point x="137" y="0" type="line"/>
      <point x="237" y="-2" type="line"/>
    </contour>
  </outline>
</glyph>
<glyph name="ampersand" format="1">
  <advance width="654"/>
  <unicode hex="0026"/>
  <outline>
    <contour>
      <point x="637" y="0" type="line"/>
      <point x="535" y="0" type="line"/>
      <point x="527" y="10"/>
      <point x="517" y="21" type="qcurve"/>
      <point x="509" y="31"/>
      <point x="486" y="58"/>
      <point x="472" y="75" type="qcurve"/>
      <point x="440" y="37"/>
      <point x="337" y="-10"/>
      <point x="272" y="-10" type="qcurve"/>
      <point x="220" y="-10"/>
      <point x="133" y="22"/>
      <point x="70" y="80"/>
      <point x="35" y="159"/>
      <point x="35" y="206" type="qcurve"/>
      <point x="35" y="246"/>
      <point x="61" y="316"/>
      <point x="107" y="371"/>
      <point x="169" y="411"/>
      <point x="206" y="421" type="qcurve"/>
      <point x="192" y="442"/>
      <point x="170" y="479"/>
      <point x="162" y="493" type="qcurve"/>
      <point x="146" y="525"/>
      <point x="126" y="578"/>
      <point x="126" y="609" type="qcurve"/>
      <point x="126" y="643"/>
      <point x="153" y="698"/>
      <point x="200" y="736"/>
      <point x="263" y="757"/>
      <point x="298" y="758" type="qcurve"/>
      <point x="346" y="760"/>
      <point x="424" y="734"/>
      <point x="447" y="718" type="qcurve"/>
      <point x="447" y="718"/>
      <point x="432" y="697"/>
      <point x="415" y="673"/>
      <point x="400" y="652"/>
      <point x="400" y="651" type="qcurve"/>
      <point x="389" y="659"/>
      <point x="357" y="672"/>
      <point x="336" y="674" type="qcurve"/>
      <point x="315" y="677"/>
      <point x="273" y="671"/>
      <point x="239" y="653"/>
      <point x="218" y="621"/>
      <point x="218" y="598" type="qcurve"/>
      <point x="218" y="571"/>
      <point x="238" y="529"/>
      <point x="242" y="524" type="qcurve"/>
      <point x="460" y="234" type="line"/>
      <point x="536" y="429" type="line"/>
      <point x="627" y="429" type="line"/>
      <point x="519" y="155" type="line"/>
    </contour>
    <contour>
      <point x="260" y="345" type="qcurve"/>
      <point x="233" y="344"/>
      <point x="183" y="323"/>
      <point x="144" y="287"/>
      <point x="121" y="238"/>
      <point x="121" y="211" type="qcurve"/>
      <point x="121" y="175"/>
      <point x="148" y="124"/>
      <point x="192" y="90"/>
      <point x="249" y="74"/>
      <point x="278" y="74" type="qcurve"/>
      <point x="298" y="74"/>
      <point x="340" y="84"/>
      <point x="378" y="101"/>
      <point x="410" y="125"/>
      <point x="420" y="139" type="qcurve"/>
      <point x="382" y="187"/>
      <point x="298" y="294"/>
    </contour>
  </outline>
</glyph>
<glyph name="quotesingle" format="1">
  <advance width="218"/>
  <unicode hex="0027"/>
  <outline>
    <contour>
      <point x="64" y="478" type="line"/>
      <point x="64" y="730" type="line"/>
      <point x="156" y="730" type="line"/>
      <point x="152" y="478" type="line"/>
    </contour>
  </outline>
</glyph>
<glyph name="parenleft" format="2">
  <advance width="296"/>
  <unicode hex="0028"/>
  <outline>
    <contour>
      <point x="36" y="295" type="curve" smooth="yes"/>
      <point x="36" y="498"/>
      <point x="119" y="666"/>
      <point x="203" y="756" type="curve"/>
      <point x="230" y="748"/>
      <point x="259" y="741"/>
      <point x="285" y="733" type="curve"/>
      <point x="207" y="644"/>
      <point x="129" y="488"/>
      <point x="129" y="295" type="curve" smooth="yes"/>
      <point x="129" y="102"/>
      <point x="207" y="-54"/>
      <point x="285" y="-143" type="curve"/>
      <point x="259" y="-152"/>
      <point x="230" y="-159"/>
      <point x="203" y="-167" type="curve"/>
      <point x="119" y="-76"/>
      <point x="36" y="92"/>
    </contour>
  </outline>
</glyph>
<glyph name="parenright" format="1">
  <advance width="296"/>
  <unicode hex="0029"/>
  <outline>
    <contour>
      <point x="260" y="291" type="qcurve"/>
      <point x="260" y="215"/>
      <point x="232" y="77"/>
      <point x="185" y="-41"/>
      <point x="124" y="-136"/>
      <point x="92" y="-170" type="qcurve"/>
      <point x="72" y="-165"/>
      <point x="31" y="-154"/>
      <point x="11" y="-148" type="qcurve"/>
      <point x="40" y="-115"/>
      <point x="96" y="-24"/>
      <point x="140" y="87"/>
      <point x="167" y="217"/>
      <point x="167" y="289" type="qcurve"/>
      <point x="167" y="361"/>
      <point x="140" y="491"/>
      <point x="96" y="603"/>
      <point x="40" y="694"/>
      <point x="11" y="727" type="qcurve"/>
      <point x="31" y="733"/>
      <point x="72" y="747"/>
      <point x="92" y="753" type="qcurve"/>
      <point x="124" y="719"/>
      <point x="185" y="624"/>
      <point x="232" y="505"/>
      <point x="260" y="367"/>
    </contour>
  </outline>
</glyph>
<glyph name="asterisk" format="2">
  <advance width="335"/>
  <unicode hex="002A"/>
  <outline>
    <contour>
      <point x="137" y="522" type="curve"/>
      <point x="137" y="434" type="line"/>
      <point x="197" y="434" type="line"/>
      <point x="197" y="463"/>
      <point x="198" y="492"/>
      <point x="198" y="521" type="curve"/>
      <point x="224" y="506"/>
      <point x="250" y="490"/>
      <point x="275" y="475" type="curve"/>
      <point x="286" y="493"/>
      <point x="296" y="512"/>
      <point x="307" y="530" type="curve"/>
      <point x="281" y="545"/>
      <point x="255" y="560"/>
      <point x="229" y="575" type="curve"/>
      <point x="229" y="575" type="line"/>
      <point x="256" y="590"/>
      <point x="282" y="606"/>
      <point x="309" y="621" type="curve"/>
      <point x="299" y="638"/>
      <point x="288" y="655"/>
      <point x="279" y="672" type="curve"/>
      <point x="253" y="658"/>
      <point x="226" y="642"/>
      <point x="200" y="628" type="curve"/>
      <point x="200" y="659"/>
      <point x="201" y="689"/>
      <point x="201" y="720" type="curve"/>
      <point x="137" y="720" type="line"/>
      <point x="137" y="628" type="line"/>
      <point x="111" y="643"/>
      <point x="85" y="658"/>
      <point x="59" y="673" type="curve"/>
      <point x="49" y="656"/>
      <point x="39" y="639"/>
      <point x="30" y="622" type="curve"/>
      <point x="55" y="607"/>
      <point x="81" y="591"/>
      <point x="106" y="576" type="curve"/>
      <point x="81" y="562"/>
      <point x="55" y="547"/>
      <point x="29" y="533" type="curve"/>
      <point x="40" y="515"/>
      <point x="50" y="496"/>
      <point x="61" y="478" type="curve"/>
      <point x="87" y="493"/>
      <point x="112" y="507"/>
    </contour>
  </outline>
</glyph>
<glyph name="plus" format="2">
  <advance width="447"/>
  <unicode hex="002B"/>
  <outline>
    <contour>
      <point x="177" y="52" type="line"/>
      <point x="177" y="189" type="line"/>
      <point x="41" y="189" type="line"/>
      <point x="41" y="278" type="line"/>
      <point x="177" y="278" type="line"/>
      <point x="177" y="417" type="line"/>
      <point x="270" y="417" type="line"/>
      <point x="270" y="278" type="line"/>
      <point x="406" y="278" type="line"/>
      <point x="406" y="189" type="line"/>
      <point x="270" y="189" type="line"/>
      <point x="270" y="52" type="line"/>
    </contour>
  </outline>
</glyph>
<glyph name="comma" format="2">
  <advance width="241"/>
  <unicode hex="002C"/>
  <outline>
    <contour>
      <point x="175" y="87" type="line"/>
      <point x="87" y="-121" type="line"/>
      <point x="5" y="-121" type="line"/>
      <point x="31" y="-52"/>
      <point x="56" y="17"/>
      <point x="83" y="87" type="curve"/>
    </contour>
  </outline>
</glyph>
<glyph name="hyphen" format="1">
  <advance width="296"/>
  <unicode hex="002D"/>
  <outline>
    <contour>
      <point x="55" y="173" type="line"/>
      <point x="55" y="262" type="line"/>
      <point x="241" y="262" type="line"/>
      <point x="241" y="173" type="line"/>
    </contour>
  </outline>
</glyph>
<glyph name="period" format="2">
  <advance width="169"/>
  <unicode hex="002E"/>
  <outline>
    <contour>
      <point x="31" y="56" type="curve" smooth="yes"/>
      <point x="31" y="56" type="line" smooth="yes"/>
      <point x="31" y="22"/>
      <point x="59" y="0"/>
      <point x="87" y="0" type="curve" smooth="yes"/>
      <point x="113" y="0"/>
      <point x="141" y="22"/>
      <point x="141" y="56" type="curve" smooth="yes"/>
      <point x="141" y="88"/>
      <point x="113" y="113"/>
      <point x="87" y="113" type="curve" smooth="yes"/>
      <point x="59" y="113"/>
      <point x="31" y="88"/>
    </contour>
  </outline>
</glyph>
<glyph name="slash" format="2">
  <advance width="390"/>
  <unicode hex="002F"/>
  <outline>
    <contour>
      <point x="390" y="746" type="curve"/>
      <point x="299" y="746" type="line"/>
      <point x="205" y="491"/>
      <point x="112" y="236"/>
      <point x="17" y="-19" type="curve"/>
      <point x="109" y="-19" type="line"/>
      <point x="203" y="236"/>
      <point x="296" y="491"/>
    </contour>
  </outline>
</glyph>
<glyph name="zero" format="2">
  <advance width="624"/>
  <unicode hex="0030"/>
  <outline>
    <contour>
      <point x="312" y="-3" type="curve"/>
      <point x="473" y="-4"/>
      <point x="589" y="116"/>
      <point x="589" y="332" type="curve"/>
      <point x="589" y="542"/>
      <point x="474" y="667"/>
      <point x="312" y="666" type="curve"/>
      <point x="146" y="667"/>
      <point x="35" y="560"/>
      <point x="35" y="332" type="curve"/>
      <point x="35" y="122"/>
      <point x="150" y="-4"/>
    </contour>
    <contour>
      <point x="311" y="98" type="curve"/>
      <point x="199" y="97"/>
      <point x="144" y="195"/>
      <point x="144" y="332" type="curve"/>
      <point x="144" y="469"/>
      <point x="199" y="565"/>
      <point x="311" y="565" type="curve"/>
      <point x="424" y="565"/>
      <point x="480" y="471"/>
      <point x="480" y="334" type="curve"/>
      <point x="480" y="195"/>
      <point x="425" y="97"/>
    </contour>
  </outline>
</glyph>
<glyph name="one" format="2">
  <advance width="304"/>
  <unicode hex="0031"/>
  <outline>
    <contour>
      <point x="47" y="570" type="line"/>
      <point x="47" y="659" type="line"/>
      <point x="204" y="659" type="line"/>
      <point x="204" y="0" type="line"/>
      <point x="111" y="0" type="line"/>
      <point x="111" y="570" type="line"/>
    </contour>
  </outline>
</glyph>
<glyph name="two" format="2">
  <advance width="543"/>
  <unicode hex="0032"/>
  <outline>
    <contour>
      <point x="272" y="89" type="curve"/>
      <point x="506" y="89" type="line"/>
      <point x="506" y="0" type="line"/>
      <point x="52" y="0" type="line"/>
      <point x="218" y="167"/>
      <point x="376" y="315"/>
      <point x="376" y="443" type="curve" smooth="yes"/>
      <point x="376" y="536"/>
      <point x="305" y="578"/>
      <point x="257" y="578" type="curve" smooth="yes"/>
      <point x="159" y="578"/>
      <point x="134" y="499"/>
      <point x="134" y="460" type="curve" smooth="yes"/>
      <point x="134" y="415"/>
      <point x="149" y="382"/>
      <point x="173" y="356" type="curve"/>
      <point x="119" y="299" type="line"/>
      <point x="70" y="329"/>
      <point x="42" y="409"/>
      <point x="42" y="460" type="curve" smooth="yes"/>
      <point x="42" y="568"/>
      <point x="118" y="667"/>
      <point x="257" y="667" type="curve" smooth="yes"/>
      <point x="384" y="667"/>
      <point x="469" y="568"/>
      <point x="469" y="455" type="curve" smooth="yes"/>
      <point x="469" y="324"/>
      <point x="376" y="208"/>
    </contour>
  </outline>
</glyph>
<glyph name="three" format="2">
  <advance width="524"/>
  <unicode hex="0033"/>
  <outline>
    <contour>
      <point x="440" y="659" type="line"/>
      <point x="92" y="659" type="line"/>
      <point x="92" y="558" type="line"/>
      <point x="328" y="558" type="line"/>
      <point x="296" y="572" type="line"/>
      <point x="146" y="334" type="line"/>
      <point x="150" y="330" type="line"/>
      <point x="171" y="338"/>
      <point x="194" y="344"/>
      <point x="233" y="344" type="curve" smooth="yes"/>
      <point x="307" y="344"/>
      <point x="353" y="298"/>
      <point x="353" y="225" type="curve" smooth="yes"/>
      <point x="353" y="143"/>
      <point x="294" y="93"/>
      <point x="225" y="93" type="curve" smooth="yes"/>
      <point x="176" y="93"/>
      <point x="128" y="121"/>
      <point x="104" y="150" type="curve"/>
      <point x="51" y="64" type="line"/>
      <point x="92" y="21"/>
      <point x="163" y="-8"/>
      <point x="227" y="-8" type="curve" smooth="yes"/>
      <point x="354" y="-8"/>
      <point x="461" y="78"/>
      <point x="461" y="219" type="curve" smooth="yes"/>
      <point x="461" y="370"/>
      <point x="363" y="420"/>
      <point x="265" y="417" type="curve"/>
      <point x="245" y="417"/>
      <point x="224" y="413"/>
      <point x="207" y="405" type="curve"/>
      <point x="268" y="375" type="line"/>
    </contour>
  </outline>
</glyph>
<glyph name="four" format="1">
  <advance width="527"/>
  <unicode hex="0034"/>
  <outline>
    <contour>
      <point x="0" y="170" type="line"/>
      <point x="93" y="291"/>
      <point x="299" y="546"/>
      <point x="393" y="667" type="qcurve"/>
      <point x="393" y="259" type="line"/>
      <point x="491" y="259" type="line"/>
      <point x="491" y="170" type="line"/>
      <point x="393" y="170" type="line"/>
      <point x="393" y="0" type="line"/>
      <point x="300" y="0" type="line"/>
      <point x="300" y="170" type="line"/>
    </contour>
    <contour>
      <point x="300" y="418" type="line"/>
      <point x="178" y="259" type="line"/>
      <point x="300" y="259" type="line"/>
    </contour>
  </outline>
</glyph>
<glyph name="five" format="1">
  <advance width="456"/>
  <unicode hex="0035"/>
  <outline>
    <contour>
      <point x="79" y="305" type="qcurve"/>
      <point x="79" y="659" type="line"/>
      <point x="370" y="659" type="line"/>
      <point x="370" y="570" type="line"/>
      <point x="158" y="570" type="line"/>
      <point x="158" y="426" type="line"/>
      <point x="166" y="429"/>
      <point x="179" y="433"/>
      <point x="190" y="433" type="qcurve"/>
      <point x="241" y="433"/>
      <point x="323" y="398"/>
      <point x="382" y="339"/>
      <point x="414" y="261"/>
      <point x="414" y="217" type="qcurve"/>
      <point x="414" y="169"/>
      <point x="378" y="87"/>
      <point x="317" y="27"/>
      <point x="235" y="-8"/>
      <point x="190" y="-8" type="qcurve"/>
      <point x="145" y="-8"/>
      <point x="67" y="25"/>
      <point x="37" y="54" type="qcurve"/>
      <point x="54" y="70"/>
      <point x="88" y="100"/>
      <point x="104" y="116" type="qcurve"/>
      <point x="121" y="100"/>
      <point x="165" y="81"/>
      <point x="191" y="81" type="qcurve"/>
      <point x="218" y="81"/>
      <point x="266" y="102"/>
      <point x="302" y="138"/>
      <point x="323" y="186"/>
      <point x="323" y="213" type="qcurve"/>
      <point x="323" y="240"/>
      <point x="302" y="288"/>
      <point x="265" y="323"/>
      <point x="217" y="344"/>
      <point x="190" y="344" type="qcurve"/>
      <point x="163" y="344"/>
      <point x="104" y="330"/>
    </contour>
  </outline>
</glyph>
<glyph name="six" format="2">
  <advance width="530"/>
  <unicode hex="0036"/>
  <outline>
    <contour>
      <point x="136" y="213" type="curve" smooth="yes"/>
      <point x="136" y="141"/>
      <point x="192" y="81"/>
      <point x="263" y="81" type="curve" smooth="yes"/>
      <point x="335" y="81"/>
      <point x="395" y="141"/>
      <point x="395" y="213" type="curve" smooth="yes"/>
      <point x="395" y="286"/>
      <point x="334" y="344"/>
      <point x="263" y="344" type="curve" smooth="yes"/>
      <point x="193" y="344"/>
      <point x="136" y="286"/>
    </contour>
    <contour>
      <point x="42" y="213" type="curve" smooth="yes"/>
      <point x="42" y="427"/>
      <point x="259" y="565"/>
      <point x="370" y="646" type="curve"/>
      <point x="389" y="623"/>
      <point x="409" y="599"/>
      <point x="427" y="576" type="curve"/>
      <point x="350" y="524"/>
      <point x="240" y="446"/>
      <point x="211" y="408" type="curve"/>
      <point x="224" y="423"/>
      <point x="242" y="433"/>
      <point x="263" y="433" type="curve" smooth="yes"/>
      <point x="384" y="433"/>
      <point x="487" y="336"/>
      <point x="487" y="214" type="curve" smooth="yes"/>
      <point x="487" y="92"/>
      <point x="384" y="-8"/>
      <point x="264" y="-8" type="curve" smooth="yes"/>
      <point x="164" y="-8"/>
      <point x="42" y="61"/>
    </contour>
  </outline>
</glyph>
<glyph name="seven" format="2">
  <advance width="457"/>
  <unicode hex="0037"/>
  <outline>
    <contour>
      <point x="30" y="569" type="line"/>
      <point x="30" y="659" type="line"/>
      <point x="450" y="659" type="line"/>
      <point x="358" y="429"/>
      <point x="275" y="220"/>
      <point x="189" y="0" type="curve"/>
      <point x="85" y="0" type="line"/>
      <point x="153" y="174"/>
      <point x="231" y="377"/>
      <point x="307" y="569" type="curve"/>
    </contour>
  </outline>
</glyph>
<glyph name="eight" format="2">
  <advance width="524"/>
  <unicode hex="0038"/>
  <outline>
    <contour>
      <point x="26" y="209" type="curve" smooth="yes"/>
      <point x="26" y="209" type="line" smooth="yes"/>
      <point x="26" y="94"/>
      <point x="126" y="-8"/>
      <point x="261" y="-8" type="curve" smooth="yes"/>
      <point x="396" y="-8"/>
      <point x="499" y="94"/>
      <point x="499" y="209" type="curve" smooth="yes"/>
      <point x="499" y="308"/>
      <point x="431" y="369"/>
      <point x="371" y="397" type="curve"/>
      <point x="410" y="424"/>
      <point x="438" y="457"/>
      <point x="438" y="520" type="curve" smooth="yes"/>
      <point x="438" y="603"/>
      <point x="361" y="667"/>
      <point x="262" y="667" type="curve" smooth="yes"/>
      <point x="162" y="667"/>
      <point x="86" y="603"/>
      <point x="86" y="515" type="curve" smooth="yes"/>
      <point x="86" y="457"/>
      <point x="114" y="423"/>
      <point x="152" y="397" type="curve"/>
      <point x="93" y="370"/>
      <point x="26" y="309"/>
    </contour>
    <contour>
      <point x="133" y="213" type="curve" smooth="yes"/>
      <point x="133" y="213" type="line" smooth="yes"/>
      <point x="133" y="288"/>
      <point x="195" y="346"/>
      <point x="265" y="345" type="curve" smooth="yes"/>
      <point x="337" y="343"/>
      <point x="394" y="284"/>
      <point x="394" y="213" type="curve" smooth="yes"/>
      <point x="394" y="141"/>
      <point x="333" y="80"/>
      <point x="261" y="80" type="curve" smooth="yes"/>
      <point x="190" y="80"/>
      <point x="133" y="141"/>
    </contour>
    <contour>
      <point x="188" y="503" type="curve" smooth="yes"/>
      <point x="188" y="503" type="line" smooth="yes"/>
      <point x="188" y="547"/>
      <point x="224" y="579"/>
      <point x="264" y="579" type="curve" smooth="yes"/>
      <point x="304" y="579"/>
      <point x="338" y="547"/>
      <point x="338" y="503" type="curve" smooth="yes"/>
      <point x="338" y="464"/>
      <point x="303" y="432"/>
      <point x="264" y="432" type="curve" smooth="yes"/>
      <point x="225" y="432"/>
      <point x="188" y="464"/>
    </contour>
  </outline>
</glyph>
<glyph name="nine" format="2">
  <advance width="531"/>
  <unicode hex="0039"/>
  <outline>
    <contour>
      <point x="488" y="425" type="curve" smooth="yes"/>
      <point x="488" y="211"/>
      <point x="270" y="73"/>
      <point x="159" y="-8" type="curve"/>
      <point x="102" y="62" type="line"/>
      <point x="179" y="114"/>
      <point x="290" y="192"/>
      <point x="318" y="230" type="curve"/>
      <point x="305" y="215"/>
      <point x="287" y="205"/>
      <point x="266" y="205" type="curve" smooth="yes"/>
      <point x="145" y="205"/>
      <point x="43" y="302"/>
      <point x="43" y="424" type="curve" smooth="yes"/>
      <point x="43" y="546"/>
      <point x="145" y="646"/>
      <point x="265" y="646" type="curve" smooth="yes"/>
      <point x="365" y="646"/>
      <point x="488" y="577"/>
    </contour>
    <contour>
      <point x="393" y="425" type="curve" smooth="yes"/>
      <point x="393" y="497"/>
      <point x="337" y="557"/>
      <point x="266" y="557" type="curve" smooth="yes"/>
      <point x="194" y="557"/>
      <point x="134" y="497"/>
      <point x="134" y="425" type="curve" smooth="yes"/>
      <point x="134" y="352"/>
      <point x="195" y="294"/>
      <point x="266" y="294" type="curve" smooth="yes"/>
      <point x="336" y="294"/>
      <point x="393" y="352"/>
    </contour>
  </outline>
</glyph>
<glyph name="colon" format="1">
  <advance width="221"/>
  <unicode hex="003A"/>
  <outline>
    <contour>
      <point x="55" y="331" type="qcurve"/>
      <point x="55" y="355"/>
      <point x="90" y="388"/>
      <point x="111" y="388" type="qcurve"/>
      <point x="131" y="388"/>
      <point x="166" y="355"/>
      <point x="166" y="331" type="qcurve"/>
      <point x="166" y="305"/>
      <point x="131" y="274"/>
      <point x="111" y="274" type="qcurve"/>
      <point x="90" y="274"/>
      <point x="55" y="305"/>
    </contour>
    <contour>
      <point x="55" y="56" type="qcurve"/>
      <point x="55" y="80"/>
      <point x="90" y="113"/>
      <point x="111" y="113" type="qcurve"/>
      <point x="131" y="113"/>
      <point x="166" y="80"/>
      <point x="166" y="56" type="qcurve"/>
      <point x="166" y="30"/>
      <point x="131" y="0"/>
      <point x="111" y="0" type="qcurve"/>
      <point x="90" y="0"/>
      <point x="55" y="30"/>
    </contour>
  </outline>
</glyph>
<glyph name="semicolon" format="2">
  <advance width="253"/>
  <unicode hex="003B"/>
  <outline>
    <contour>
      <point x="173" y="87" type="line"/>
      <point x="86" y="-121" type="line"/>
      <point x="3" y="-121" type="line"/>
      <point x="30" y="-52"/>
      <point x="55" y="17"/>
      <point x="82" y="87" type="curve"/>
    </contour>
    <contour>
      <point x="81" y="310" type="curve" smooth="yes"/>
      <point x="81" y="342"/>
      <point x="109" y="367"/>
      <point x="136" y="367" type="curve" smooth="yes"/>
      <point x="164" y="367"/>
      <point x="191" y="342"/>
      <point x="191" y="310" type="curve" smooth="yes"/>
      <point x="191" y="276"/>
      <point x="164" y="253"/>
      <point x="136" y="253" type="curve" smooth="yes"/>
      <point x="109" y="253"/>
      <point x="81" y="276"/>
    </contour>
  </outline>
</glyph>
<glyph name="less" format="2">
  <advance width="554"/>
  <unicode hex="003C"/>
  <outline>
    <contour>
      <point x="475" y="111" type="line"/>
      <point x="475" y="-14" type="line"/>
      <point x="32" y="241" type="line"/>
      <point x="475" y="497" type="line"/>
      <point x="475" y="372" type="line"/>
      <point x="249" y="241" type="line"/>
    </contour>
  </outline>
</glyph>
<glyph name="equal" format="2">
  <advance width="718"/>
  <unicode hex="003D"/>
  <outline>
    <contour>
      <point x="102" y="395" type="line"/>
      <point x="102" y="307" type="line"/>
      <point x="614" y="307" type="line"/>
      <point x="614" y="395" type="line"/>
    </contour>
    <contour>
      <point x="102" y="198" type="line"/>
      <point x="102" y="110" type="line"/>
      <point x="614" y="110" type="line"/>
      <point x="614" y="198" type="line"/>
    </contour>
  </outline>
</glyph>
<glyph name="greater" format="2">
  <advance width="554"/>
  <unicode hex="003E"/>
  <outline>
    <contour>
      <point x="79" y="-14" type="line"/>
      <point x="79" y="111" type="line"/>
      <point x="305" y="241" type="line"/>
      <point x="79" y="372" type="line"/>
      <point x="79" y="497" type="line"/>
      <point x="522" y="241" type="line"/>
    </contour>
  </outline>
</glyph>
<glyph name="question" format="2">
  <advance width="474"/>
  <unicode hex="003F"/>
  <outline>
    <contour>
      <point x="113" y="555" type="curve"/>
      <point x="33" y="585" type="line"/>
      <point x="51" y="642"/>
      <point x="94" y="742"/>
      <point x="237" y="742" type="curve" smooth="yes"/>
      <point x="349" y="742"/>
      <point x="436" y="653"/>
      <point x="436" y="545" type="curve" smooth="yes"/>
      <point x="436" y="469"/>
      <point x="398" y="414"/>
      <point x="337" y="369" type="curve" smooth="yes"/>
      <point x="301" y="342"/>
      <point x="243" y="315"/>
      <point x="243" y="245" type="curve" smooth="yes"/>
      <point x="243" y="166" type="line"/>
      <point x="151" y="166" type="line"/>
      <point x="151" y="264" type="line" smooth="yes"/>
      <point x="151" y="351"/>
      <point x="209" y="366"/>
      <point x="270" y="414" type="curve" smooth="yes"/>
      <point x="319" y="452"/>
      <point x="342" y="495"/>
      <point x="342" y="545" type="curve" smooth="yes"/>
      <point x="342" y="606"/>
      <point x="300" y="653"/>
      <point x="237" y="653" type="curve" smooth="yes"/>
      <point x="163" y="653"/>
      <point x="133" y="620"/>
    </contour>
    <contour>
      <point x="196" y="-2" type="curve" smooth="yes"/>
      <point x="168" y="-2"/>
      <point x="140" y="20"/>
      <point x="140" y="53" type="curve" smooth="yes"/>
      <point x="140" y="86"/>
      <point x="168" y="110"/>
      <point x="196" y="110" type="curve" smooth="yes"/>
      <point x="223" y="110"/>
      <point x="251" y="86"/>
      <point x="251" y="53" type="curve" smooth="yes"/>
      <point x="251" y="20"/>
      <point x="223" y="-2"/>
    </contour>
  </outline>
</glyph>
<glyph name="at" format="1">
  <advance width="945"/>
  <unicode hex="0040"/>
  <outline>
    <contour>
      <point x="233" y="205" type="qcurve"/>
      <point x="233" y="251"/>
      <point x="268" y="332"/>
      <point x="328" y="393"/>
      <point x="407" y="429"/>
      <point x="452" y="429" type="qcurve"/>
      <point x="482" y="429"/>
      <point x="532" y="414"/>
      <point x="568" y="392"/>
      <point x="590" y="368"/>
      <point x="594" y="359" type="qcurve"/>
      <point x="598" y="418" type="line"/>
      <point x="680" y="418" type="line"/>
      <point x="680" y="80" type="line"/>
      <point x="710" y="80" type="line"/>
      <point x="723" y="80"/>
      <point x="758" y="96"/>
      <point x="790" y="135"/>
      <point x="811" y="198"/>
      <point x="811" y="245" type="qcurve"/>
      <point x="811" y="303"/>
      <point x="770" y="413"/>
      <point x="687" y="499"/>
      <point x="564" y="551"/>
      <point x="483" y="551" type="qcurve"/>
      <point x="389" y="551"/>
      <point x="253" y="486"/>
      <point x="164" y="385"/>
      <point x="122" y="261"/>
      <point x="122" y="202" type="qcurve"/>
      <point x="122" y="131"/>
      <point x="176" y="7"/>
      <point x="271" y="-87"/>
      <point x="397" y="-141"/>
      <point x="469" y="-141" type="qcurve"/>
      <point x="527" y="-141"/>
      <point x="635" y="-105"/>
      <point x="680" y="-73" type="qcurve"/>
      <point x="730" y="-132" type="line"/>
      <point x="677" y="-177"/>
      <point x="533" y="-220"/>
      <point x="464" y="-220" type="qcurve"/>
      <point x="377" y="-220"/>
      <point x="222" y="-153"/>
      <point x="107" y="-38"/>
      <point x="39" y="117"/>
      <point x="39" y="205" type="qcurve"/>
      <point x="39" y="284"/>
      <point x="97" y="437"/>
      <point x="210" y="558"/>
      <point x="377" y="632"/>
      <point x="486" y="632" type="qcurve"/>
      <point x="586" y="632"/>
      <point x="738" y="566"/>
      <point x="842" y="458"/>
      <point x="895" y="319"/>
      <point x="895" y="246" type="qcurve"/>
      <point x="895" y="188"/>
      <point x="867" y="96"/>
      <point x="817" y="33"/>
      <point x="749" y="0"/>
      <point x="710" y="0" type="qcurve"/>
      <point x="594" y="0" type="line"/>
      <point x="594" y="53" type="line"/>
      <point x="589" y="45"/>
      <point x="567" y="23"/>
      <point x="532" y="4"/>
      <point x="484" y="-10"/>
      <point x="453" y="-10" type="qcurve"/>
      <point x="405" y="-10"/>
      <point x="324" y="25"/>
      <point x="266" y="84"/>
      <point x="233" y="162"/>
    </contour>
    <contour>
      <point x="319" y="210" type="qcurve"/>
      <point x="319" y="181"/>
      <point x="340" y="131"/>
      <point x="376" y="95"/>
      <point x="426" y="74"/>
      <point x="456" y="74" type="qcurve"/>
      <point x="486" y="74"/>
      <point x="537" y="95"/>
      <point x="574" y="132"/>
      <point x="594" y="181"/>
      <point x="594" y="210" type="qcurve"/>
      <point x="594" y="239"/>
      <point x="574" y="288"/>
      <point x="537" y="324"/>
      <point x="486" y="345"/>
      <point x="456" y="345" type="qcurve"/>
      <point x="426" y="345"/>
      <point x="376" y="324"/>
      <point x="340" y="288"/>
      <point x="319" y="239"/>
    </contour>
  </outline>
</glyph>
<glyph name="A" format="1">
  <advance width="646"/>
  <unicode hex="0041"/>
  <outline>
    <contour>
      <point x="563" y="0" type="line"/>
      <point x="543" y="46"/>
      <point x="489" y="180"/>
      <point x="460" y="255" type="qcurve"/>
      <point x="186" y="255" type="line"/>
      <point x="157" y="180"/>
      <point x="103" y="46"/>
      <point x="83" y="0" type="qcurve"/>
      <point x="15" y="0" type="line"/>
      <point x="30" y="36"/>
      <point x="80" y="155"/>
      <point x="138" y="297"/>
      <point x="200" y="450"/>
      <point x="258" y="592"/>
      <point x="307" y="710"/>
      <point x="323" y="747" type="qcurve"/>
      <point x="338" y="710"/>
      <point x="388" y="592"/>
      <point x="446" y="450"/>
      <point x="509" y="297"/>
      <point x="567" y="155"/>
      <point x="616" y="36"/>
      <point x="632" y="0" type="qcurve"/>
    </contour>
    <contour>
      <point x="313" y="572" type="qcurve"/>
      <point x="293" y="525"/>
      <point x="238" y="389"/>
      <point x="209" y="314" type="qcurve"/>
      <point x="437" y="314" type="line"/>
      <point x="407" y="389"/>
      <point x="353" y="525"/>
      <point x="333" y="572" type="qcurve"/>
      <point x="331" y="576"/>
      <point x="325" y="595"/>
      <point x="323" y="603" type="qcurve"/>
      <point x="321" y="595"/>
      <point x="315" y="576"/>
    </contour>
  </outline>
</glyph>
<glyph name="B" format="2">
  <advance width="623"/>
  <unicode hex="0042"/>
  <anchor x="317" y="0" name="bottom"/>
  <anchor x="317" y="725" name="top"/>
  <outline>
    <contour>
      <point x="294" y="725" type="curve" smooth="yes"/>
      <point x="103" y="725" type="line"/>
      <point x="103" y="0" type="line"/>
      <point x="322" y="0" type="line" smooth="yes"/>
      <point x="447" y="0"/>
      <point x="566" y="59"/>
      <point x="566" y="205" type="curve" smooth="yes"/>
      <point x="566" y="325"/>
      <point x="450" y="399"/>
      <point x="299" y="403" type="curve"/>
      <point x="314" y="347" type="line"/>
      <point x="444" y="353"/>
      <point x="530" y="424"/>
      <point x="530" y="542" type="curve" smooth="yes"/>
      <point x="530" y="666"/>
      <point x="440" y="725"/>
    </contour>
    <contour>
      <point x="313" y="411" type="curve" smooth="yes"/>
      <point x="207" y="411" type="line"/>
      <point x="207" y="624" type="line"/>
      <point x="299" y="624" type="line" smooth="yes"/>
      <point x="374" y="624"/>
      <point x="422" y="592"/>
      <point x="422" y="520" type="curve" smooth="yes"/>
      <point x="422" y="461"/>
      <point x="389" y="411"/>
    </contour>
    <contour>
      <point x="317" y="97" type="curve" smooth="yes"/>
      <point x="207" y="97" type="line"/>
      <point x="207" y="310" type="line"/>
      <point x="310" y="310" type="line" smooth="yes"/>
      <point x="382" y="310"/>
      <point x="458" y="284"/>
      <point x="458" y="204" type="curve" smooth="yes"/>
      <point x="458" y="131"/>
      <point x="395" y="97"/>
    </contour>
  </outline>
</glyph>
<glyph name="C" format="2">
  <advance width="694"/>
  <unicode hex="0043"/>
  <anchor x="404" y="0" name="bottom"/>
  <anchor x="397" y="742" name="top"/>
  <outline>
    <contour>
      <point x="637" y="55" type="curve"/>
      <point x="592" y="149" type="line"/>
      <point x="556" y="120"/>
      <point x="499" y="93"/>
      <point x="424" y="93" type="curve" smooth="yes"/>
      <point x="267" y="93"/>
      <point x="167" y="208"/>
      <point x="167" y="362" type="curve" smooth="yes"/>
      <point x="167" y="514"/>
      <point x="282" y="632"/>
      <point x="419" y="632" type="curve" smooth="yes"/>
      <point x="488" y="632"/>
      <point x="546" y="602"/>
      <point x="585" y="576" type="curve"/>
      <point x="627" y="674" type="line"/>
      <point x="577" y="705"/>
      <point x="504" y="733"/>
      <point x="416" y="733" type="curve" smooth="yes"/>
      <point x="207" y="733"/>
      <point x="58" y="575"/>
      <point x="58" y="357" type="curve" smooth="yes"/>
      <point x="58" y="160"/>
      <point x="196" y="-5"/>
      <point x="422" y="-8" type="curve" smooth="yes"/>
      <point x="522" y="-10"/>
      <point x="603" y="32"/>
    </contour>
  </outline>
</glyph>
<glyph name="D" format="1">
  <advance width="714"/>
  <unicode hex="0044"/>
  <outline>
    <contour>
      <point x="103" y="714" type="line"/>
      <point x="269" y="714" type="line"/>
      <point x="377" y="714"/>
      <point x="527" y="648"/>
      <point x="621" y="544"/>
      <point x="663" y="415"/>
      <point x="663" y="352" type="qcurve"/>
      <point x="663" y="271"/>
      <point x="605" y="141"/>
      <point x="507" y="49"/>
      <point x="377" y="0"/>
      <point x="304" y="0" type="qcurve"/>
      <point x="103" y="0" type="line"/>
    </contour>
    <contour>
      <point x="297" y="65" type="line"/>
      <point x="359" y="65"/>
      <point x="468" y="105"/>
      <point x="549" y="180"/>
      <point x="595" y="288"/>
      <point x="595" y="356" type="qcurve"/>
      <point x="595" y="418"/>
      <point x="552" y="525"/>
      <point x="472" y="603"/>
      <point x="360" y="648"/>
      <point x="290" y="648" type="qcurve"/>
      <point x="172" y="648" type="line"/>
      <point x="172" y="65" type="line"/>
    </contour>
  </outline>
</glyph>
<glyph name="E" format="2">
  <advance width="655"/>
  <unicode hex="0045"/>
  <anchor x="336" y="0" name="bottom"/>
  <anchor x="542" y="10" name="ogonek"/>
  <anchor x="336" y="739" name="top"/>
  <anchor x="31" y="725" name="topleft"/>
  <outline>
    <contour>
      <point x="103" y="725" type="line"/>
      <point x="103" y="0" type="line"/>
      <point x="592" y="0" type="line"/>
      <point x="592" y="101" type="line"/>
      <point x="207" y="101" type="line"/>
      <point x="207" y="314" type="line"/>
      <point x="538" y="314" type="line"/>
      <point x="538" y="415" type="line"/>
      <point x="207" y="415" type="line"/>
      <point x="207" y="624" type="line"/>
      <point x="578" y="624" type="line"/>
      <point x="578" y="725" type="line"/>
    </contour>
  </outline>
</glyph>
<glyph name="F" format="1">
  <advance width="553"/>
  <unicode hex="0046"/>
  <outline>
    <contour>
      <point x="103" y="0" type="line"/>
      <point x="103" y="714" type="line"/>
      <point x="512" y="714" type="line"/>
      <point x="512" y="651" type="line"/>
      <point x="171" y="651" type="line"/>
      <point x="171" y="381" type="line"/>
      <point x="472" y="381" type="line"/>
      <point x="472" y="317" type="line"/>
      <point x="171" y="317" type="line"/>
      <point x="171" y="0" type="line"/>
    </contour>
  </outline>
</glyph>
<glyph name="G" format="2">
  <advance width="753"/>
  <unicode hex="0047"/>
  <anchor x="384" y="0" name="bottom"/>
  <anchor x="408" y="725" name="top"/>
  <outline>
    <contour>
      <point x="674" y="64" type="curve"/>
      <point x="674" y="359" type="line"/>
      <point x="427" y="359" type="line"/>
      <point x="427" y="258" type="line"/>
      <point x="568" y="258" type="line"/>
      <point x="568" y="124" type="line"/>
      <point x="536" y="105"/>
      <point x="487" y="96"/>
      <point x="439" y="96" type="curve" smooth="yes"/>
      <point x="277" y="96"/>
      <point x="166" y="202"/>
      <point x="166" y="356" type="curve" smooth="yes"/>
      <point x="166" y="524"/>
      <point x="274" y="628"/>
      <point x="442" y="628" type="curve" smooth="yes"/>
      <point x="494" y="628"/>
      <point x="569" y="606"/>
      <point x="610" y="583" type="curve"/>
      <point x="645" y="680" type="line"/>
      <point x="590" y="711"/>
      <point x="515" y="733"/>
      <point x="429" y="733" type="curve" smooth="yes"/>
      <point x="230" y="733"/>
      <point x="58" y="595"/>
      <point x="58" y="347" type="curve" smooth="yes"/>
      <point x="58" y="144"/>
      <point x="205" y="-8"/>
      <point x="437" y="-8" type="curve" smooth="yes"/>
      <point x="520" y="-8"/>
      <point x="633" y="29"/>
    </contour>
  </outline>
</glyph>
<glyph name="H" format="1">
  <advance width="760"/>
  <unicode hex="0048"/>
  <outline>
    <contour>
      <point x="89" y="0" type="line"/>
      <point x="89" y="725" type="line"/>
      <point x="198" y="725" type="line"/>
      <point x="198" y="417" type="line"/>
      <point x="561" y="417" type="line"/>
      <point x="561" y="725" type="line"/>
      <point x="671" y="725" type="line"/>
      <point x="671" y="712"/>
      <point x="671" y="641"/>
      <point x="671" y="543"/>
      <point x="671" y="424"/>
      <point x="670" y="301"/>
      <point x="670" y="182"/>
      <point x="670" y="84"/>
      <point x="670" y="13"/>
      <point x="670" y="0" type="qcurve"/>
      <point x="561" y="0" type="line"/>
      <point x="561" y="313" type="line"/>
      <point x="198" y="313" type="line"/>
      <point x="198" y="0" type="line"/>
    </contour>
  </outline>
</glyph>
<glyph name="I" format="2">
  <advance width="310"/>
  <unicode hex="0049"/>
  <anchor x="155" y="0" name="bottom"/>
  <anchor x="183" y="10" name="ogonek"/>
  <anchor x="155" y="739" name="top"/>
  <anchor x="31" y="725" name="topleft"/>
  <outline>
    <contour>
      <point x="103" y="725" type="line"/>
      <point x="103" y="0" type="line"/>
      <point x="207" y="0" type="line"/>
      <point x="207" y="725" type="line"/>
    </contour>
  </outline>
</glyph>
<glyph name="J" format="2">
  <advance width="371"/>
  <unicode hex="004A"/>
  <anchor x="168" y="0" name="bottom"/>
  <anchor x="217" y="739" name="top"/>
  <outline>
    <contour>
      <point x="268" y="135" type="curve" smooth="yes"/>
      <point x="268" y="725" type="line"/>
      <point x="163" y="725" type="line"/>
      <point x="163" y="138" type="line" smooth="yes"/>
      <point x="163" y="13"/>
      <point x="96" y="-43"/>
      <point x="3" y="-48" type="curve"/>
      <point x="3" y="-150" type="line"/>
      <point x="3" y="-150" type="line"/>
      <point x="157" y="-145"/>
      <point x="268" y="-43"/>
    </contour>
  </outline>
</glyph>
<glyph name="K" format="1">
  <advance width="623"/>
  <unicode hex="004B"/>
  <outline>
    <contour>
      <point x="537" y="0" type="line"/>
      <point x="462" y="95"/>
      <point x="324" y="274"/>
      <point x="249" y="370" type="qcurve"/>
      <point x="231" y="352"/>
      <point x="195" y="318"/>
      <point x="176" y="301" type="qcurve"/>
      <point x="176" y="223"/>
      <point x="177" y="78"/>
      <point x="177" y="0" type="qcurve"/>
      <point x="102" y="0" type="line"/>
      <point x="102" y="714" type="line"/>
      <point x="177" y="714" type="line"/>
      <point x="177" y="414" type="line"/>
      <point x="177" y="406"/>
      <point x="175" y="390"/>
      <point x="174" y="381" type="qcurve"/>
      <point x="179" y="388"/>
      <point x="188" y="398"/>
      <point x="193" y="405" type="qcurve"/>
      <point x="273" y="480"/>
      <point x="427" y="638"/>
      <point x="507" y="714" type="qcurve"/>
      <point x="595" y="714" type="line"/>
      <point x="522" y="640"/>
      <point x="376" y="491"/>
      <point x="302" y="417" type="qcurve"/>
      <point x="386" y="310"/>
      <point x="540" y="107"/>
      <point x="623" y="0" type="qcurve"/>
    </contour>
  </outline>
</glyph>
<glyph name="L" format="2">
  <advance width="571"/>
  <unicode hex="004C"/>
  <outline>
    <contour>
      <point x="89" y="0" type="line"/>
      <point x="89" y="725" type="line"/>
      <point x="199" y="725" type="line"/>
      <point x="199" y="104" type="line"/>
      <point x="559" y="104" type="line"/>
      <point x="559" y="0" type="line"/>
    </contour>
  </outline>
</glyph>
<glyph name="M" format="2">
  <advance width="904"/>
  <unicode hex="004D"/>
  <outline>
    <contour>
      <point x="89" y="757" type="line"/>
      <point x="127" y="701"/>
      <point x="418" y="300"/>
      <point x="452" y="252" type="curve"/>
      <point x="470" y="278"/>
      <point x="775" y="702"/>
      <point x="815" y="757" type="curve"/>
      <point x="815" y="0" type="line"/>
      <point x="699" y="0" type="line"/>
      <point x="699" y="406" type="line" smooth="yes"/>
      <point x="699" y="416"/>
      <point x="702" y="431"/>
      <point x="702" y="436" type="curve"/>
      <point x="668" y="387"/>
      <point x="481" y="118"/>
      <point x="452" y="75" type="curve"/>
      <point x="425" y="110"/>
      <point x="209" y="413"/>
      <point x="195" y="436" type="curve"/>
      <point x="195" y="431"/>
      <point x="198" y="416"/>
      <point x="198" y="406" type="curve" smooth="yes"/>
      <point x="198" y="0" type="line"/>
      <point x="89" y="0" type="line"/>
    </contour>
  </outline>
</glyph>
<glyph name="N" format="1">
  <advance width="814"/>
  <unicode hex="004E"/>
  <outline>
    <contour>
      <point x="725" y="725" type="line"/>
      <point x="725" y="-33" type="line"/>
      <point x="711" y="-15"/>
      <point x="631" y="65"/>
      <point x="527" y="169"/>
      <point x="410" y="283"/>
      <point x="306" y="386"/>
      <point x="228" y="467"/>
      <point x="215" y="484" type="qcurve"/>
      <point x="196" y="510" type="line"/>
      <point x="199" y="478" type="line"/>
      <point x="199" y="0" type="line"/>
      <point x="89" y="0" type="line"/>
      <point x="89" y="759" type="line"/>
      <point x="100" y="745"/>
      <point x="151" y="693"/>
      <point x="220" y="624"/>
      <point x="303" y="544"/>
      <point x="388" y="462"/>
      <point x="471" y="383"/>
      <point x="540" y="315"/>
      <point x="590" y="263"/>
      <point x="600" y="250" type="qcurve"/>
      <point x="619" y="222" type="line"/>
      <point x="616" y="256" type="line"/>
      <point x="616" y="725" type="line"/>
    </contour>
  </outline>
</glyph>
<glyph name="O" format="2">
  <advance width="856"/>
  <unicode hex="004F"/>
  <anchor x="428" y="0" name="bottom"/>
  <anchor x="428" y="363" name="center"/>
  <anchor x="575" y="10" name="ogonek"/>
  <anchor x="428" y="732" name="top"/>
  <anchor x="22" y="725" name="topleft"/>
  <anchor x="511" y="835" name="topright"/>
  <outline>
    <contour>
      <point x="58" y="362" type="curve"/>
      <point x="58" y="154"/>
      <point x="223" y="-8"/>
      <point x="427" y="-8" type="curve" smooth="yes"/>
      <point x="630" y="-8"/>
      <point x="799" y="157"/>
      <point x="799" y="362" type="curve" smooth="yes"/>
      <point x="799" y="563"/>
      <point x="630" y="733"/>
      <point x="427" y="733" type="curve" smooth="yes"/>
      <point x="223" y="733"/>
      <point x="58" y="563"/>
    </contour>
    <contour>
      <point x="166" y="361" type="curve"/>
      <point x="166" y="510"/>
      <point x="279" y="632"/>
      <point x="428" y="632" type="curve" smooth="yes"/>
      <point x="574" y="632"/>
      <point x="691" y="512"/>
      <point x="691" y="362" type="curve" smooth="yes"/>
      <point x="691" y="212"/>
      <point x="576" y="93"/>
      <point x="430" y="93" type="curve" smooth="yes"/>
      <point x="282" y="93"/>
      <point x="166" y="213"/>
    </contour>
  </outline>
</glyph>
<glyph name="P" format="1">
  <advance width="577"/>
  <unicode hex="0050"/>
  <outline>
    <contour>
      <point x="199" y="362" type="line"/>
      <point x="298" y="362" type="line"/>
      <point x="338" y="362"/>
      <point x="392" y="390"/>
      <point x="423" y="430"/>
      <point x="436" y="476"/>
      <point x="436" y="494" type="qcurve"/>
      <point x="436" y="513"/>
      <point x="423" y="558"/>
      <point x="391" y="597"/>
      <point x="338" y="623"/>
      <point x="299" y="623" type="qcurve"/>
      <point x="199" y="623" type="line"/>
    </contour>
    <contour>
      <point x="89" y="0" type="line"/>
      <point x="89" y="725" type="line"/>
      <point x="287" y="725" type="line"/>
      <point x="344" y="725"/>
      <point x="439" y="695"/>
      <point x="508" y="636"/>
      <point x="546" y="551"/>
      <point x="546" y="496" type="qcurve"/>
      <point x="546" y="453"/>
      <point x="520" y="368"/>
      <point x="462" y="301"/>
      <point x="368" y="259"/>
      <point x="301" y="259" type="qcurve"/>
      <point x="199" y="259" type="line"/>
      <point x="199" y="0" type="line"/>
    </contour>
  </outline>
</glyph>
<glyph name="Q" format="1">
  <advance width="822"/>
  <unicode hex="0051"/>
  <outline>
    <contour>
      <point x="38" y="362" type="qcurve"/>
      <point x="38" y="437"/>
      <point x="96" y="572"/>
      <point x="196" y="674"/>
      <point x="330" y="733"/>
      <point x="407" y="733" type="qcurve"/>
      <point x="483" y="733"/>
      <point x="618" y="674"/>
      <point x="720" y="572"/>
      <point x="779" y="437"/>
      <point x="779" y="362" type="qcurve"/>
      <point x="779" y="285"/>
      <point x="725" y="151"/>
      <point x="677" y="95" type="qcurve"/>
      <point x="802" y="104" type="line"/>
      <point x="802" y="0" type="line"/>
      <point x="485" y="0" type="line"/>
      <point x="465" y="-4"/>
      <point x="427" y="-8"/>
      <point x="407" y="-8" type="qcurve"/>
      <point x="330" y="-8"/>
      <point x="196" y="50"/>
      <point x="96" y="151"/>
      <point x="38" y="285"/>
    </contour>
    <contour>
      <point x="147" y="361" type="qcurve"/>
      <point x="147" y="306"/>
      <point x="188" y="209"/>
      <point x="259" y="137"/>
      <point x="355" y="95"/>
      <point x="410" y="95" type="qcurve"/>
      <point x="464" y="95"/>
      <point x="559" y="137"/>
      <point x="630" y="209"/>
      <point x="671" y="306"/>
      <point x="671" y="362" type="qcurve"/>
      <point x="671" y="417"/>
      <point x="629" y="514"/>
      <point x="558" y="586"/>
      <point x="462" y="628"/>
      <point x="408" y="628" type="qcurve"/>
      <point x="354" y="628"/>
      <point x="258" y="586"/>
      <point x="188" y="514"/>
      <point x="147" y="416"/>
    </contour>
  </outline>
</glyph>
<glyph name="R" format="2">
  <advance width="664"/>
  <unicode hex="0052"/>
  <anchor x="330" y="0" name="bottom"/>
  <anchor x="303" y="739" name="top"/>
  <outline>
    <contour>
      <point x="300" y="725" type="curve" smooth="yes"/>
      <point x="103" y="725" type="line"/>
      <point x="103" y="0" type="line"/>
      <point x="207" y="0" type="line"/>
      <point x="207" y="261" type="line"/>
      <point x="314" y="261" type="line" smooth="yes"/>
      <point x="498" y="261"/>
      <point x="561" y="382"/>
      <point x="561" y="497" type="curve" smooth="yes"/>
      <point x="561" y="644"/>
      <point x="452" y="725"/>
    </contour>
    <contour>
      <point x="312" y="362" type="curve" smooth="yes"/>
      <point x="207" y="362" type="line"/>
      <point x="207" y="624" type="line"/>
      <point x="318" y="624" type="line" smooth="yes"/>
      <point x="420" y="624"/>
      <point x="453" y="546"/>
      <point x="453" y="493" type="curve" smooth="yes"/>
      <point x="453" y="438"/>
      <point x="423" y="362"/>
    </contour>
    <contour>
      <point x="434" y="300" type="line"/>
      <point x="309" y="298" type="line"/>
      <point x="500" y="0" type="line"/>
      <point x="622" y="0" type="line"/>
    </contour>
  </outline>
</glyph>
<glyph name="S" format="2">
  <advance width="582"/>
  <unicode hex="0053"/>
  <anchor x="290" y="-7" name="bottom"/>
  <anchor x="290" y="731" name="top"/>
  <outline>
    <contour>
      <point x="480" y="588" type="curve"/>
      <point x="519" y="669" type="line"/>
      <point x="464" y="702"/>
      <point x="394" y="729"/>
      <point x="298" y="729" type="curve" smooth="yes"/>
      <point x="171" y="724"/>
      <point x="82" y="649"/>
      <point x="82" y="532" type="curve" smooth="yes"/>
      <point x="82" y="404"/>
      <point x="192" y="361"/>
      <point x="283" y="327" type="curve" smooth="yes"/>
      <point x="353" y="300"/>
      <point x="417" y="266"/>
      <point x="417" y="198" type="curve" smooth="yes"/>
      <point x="417" y="116"/>
      <point x="343" y="84"/>
      <point x="276" y="84" type="curve" smooth="yes"/>
      <point x="215" y="84"/>
      <point x="140" y="115"/>
      <point x="93" y="151" type="curve"/>
      <point x="46" y="68" type="line"/>
      <point x="106" y="26"/>
      <point x="193" y="-8"/>
      <point x="286" y="-8" type="curve" smooth="yes"/>
      <point x="436" y="-8"/>
      <point x="526" y="83"/>
      <point x="526" y="198" type="curve" smooth="yes"/>
      <point x="526" y="335"/>
      <point x="432" y="380"/>
      <point x="343" y="414" type="curve" smooth="yes"/>
      <point x="265" y="443"/>
      <point x="190" y="477"/>
      <point x="190" y="540" type="curve" smooth="yes"/>
      <point x="190" y="600"/>
      <point x="237" y="636"/>
      <point x="313" y="636" type="curve" smooth="yes"/>
      <point x="368" y="636"/>
      <point x="429" y="615"/>
    </contour>
  </outline>
</glyph>
<glyph name="T" format="2">
  <advance width="582"/>
  <unicode hex="0054"/>
  <anchor x="291" y="0" name="bottom"/>
  <anchor x="291" y="363" name="center"/>
  <anchor x="291" y="725" name="top"/>
  <outline>
    <contour>
      <point x="50" y="725" type="line"/>
      <point x="50" y="624" type="line"/>
      <point x="236" y="624" type="line"/>
      <point x="236" y="0" type="line"/>
      <point x="341" y="0" type="line"/>
      <point x="341" y="624" type="line"/>
      <point x="533" y="624" type="line"/>
      <point x="533" y="725" type="line"/>
    </contour>
  </outline>
</glyph>
<glyph name="U" format="2">
  <advance width="735"/>
  <unicode hex="0055"/>
  <anchor x="368" y="0" name="bottom"/>
  <anchor x="516" y="10" name="ogonek"/>
  <anchor x="368" y="739" name="top"/>
  <anchor x="636" y="786" name="topright"/>
  <outline>
    <contour>
      <point x="197" y="259" type="curve" smooth="yes"/>
      <point x="197" y="725" type="line"/>
      <point x="92" y="725" type="line"/>
      <point x="92" y="256" type="line" smooth="yes"/>
      <point x="92" y="96"/>
      <point x="213" y="-8"/>
      <point x="367" y="-8" type="curve" smooth="yes"/>
      <point x="367" y="-8" type="line" smooth="yes"/>
      <point x="521" y="-8"/>
      <point x="643" y="96"/>
      <point x="643" y="256" type="curve" smooth="yes"/>
      <point x="643" y="725" type="line"/>
      <point x="540" y="725" type="line"/>
      <point x="540" y="259" type="line" smooth="yes"/>
      <point x="540" y="166"/>
      <point x="466" y="94"/>
      <point x="367" y="94" type="curve" smooth="yes"/>
      <point x="272" y="94"/>
      <point x="197" y="166"/>
    </contour>
  </outline>
</glyph>
<glyph name="V" format="2">
  <advance width="722"/>
  <unicode hex="0056"/>
  <anchor x="361" y="0" name="bottom"/>
  <anchor x="361" y="725" name="top"/>
  <outline>
    <contour>
      <point x="164" y="725" type="line"/>
      <point x="39" y="725" type="line"/>
      <point x="361" y="-34" type="line"/>
      <point x="683" y="725" type="line"/>
      <point x="559" y="725" type="line"/>
      <point x="339" y="150" type="line"/>
      <point x="399" y="138" type="line"/>
    </contour>
  </outline>
</glyph>
<glyph name="W" format="1">
  <advance width="948"/>
  <unicode hex="0057"/>
  <outline>
    <contour>
      <point x="940" y="722" type="line"/>
      <point x="904" y="627"/>
      <point x="823" y="418"/>
      <point x="744" y="216"/>
      <point x="674" y="34"/>
      <point x="650" y="-32" type="qcurve"/>
      <point x="488" y="373" type="line"/>
      <point x="485" y="381"/>
      <point x="481" y="389"/>
      <point x="479" y="397" type="qcurve"/>
      <point x="479" y="393"/>
      <point x="477" y="386"/>
      <point x="476" y="382" type="qcurve"/>
      <point x="475" y="378"/>
      <point x="474" y="374" type="qcurve"/>
      <point x="440" y="296"/>
      <point x="407" y="221" type="qcurve"/>
      <point x="393" y="189"/>
      <point x="363" y="121"/>
      <point x="335" y="54"/>
      <point x="308" y="-8"/>
      <point x="297" y="-33" type="qcurve"/>
      <point x="225" y="156"/>
      <point x="79" y="532"/>
      <point x="7" y="722" type="qcurve"/>
      <point x="130" y="722" type="line"/>
      <point x="154" y="656"/>
      <point x="205" y="522"/>
      <point x="250" y="398"/>
      <point x="286" y="292"/>
      <point x="296" y="255" type="qcurve"/>
      <point x="304" y="220" type="line"/>
      <point x="305" y="225"/>
      <point x="313" y="248"/>
      <point x="315" y="253" type="qcurve"/>
      <point x="316" y="257"/>
      <point x="328" y="285"/>
      <point x="344" y="324"/>
      <point x="364" y="370"/>
      <point x="374" y="394" type="qcurve"/>
      <point x="398" y="449"/>
      <point x="427" y="516" type="qcurve"/>
      <point x="410" y="563"/>
      <point x="397" y="604" type="qcurve"/>
      <point x="385" y="639"/>
      <point x="364" y="707"/>
      <point x="359" y="722" type="qcurve"/>
      <point x="464" y="722" type="line"/>
      <point x="507" y="609"/>
      <point x="544" y="513" type="qcurve"/>
      <point x="559" y="472"/>
      <point x="590" y="390"/>
      <point x="617" y="320"/>
      <point x="637" y="267"/>
      <point x="641" y="255" type="qcurve"/>
      <point x="644" y="246"/>
      <point x="647" y="229"/>
      <point x="649" y="220" type="qcurve"/>
      <point x="651" y="229"/>
      <point x="654" y="247"/>
      <point x="656" y="255" type="qcurve"/>
      <point x="665" y="294"/>
      <point x="703" y="402"/>
      <point x="750" y="526"/>
      <point x="802" y="659"/>
      <point x="826" y="722" type="qcurve"/>
    </contour>
  </outline>
</glyph>
<glyph name="X" format="1">
  <advance width="631"/>
  <unicode hex="0058"/>
  <outline>
    <contour>
      <point x="244" y="371" type="line"/>
      <point x="17" y="725" type="line"/>
      <point x="151" y="725" type="line"/>
      <point x="156" y="717"/>
      <point x="180" y="679"/>
      <point x="210" y="630"/>
      <point x="244" y="575"/>
      <point x="274" y="526"/>
      <point x="297" y="488"/>
      <point x="302" y="480" type="qcurve"/>
      <point x="303" y="478"/>
      <point x="315" y="455"/>
      <point x="318" y="446" type="qcurve"/>
      <point x="321" y="455"/>
      <point x="333" y="478"/>
      <point x="334" y="480" type="qcurve"/>
      <point x="339" y="488"/>
      <point x="362" y="526"/>
      <point x="391" y="575"/>
      <point x="423" y="630"/>
      <point x="452" y="679"/>
      <point x="475" y="717"/>
      <point x="480" y="725" type="qcurve"/>
      <point x="614" y="725" type="line"/>
      <point x="608" y="716"/>
      <point x="574" y="661"/>
      <point x="527" y="587"/>
      <point x="475" y="503"/>
      <point x="428" y="429"/>
      <point x="393" y="374"/>
      <point x="388" y="365" type="qcurve"/>
      <point x="624" y="0" type="line"/>
      <point x="488" y="0" type="line"/>
      <point x="340" y="238" type="line"/>
      <point x="338" y="241"/>
      <point x="330" y="253"/>
      <point x="322" y="268"/>
      <point x="314" y="282"/>
      <point x="312" y="286" type="qcurve"/>
      <point x="309" y="277"/>
      <point x="299" y="257"/>
      <point x="298" y="256" type="qcurve"/>
      <point x="290" y="243"/>
      <point x="245" y="170"/>
      <point x="196" y="86"/>
      <point x="151" y="13"/>
      <point x="143" y="0" type="qcurve"/>
      <point x="7" y="0" type="line"/>
    </contour>
  </outline>
</glyph>
<glyph name="Y" format="2">
  <advance width="696"/>
  <unicode hex="0059"/>
  <anchor x="348" y="0" name="bottom"/>
  <anchor x="362" y="737" name="top"/>
  <anchor x="16" y="725" name="topleft"/>
  <outline>
    <contour>
      <point x="294" y="239" type="line"/>
      <point x="294" y="0" type="line"/>
      <point x="399" y="0" type="line"/>
      <point x="399" y="239" type="line"/>
      <point x="670" y="725" type="line"/>
      <point x="542" y="725" type="line"/>
      <point x="333" y="327" type="line"/>
      <point x="366" y="329" type="line"/>
      <point x="155" y="725" type="line"/>
      <point x="26" y="725" type="line"/>
    </contour>
  </outline>
</glyph>
<glyph name="Z" format="2">
  <advance width="714"/>
  <unicode hex="005A"/>
  <anchor x="357" y="0" name="bottom"/>
  <anchor x="357" y="725" name="top"/>
  <outline>
    <contour>
      <point x="50" y="0" type="curve"/>
      <point x="660" y="0" type="line"/>
      <point x="660" y="101" type="line"/>
      <point x="215" y="101" type="line"/>
      <point x="221" y="88" type="line"/>
      <point x="651" y="725" type="line"/>
      <point x="221" y="725" type="line"/>
      <point x="198" y="725"/>
      <point x="190" y="724"/>
      <point x="190" y="748" type="curve" smooth="yes"/>
      <point x="190" y="761" type="line"/>
      <point x="93" y="761" type="line"/>
      <point x="93" y="687" type="line" smooth="yes"/>
      <point x="93" y="648"/>
      <point x="136" y="624"/>
      <point x="177" y="624" type="curve" smooth="yes"/>
      <point x="499" y="624" type="line"/>
      <point x="486" y="653" type="line"/>
      <point x="435" y="586"/>
      <point x="100" y="71"/>
    </contour>
  </outline>
</glyph>
<glyph name="bracketleft" format="2">
  <advance width="364"/>
  <unicode hex="005B"/>
  <outline>
    <contour>
      <point x="103" y="756" type="line"/>
      <point x="103" y="-151" type="line"/>
      <point x="315" y="-151" type="line"/>
      <point x="315" y="-57" type="line"/>
      <point x="208" y="-57" type="line"/>
      <point x="208" y="662" type="line"/>
      <point x="315" y="662" type="line"/>
      <point x="315" y="756" type="line"/>
    </contour>
  </outline>
</glyph>
<glyph name="backslash" format="2">
  <advance width="447"/>
  <unicode hex="005C"/>
  <outline>
    <contour>
      <point x="135" y="746" type="line"/>
      <point x="229" y="491"/>
      <point x="322" y="236"/>
      <point x="417" y="-19" type="curve"/>
      <point x="313" y="-19" type="line"/>
      <point x="31" y="746" type="line"/>
    </contour>
  </outline>
</glyph>
<glyph name="bracketright" format="2">
  <advance width="364"/>
  <unicode hex="005D"/>
  <outline>
    <contour>
      <point x="262" y="-151" type="line"/>
      <point x="262" y="756" type="line"/>
      <point x="50" y="756" type="line"/>
      <point x="50" y="663" type="line"/>
      <point x="157" y="663" type="line"/>
      <point x="157" y="-57" type="line"/>
      <point x="50" y="-57" type="line"/>
      <point x="50" y="-151" type="line"/>
    </contour>
  </outline>
</glyph>
<glyph name="asciicircum" format="2">
  <advance width="366"/>
  <unicode hex="005E"/>
  <outline>
    <contour>
      <point x="183" y="669" type="curve"/>
      <point x="223" y="608"/>
      <point x="264" y="547"/>
      <point x="305" y="486" type="curve"/>
      <point x="241" y="486" type="line"/>
      <point x="230" y="501"/>
      <point x="193" y="548"/>
      <point x="183" y="564" type="curve"/>
      <point x="172" y="548"/>
      <point x="136" y="501"/>
      <point x="126" y="486" type="curve"/>
      <point x="61" y="486" type="line"/>
      <point x="102" y="547"/>
      <point x="143" y="608"/>
    </contour>
  </outline>
</glyph>
<glyph name="underscore" format="2">
  <advance width="608"/>
  <unicode hex="005F"/>
  <outline>
    <contour>
      <point x="102" y="88" type="line"/>
      <point x="102" y="0" type="line"/>
      <point x="507" y="0" type="line"/>
      <point x="507" y="88" type="line"/>
    </contour>
  </outline>
</glyph>
<glyph name="grave" format="2">
  <advance width="203"/>
  <unicode hex="0060"/>
  <outline>
    <contour>
      <point x="37" y="620" type="line"/>
      <point x="68" y="576"/>
      <point x="98" y="530"/>
      <point x="128" y="486" type="curve"/>
      <point x="64" y="486" type="line"/>
      <point x="24" y="530"/>
      <point x="-16" y="576"/>
      <point x="-55" y="620" type="curve"/>
    </contour>
  </outline>
</glyph>
<glyph name="a" format="2">
  <advance width="591"/>
  <unicode hex="0061"/>
  <anchor x="296" y="0" name="bottom"/>
  <anchor x="583" y="10" name="ogonek"/>
  <anchor x="309" y="432" name="top"/>
  <outline>
    <contour>
      <point x="254" y="-10" type="curve" smooth="yes"/>
      <point x="351" y="-10"/>
      <point x="410" y="59"/>
      <point x="421" y="81" type="curve"/>
      <point x="411" y="106" type="line"/>
      <point x="411" y="0" type="line"/>
      <point x="512" y="0" type="line"/>
      <point x="512" y="418" type="line"/>
      <point x="419" y="418" type="line"/>
      <point x="409" y="334" type="line"/>
      <point x="415" y="350" type="line"/>
      <point x="387" y="396"/>
      <point x="336" y="435"/>
      <point x="256" y="435" type="curve" smooth="yes"/>
      <point x="141" y="435"/>
      <point x="43" y="349"/>
      <point x="43" y="209" type="curve" smooth="yes"/>
      <point x="43" y="65"/>
      <point x="136" y="-10"/>
    </contour>
    <contour>
      <point x="281" y="73" type="curve" smooth="yes"/>
      <point x="208" y="73"/>
      <point x="146" y="134"/>
      <point x="146" y="214" type="curve" smooth="yes"/>
      <point x="146" y="296"/>
      <point x="206" y="353"/>
      <point x="278" y="353" type="curve" smooth="yes"/>
      <point x="342" y="353"/>
      <point x="395" y="313"/>
      <point x="411" y="258" type="curve"/>
      <point x="411" y="172" type="line"/>
      <point x="396" y="111"/>
      <point x="347" y="73"/>
    </contour>
  </outline>
</glyph>
<glyph name="b" format="1">
  <advance width="531"/>
  <unicode hex="0062"/>
  <outline>
    <contour>
      <point x="491" y="200" type="qcurve"/>
      <point x="491" y="156"/>
      <point x="460" y="80"/>
      <point x="404" y="24"/>
      <point x="328" y="-8"/>
      <point x="283" y="-8" type="qcurve"/>
      <point x="227" y="-8"/>
      <point x="140" y="44"/>
      <point x="123" y="82" type="qcurve"/>
      <point x="123" y="72"/>
      <point x="124" y="53"/>
      <point x="124" y="42" type="qcurve"/>
      <point x="124" y="0" type="line"/>
      <point x="69" y="0" type="line"/>
      <point x="69" y="766" type="line"/>
      <point x="124" y="766" type="line"/>
      <point x="124" y="316" type="line"/>
      <point x="143" y="353"/>
      <point x="227" y="409"/>
      <point x="285" y="409" type="qcurve"/>
      <point x="330" y="409"/>
      <point x="405" y="378"/>
      <point x="460" y="323"/>
      <point x="491" y="246"/>
    </contour>
    <contour>
      <point x="432" y="200" type="qcurve"/>
      <point x="432" y="233"/>
      <point x="410" y="290"/>
      <point x="369" y="331"/>
      <point x="313" y="355"/>
      <point x="280" y="355" type="qcurve"/>
      <point x="247" y="355"/>
      <point x="190" y="331"/>
      <point x="148" y="290"/>
      <point x="124" y="234"/>
      <point x="124" y="201" type="qcurve"/>
      <point x="124" y="168"/>
      <point x="148" y="112"/>
      <point x="190" y="70"/>
      <point x="247" y="46"/>
      <point x="280" y="46" type="qcurve"/>
      <point x="313" y="46"/>
      <point x="369" y="70"/>
      <point x="410" y="112"/>
      <point x="432" y="168"/>
    </contour>
  </outline>
</glyph>
<glyph name="c" format="2">
  <advance width="460"/>
  <unicode hex="0063"/>
  <anchor x="229" y="0" name="bottom"/>
  <anchor x="254" y="425" name="top"/>
  <outline>
    <contour>
      <point x="421" y="39" type="curve"/>
      <point x="370" y="102" type="line"/>
      <point x="347" y="84"/>
      <point x="317" y="73"/>
      <point x="282" y="73" type="curve" smooth="yes"/>
      <point x="201" y="73"/>
      <point x="144" y="133"/>
      <point x="144" y="209" type="curve" smooth="yes"/>
      <point x="144" y="287"/>
      <point x="201" y="346"/>
      <point x="272" y="346" type="curve" smooth="yes"/>
      <point x="316" y="346"/>
      <point x="351" y="328"/>
      <point x="374" y="310" type="curve"/>
      <point x="424" y="375" type="line"/>
      <point x="385" y="408"/>
      <point x="333" y="428"/>
      <point x="264" y="428" type="curve" smooth="yes"/>
      <point x="148" y="428"/>
      <point x="43" y="344"/>
      <point x="43" y="209" type="curve" smooth="yes"/>
      <point x="43" y="75"/>
      <point x="137" y="-10"/>
      <point x="274" y="-10" type="curve" smooth="yes"/>
      <point x="327" y="-10"/>
      <point x="383" y="8"/>
    </contour>
  </outline>
</glyph>
<glyph name="d" format="2">
  <advance width="598"/>
  <unicode hex="0064"/>
  <anchor x="299" y="0" name="bottom"/>
  <anchor x="466" y="637" name="center"/>
  <anchor x="299" y="418" name="top"/>
  <anchor x="578" y="418" name="topright"/>
  <outline>
    <contour>
      <point x="250" y="-10" type="curve" smooth="yes"/>
      <point x="326" y="-10"/>
      <point x="388" y="25"/>
      <point x="428" y="73" type="curve"/>
      <point x="417" y="100" type="line"/>
      <point x="417" y="0" type="line"/>
      <point x="519" y="0" type="line"/>
      <point x="519" y="777" type="line"/>
      <point x="418" y="777" type="line"/>
      <point x="418" y="326" type="line"/>
      <point x="422" y="361" type="line"/>
      <point x="388" y="408"/>
      <point x="326" y="435"/>
      <point x="262" y="435" type="curve" smooth="yes"/>
      <point x="138" y="435"/>
      <point x="43" y="354"/>
      <point x="43" y="215" type="curve" smooth="yes"/>
      <point x="43" y="78"/>
      <point x="132" y="-10"/>
    </contour>
    <contour>
      <point x="281" y="75" type="curve" smooth="yes"/>
      <point x="208" y="75"/>
      <point x="146" y="137"/>
      <point x="146" y="216" type="curve" smooth="yes"/>
      <point x="146" y="298"/>
      <point x="208" y="355"/>
      <point x="281" y="355" type="curve" smooth="yes"/>
      <point x="348" y="355"/>
      <point x="402" y="315"/>
      <point x="417" y="259" type="curve"/>
      <point x="417" y="176" type="line"/>
      <point x="401" y="115"/>
      <point x="351" y="75"/>
    </contour>
  </outline>
</glyph>
<glyph name="e" format="2">
  <advance width="525"/>
  <unicode hex="0065"/>
  <anchor x="264" y="0" name="bottom"/>
  <anchor x="456" y="10" name="ogonek"/>
  <anchor x="272" y="432" name="top"/>
  <outline>
    <contour>
      <point x="275" y="-10" type="curve" smooth="yes"/>
      <point x="324" y="-10"/>
      <point x="379" y="8"/>
      <point x="422" y="36" type="curve"/>
      <point x="376" y="111" type="line"/>
      <point x="346" y="89"/>
      <point x="313" y="76"/>
      <point x="277" y="76" type="curve" smooth="yes"/>
      <point x="200" y="76"/>
      <point x="143" y="133"/>
      <point x="143" y="218" type="curve" smooth="yes"/>
      <point x="143" y="298"/>
      <point x="195" y="355"/>
      <point x="270" y="355" type="curve" smooth="yes"/>
      <point x="330" y="355"/>
      <point x="363" y="318"/>
      <point x="379" y="276" type="curve"/>
      <point x="400" y="290" type="line"/>
      <point x="126" y="190" type="line"/>
      <point x="150" y="132" type="line"/>
      <point x="491" y="250" type="line"/>
      <point x="465" y="367"/>
      <point x="389" y="435"/>
      <point x="277" y="435" type="curve" smooth="yes"/>
      <point x="147" y="435"/>
      <point x="43" y="336"/>
      <point x="43" y="212" type="curve" smooth="yes"/>
      <point x="43" y="83"/>
      <point x="131" y="-10"/>
    </contour>
  </outline>
</glyph>
<glyph name="f" format="1">
  <advance width="296"/>
  <unicode hex="0066"/>
  <outline>
    <contour>
      <point x="28" y="345" type="line"/>
      <point x="28" y="399" type="line"/>
      <point x="97" y="399" type="line"/>
      <point x="97" y="517" type="line"/>
      <point x="97" y="639"/>
      <point x="214" y="762"/>
      <point x="311" y="766" type="qcurve"/>
      <point x="311" y="713" type="line"/>
      <point x="237" y="711"/>
      <point x="152" y="608"/>
      <point x="152" y="517" type="qcurve"/>
      <point x="152" y="399" type="line"/>
      <point x="283" y="399" type="line"/>
      <point x="283" y="345" type="line"/>
      <point x="152" y="345" type="line"/>
      <point x="152" y="0" type="line"/>
      <point x="97" y="0" type="line"/>
      <point x="97" y="345" type="line"/>
    </contour>
  </outline>
</glyph>
<glyph name="g" format="2">
  <advance width="604"/>
  <unicode hex="0067"/>
  <anchor x="302" y="0" name="bottom"/>
  <anchor x="302" y="432" name="top"/>
  <outline>
    <contour>
      <point x="283" y="-208" type="curve" smooth="yes"/>
      <point x="430" y="-208"/>
      <point x="525" y="-118"/>
      <point x="525" y="-3" type="curve" smooth="yes"/>
      <point x="525" y="418" type="line"/>
      <point x="432" y="418" type="line"/>
      <point x="422" y="343" type="line"/>
      <point x="427" y="360" type="line"/>
      <point x="399" y="404"/>
      <point x="335" y="435"/>
      <point x="261" y="435" type="curve" smooth="yes"/>
      <point x="146" y="435"/>
      <point x="43" y="341"/>
      <point x="43" y="211" type="curve" smooth="yes"/>
      <point x="43" y="85"/>
      <point x="139" y="-10"/>
      <point x="255" y="-10" type="curve" smooth="yes"/>
      <point x="344" y="-10"/>
      <point x="407" y="33"/>
      <point x="431" y="89" type="curve"/>
      <point x="424" y="108" type="line"/>
      <point x="424" y="-1" type="line"/>
      <point x="423" y="-73"/>
      <point x="371" y="-119"/>
      <point x="281" y="-119" type="curve" smooth="yes"/>
      <point x="223" y="-119"/>
      <point x="181" y="-95"/>
      <point x="140" y="-55" type="curve"/>
      <point x="80" y="-124" type="line"/>
      <point x="132" y="-170"/>
      <point x="187" y="-208"/>
    </contour>
    <contour>
      <point x="145" y="214" type="curve" smooth="yes"/>
      <point x="145" y="295"/>
      <point x="206" y="353"/>
      <point x="284" y="353" type="curve" smooth="yes"/>
      <point x="352" y="353"/>
      <point x="406" y="314"/>
      <point x="424" y="257" type="curve"/>
      <point x="424" y="171" type="line"/>
      <point x="406" y="113"/>
      <point x="354" y="73"/>
      <point x="284" y="73" type="curve" smooth="yes"/>
      <point x="206" y="73"/>
      <point x="145" y="134"/>
    </contour>
  </outline>
</glyph>
<glyph name="h" format="1">
  <advance width="509"/>
  <unicode hex="0068"/>
  <outline>
    <contour>
      <point x="60" y="777" type="line"/>
      <point x="145" y="777" type="line"/>
      <point x="145" y="317" type="line"/>
      <point x="167" y="367"/>
      <point x="247" y="428"/>
      <point x="310" y="429" type="qcurve"/>
      <point x="374" y="430"/>
      <point x="451" y="360"/>
      <point x="453" y="304" type="qcurve"/>
      <point x="453" y="0" type="line"/>
      <point x="367" y="0" type="line"/>
      <point x="367" y="265" type="line"/>
      <point x="365" y="297"/>
      <point x="325" y="342"/>
      <point x="282" y="344" type="qcurve"/>
      <point x="252" y="344"/>
      <point x="202" y="323"/>
      <point x="166" y="287"/>
      <point x="145" y="237"/>
      <point x="145" y="207" type="qcurve"/>
      <point x="145" y="0" type="line"/>
      <point x="60" y="0" type="line"/>
    </contour>
  </outline>
</glyph>
<glyph name="i" format="1">
  <advance width="191"/>
  <unicode hex="0069"/>
  <outline>
    <contour>
      <point x="56" y="545" type="qcurve"/>
      <point x="56" y="562"/>
      <point x="81" y="585"/>
      <point x="96" y="585" type="qcurve"/>
      <point x="111" y="585"/>
      <point x="135" y="562"/>
      <point x="135" y="545" type="qcurve"/>
      <point x="135" y="527"/>
      <point x="111" y="505"/>
      <point x="96" y="505" type="qcurve"/>
      <point x="81" y="505"/>
      <point x="56" y="527"/>
    </contour>
    <contour>
      <point x="123" y="0" type="line"/>
      <point x="68" y="0" type="line"/>
      <point x="68" y="400" type="line"/>
      <point x="123" y="400" type="line"/>
    </contour>
  </outline>
</glyph>
<glyph name="k" format="2">
  <advance width="506"/>
  <unicode hex="006B"/>
  <anchor x="253" y="0" name="bottom"/>
  <anchor x="253" y="418" name="top"/>
  <outline>
    <contour>
      <point x="79" y="0" type="line"/>
      <point x="180" y="0" type="line"/>
      <point x="180" y="777" type="line"/>
      <point x="79" y="777" type="line"/>
    </contour>
    <contour>
      <point x="282" y="279" type="line"/>
      <point x="215" y="222" type="line"/>
      <point x="356" y="0" type="line"/>
      <point x="474" y="0" type="line"/>
    </contour>
    <contour>
      <point x="149" y="130" type="line"/>
      <point x="454" y="373" type="line"/>
      <point x="393" y="427" type="line"/>
      <point x="139" y="227" type="line"/>
    </contour>
  </outline>
</glyph>
<glyph name="l" format="2">
  <advance width="259"/>
  <unicode hex="006C"/>
  <anchor x="130" y="0" name="bottom"/>
  <anchor x="130" y="209" name="center"/>
  <anchor x="132" y="789" name="top"/>
  <anchor x="240" y="418" name="topright"/>
  <outline>
    <contour>
      <point x="79" y="777" type="line"/>
      <point x="79" y="0" type="line"/>
      <point x="180" y="0" type="line"/>
      <point x="180" y="777" type="line"/>
    </contour>
  </outline>
</glyph>
<glyph name="m" format="2">
  <advance width="802"/>
  <unicode hex="006D"/>
  <outline>
    <contour>
      <point x="60" y="418" type="line"/>
      <point x="135" y="418" type="line"/>
      <point x="137" y="377"/>
      <point x="140" y="344"/>
      <point x="142" y="311" type="curve"/>
      <point x="173" y="382"/>
      <point x="219" y="428"/>
      <point x="303" y="429" type="curve" smooth="yes"/>
      <point x="384" y="429"/>
      <point x="436" y="383"/>
      <point x="444" y="317" type="curve"/>
      <point x="477" y="384"/>
      <point x="522" y="428"/>
      <point x="604" y="429" type="curve" smooth="yes"/>
      <point x="690" y="429"/>
      <point x="744" y="377"/>
      <point x="746" y="304" type="curve" smooth="yes"/>
      <point x="746" y="0" type="line"/>
      <point x="660" y="0" type="line"/>
      <point x="660" y="265" type="line" smooth="yes"/>
      <point x="658" y="307"/>
      <point x="633" y="341"/>
      <point x="575" y="344" type="curve"/>
      <point x="496" y="344"/>
      <point x="447" y="287"/>
      <point x="445" y="207" type="curve"/>
      <point x="445" y="0" type="line"/>
      <point x="360" y="0" type="line"/>
      <point x="360" y="265" type="line" smooth="yes"/>
      <point x="358" y="307"/>
      <point x="331" y="341"/>
      <point x="275" y="344" type="curve"/>
      <point x="195" y="344"/>
      <point x="145" y="286"/>
      <point x="145" y="207" type="curve" smooth="yes"/>
      <point x="145" y="0" type="line"/>
      <point x="60" y="0" type="line"/>
    </contour>
  </outline>
</glyph>
<glyph name="n" format="1">
  <advance width="509"/>
  <unicode hex="006E"/>
  <outline>
    <contour>
      <point x="60" y="418" type="line"/>
      <point x="135" y="418" type="line"/>
      <point x="137" y="387"/>
      <point x="140" y="336"/>
      <point x="142" y="311" type="qcurve"/>
      <point x="165" y="365"/>
      <point x="250" y="429"/>
      <point x="312" y="429" type="qcurve"/>
      <point x="375" y="429"/>
      <point x="451" y="359"/>
      <point x="453" y="304" type="qcurve"/>
      <point x="453" y="0" type="line"/>
      <point x="367" y="0" type="line"/>
      <point x="367" y="265" type="line"/>
      <point x="365" y="297"/>
      <point x="325" y="342"/>
      <point x="282" y="344" type="qcurve"/>
      <point x="252" y="344"/>
      <point x="202" y="323"/>
      <point x="166" y="287"/>
      <point x="145" y="237"/>
      <point x="145" y="207" type="qcurve"/>
      <point x="145" y="0" type="line"/>
      <point x="60" y="0" type="line"/>
    </contour>
  </outline>
</glyph>
<glyph name="o" format="2">
  <advance width="549"/>
  <unicode hex="006F"/>
  <anchor x="275" y="0" name="bottom"/>
  <anchor x="275" y="209" name="center"/>
  <anchor x="485" y="10" name="ogonek"/>
  <anchor x="275" y="432" name="top"/>
  <anchor x="418" y="418" name="topright"/>
  <outline>
    <contour>
      <point x="43" y="213" type="curve"/>
      <point x="43" y="76"/>
      <point x="142" y="-10"/>
      <point x="275" y="-10" type="curve" smooth="yes"/>
      <point x="414" y="-10"/>
      <point x="506" y="87"/>
      <point x="506" y="213" type="curve" smooth="yes"/>
      <point x="506" y="339"/>
      <point x="414" y="435"/>
      <point x="277" y="435" type="curve" smooth="yes"/>
      <point x="140" y="435"/>
      <point x="43" y="339"/>
    </contour>
    <contour>
      <point x="145" y="212" type="curve"/>
      <point x="145" y="288"/>
      <point x="200" y="352"/>
      <point x="274" y="352" type="curve" smooth="yes"/>
      <point x="350" y="352"/>
      <point x="404" y="291"/>
      <point x="404" y="212" type="curve" smooth="yes"/>
      <point x="404" y="133"/>
      <point x="350" y="73"/>
      <point x="274" y="73" type="curve" smooth="yes"/>
      <point x="201" y="73"/>
      <point x="145" y="133"/>
    </contour>
  </outline>
</glyph>
<glyph name="p" format="2">
  <advance width="598"/>
  <unicode hex="0070"/>
  <anchor x="300" y="0" name="bottom"/>
  <anchor x="300" y="418" name="top"/>
  <outline>
    <contour>
      <point x="329" y="-10" type="curve" smooth="yes"/>
      <point x="458" y="-10"/>
      <point x="554" y="74"/>
      <point x="554" y="210" type="curve" smooth="yes"/>
      <point x="554" y="346"/>
      <point x="466" y="435"/>
      <point x="348" y="435" type="curve" smooth="yes"/>
      <point x="272" y="435"/>
      <point x="210" y="400"/>
      <point x="170" y="351" type="curve"/>
      <point x="180" y="322" type="line"/>
      <point x="166" y="425" type="line"/>
      <point x="79" y="425" type="line"/>
      <point x="79" y="-201" type="line"/>
      <point x="180" y="-201" type="line"/>
      <point x="180" y="98" type="line"/>
      <point x="174" y="67" type="line"/>
      <point x="206" y="19"/>
      <point x="267" y="-10"/>
    </contour>
    <contour>
      <point x="309" y="70" type="curve" smooth="yes"/>
      <point x="244" y="70"/>
      <point x="191" y="113"/>
      <point x="180" y="173" type="curve"/>
      <point x="180" y="248" type="line"/>
      <point x="197" y="309"/>
      <point x="247" y="350"/>
      <point x="316" y="350" type="curve" smooth="yes"/>
      <point x="392" y="350"/>
      <point x="452" y="291"/>
      <point x="452" y="209" type="curve" smooth="yes"/>
      <point x="452" y="129"/>
      <point x="387" y="70"/>
    </contour>
  </outline>
</glyph>
<glyph name="q" format="2">
  <advance width="598"/>
  <unicode hex="0071"/>
  <anchor x="299" y="0" name="bottom"/>
  <anchor x="299" y="418" name="top"/>
  <outline>
    <contour>
      <point x="247" y="-10" type="curve" smooth="yes"/>
      <point x="324" y="-10"/>
      <point x="389" y="20"/>
      <point x="422" y="63" type="curve"/>
      <point x="418" y="103" type="line"/>
      <point x="418" y="-201" type="line"/>
      <point x="519" y="-201" type="line"/>
      <point x="519" y="425" type="line"/>
      <point x="417" y="425" type="line"/>
      <point x="417" y="322" type="line"/>
      <point x="428" y="351" type="line"/>
      <point x="394" y="401"/>
      <point x="337" y="435"/>
      <point x="263" y="435" type="curve" smooth="yes"/>
      <point x="144" y="435"/>
      <point x="43" y="346"/>
      <point x="43" y="209" type="curve" smooth="yes"/>
      <point x="43" y="74"/>
      <point x="136" y="-10"/>
    </contour>
    <contour>
      <point x="281" y="70" type="curve" smooth="yes"/>
      <point x="208" y="70"/>
      <point x="146" y="130"/>
      <point x="146" y="209" type="curve" smooth="yes"/>
      <point x="146" y="288"/>
      <point x="208" y="350"/>
      <point x="281" y="350" type="curve" smooth="yes"/>
      <point x="351" y="350"/>
      <point x="401" y="309"/>
      <point x="417" y="248" type="curve"/>
      <point x="417" y="172" type="line"/>
      <point x="405" y="112"/>
      <point x="350" y="70"/>
    </contour>
  </outline>
</glyph>
<glyph name="r" format="2">
  <advance width="381"/>
  <unicode hex="0072"/>
  <anchor x="137" y="0" name="bottom"/>
  <anchor x="183" y="418" name="top"/>
  <outline>
    <contour>
      <point x="169" y="418" type="line"/>
      <point x="79" y="418" type="line"/>
      <point x="79" y="0" type="line"/>
      <point x="180" y="0" type="line"/>
      <point x="180" y="186" type="line" smooth="yes"/>
      <point x="180" y="265"/>
      <point x="244" y="341"/>
      <point x="338" y="335" type="curve"/>
      <point x="343" y="435" type="line"/>
      <point x="296" y="435"/>
      <point x="208" y="389"/>
      <point x="175" y="314" type="curve"/>
      <point x="179" y="298" type="line"/>
    </contour>
  </outline>
</glyph>
<glyph name="s" format="2">
  <advance width="414"/>
  <unicode hex="0073"/>
  <anchor x="204" y="-7" name="bottom"/>
  <anchor x="208" y="425" name="top"/>
  <outline>
    <contour>
      <point x="200" y="-9" type="curve" smooth="yes"/>
      <point x="311" y="-9"/>
      <point x="365" y="56"/>
      <point x="365" y="132" type="curve" smooth="yes"/>
      <point x="365" y="198"/>
      <point x="319" y="229"/>
      <point x="258" y="249" type="curve" smooth="yes"/>
      <point x="212" y="265"/>
      <point x="161" y="275"/>
      <point x="162" y="318" type="curve" smooth="yes"/>
      <point x="162" y="346"/>
      <point x="193" y="364"/>
      <point x="229" y="364" type="curve" smooth="yes"/>
      <point x="256" y="363"/>
      <point x="292" y="350"/>
      <point x="316" y="326" type="curve"/>
      <point x="355" y="387" type="line"/>
      <point x="315" y="420"/>
      <point x="270" y="433"/>
      <point x="211" y="433" type="curve" smooth="yes"/>
      <point x="110" y="433"/>
      <point x="60" y="369"/>
      <point x="60" y="304" type="curve" smooth="yes"/>
      <point x="60" y="246"/>
      <point x="97" y="204"/>
      <point x="167" y="181" type="curve" smooth="yes"/>
      <point x="216" y="166"/>
      <point x="265" y="155"/>
      <point x="265" y="112" type="curve" smooth="yes"/>
      <point x="265" y="76"/>
      <point x="231" y="62"/>
      <point x="192" y="62" type="curve" smooth="yes"/>
      <point x="158" y="62"/>
      <point x="119" y="79"/>
      <point x="84" y="113" type="curve"/>
      <point x="41" y="55" type="line"/>
      <point x="79" y="13"/>
      <point x="139" y="-9"/>
    </contour>
  </outline>
</glyph>
<glyph name="t" format="2">
  <advance width="365"/>
  <unicode hex="0074"/>
  <anchor x="165" y="0" name="bottom"/>
  <anchor x="176" y="195" name="center"/>
  <anchor x="176" y="418" name="top"/>
  <anchor x="343" y="418" name="topright"/>
  <outline>
    <contour>
      <point x="119" y="601" type="line"/>
      <point x="119" y="417" type="line"/>
      <point x="45" y="417" type="line"/>
      <point x="45" y="338" type="line"/>
      <point x="119" y="338" type="line"/>
      <point x="119" y="0" type="line"/>
      <point x="221" y="0" type="line"/>
      <point x="221" y="338" type="line"/>
      <point x="333" y="338" type="line"/>
      <point x="333" y="417" type="line"/>
      <point x="221" y="417" type="line"/>
      <point x="221" y="601" type="line"/>
    </contour>
  </outline>
</glyph>
<glyph name="u" format="2">
  <advance width="509"/>
  <unicode hex="0075"/>
  <outline>
    <contour>
      <point x="449" y="-9" type="line"/>
      <point x="377" y="-9" type="line"/>
      <point x="367" y="107" type="line"/>
      <point x="337" y="39"/>
      <point x="282" y="-10"/>
      <point x="197" y="-10" type="curve" smooth="yes"/>
      <point x="112" y="-10"/>
      <point x="58" y="41"/>
      <point x="56" y="115" type="curve" smooth="yes"/>
      <point x="56" y="418" type="line"/>
      <point x="141" y="418" type="line"/>
      <point x="141" y="153" type="line" smooth="yes"/>
      <point x="143" y="112"/>
      <point x="170" y="79"/>
      <point x="227" y="75" type="curve"/>
      <point x="306" y="75"/>
      <point x="363" y="133"/>
      <point x="363" y="212" type="curve" smooth="yes"/>
      <point x="363" y="418" type="line"/>
      <point x="449" y="418" type="line"/>
    </contour>
  </outline>
</glyph>
<glyph name="v" format="2">
  <advance width="445"/>
  <unicode hex="0076"/>
  <outline>
    <contour>
      <point x="223" y="-25" type="curve"/>
      <point x="145" y="123"/>
      <point x="79" y="270"/>
      <point x="4" y="418" type="curve"/>
      <point x="97" y="418" type="line"/>
      <point x="193" y="230"/>
      <point x="204" y="192"/>
      <point x="223" y="135" type="curve"/>
      <point x="244" y="192"/>
      <point x="254" y="230"/>
      <point x="350" y="418" type="curve"/>
      <point x="443" y="418" type="line"/>
      <point x="367" y="270"/>
      <point x="299" y="123"/>
    </contour>
  </outline>
</glyph>
<glyph name="w" format="1">
  <advance width="654"/>
  <unicode hex="0077"/>
  <outline>
    <contour>
      <point x="288" y="351" type="qcurve"/>
      <point x="257" y="418" type="line"/>
      <point x="331" y="418" type="line"/>
      <point x="360" y="355"/>
      <point x="400" y="264"/>
      <point x="428" y="197"/>
      <point x="446" y="151"/>
      <point x="452" y="135" type="qcurve"/>
      <point x="458" y="165"/>
      <point x="475" y="214"/>
      <point x="501" y="275"/>
      <point x="538" y="356"/>
      <point x="564" y="418" type="qcurve"/>
      <point x="650" y="418" type="line"/>
      <point x="452" y="-25" type="line"/>
      <point x="434" y="12"/>
      <point x="403" y="85"/>
      <point x="374" y="157"/>
      <point x="343" y="229"/>
      <point x="325" y="267" type="qcurve"/>
      <point x="198" y="-25" type="line"/>
      <point x="9" y="418" type="line"/>
      <point x="95" y="418" type="line"/>
      <point x="121" y="356"/>
      <point x="155" y="274"/>
      <point x="178" y="214"/>
      <point x="192" y="165"/>
      <point x="198" y="135" type="qcurve"/>
      <point x="202" y="147"/>
      <point x="213" y="177"/>
      <point x="232" y="224"/>
      <point x="264" y="296"/>
    </contour>
  </outline>
</glyph>
<glyph name="x" format="2">
  <advance width="434"/>
  <unicode hex="0078"/>
  <outline>
    <contour>
      <point x="164" y="221" type="curve"/>
      <point x="118" y="287"/>
      <point x="65" y="353"/>
      <point x="20" y="418" type="curve"/>
      <point x="125" y="418" type="line"/>
      <point x="158" y="366"/>
      <point x="185" y="336"/>
      <point x="219" y="286" type="curve"/>
      <point x="252" y="336"/>
      <point x="280" y="367"/>
      <point x="314" y="418" type="curve"/>
      <point x="409" y="418" type="line"/>
      <point x="360" y="343"/>
      <point x="321" y="297"/>
      <point x="269" y="217" type="curve"/>
      <point x="316" y="152"/>
      <point x="382" y="65"/>
      <point x="427" y="0" type="curve"/>
      <point x="318" y="0" type="line"/>
      <point x="281" y="52"/>
      <point x="245" y="92"/>
      <point x="208" y="143" type="curve"/>
      <point x="174" y="92"/>
      <point x="141" y="52"/>
      <point x="106" y="0" type="curve"/>
      <point x="11" y="0" type="line"/>
      <point x="61" y="75"/>
      <point x="115" y="148"/>
    </contour>
  </outline>
</glyph>
<glyph name="y" format="2">
  <advance width="479"/>
  <unicode hex="0079"/>
  <outline>
    <contour>
      <point x="175" y="-201" type="line"/>
      <point x="89" y="-201" type="line"/>
      <point x="127" y="-124"/>
      <point x="153" y="-62"/>
      <point x="195" y="29" type="curve"/>
      <point x="134" y="149"/>
      <point x="67" y="297"/>
      <point x="6" y="418" type="curve"/>
      <point x="99" y="418" type="line"/>
      <point x="195" y="230"/>
      <point x="220" y="164"/>
      <point x="239" y="107" type="curve"/>
      <point x="260" y="164"/>
      <point x="284" y="230"/>
      <point x="380" y="418" type="curve"/>
      <point x="473" y="418" type="line"/>
    </contour>
  </outline>
</glyph>
<glyph name="z" format="2">
  <advance width="472"/>
  <unicode hex="007A"/>
  <anchor x="232" y="0" name="bottom"/>
  <anchor x="239" y="418" name="top"/>
  <outline>
    <contour>
      <point x="123" y="335" type="curve" smooth="yes"/>
      <point x="295" y="335" type="line"/>
      <point x="279" y="364" type="line"/>
      <point x="27" y="0" type="line"/>
      <point x="419" y="0" type="line"/>
      <point x="419" y="83" type="line"/>
      <point x="156" y="83" type="line"/>
      <point x="176" y="62" type="line"/>
      <point x="423" y="418" type="line"/>
      <point x="156" y="418" type="line" smooth="yes"/>
      <point x="132" y="418"/>
      <point x="122" y="421"/>
      <point x="122" y="444" type="curve" smooth="yes"/>
      <point x="122" y="458" type="line"/>
      <point x="45" y="458" type="line"/>
      <point x="45" y="415" type="line" smooth="yes"/>
      <point x="45" y="363"/>
      <point x="80" y="335"/>
    </contour>
  </outline>
</glyph>
<glyph name="braceleft" format="1">
  <advance width="327"/>
  <unicode hex="007B"/>
  <outline>
    <contour>
      <point x="27" y="256" type="qcurve"/>
      <point x="27" y="345" type="line"/>
      <point x="51" y="346"/>
      <point x="82" y="373"/>
      <point x="100" y="414"/>
      <point x="107" y="461"/>
      <point x="107" y="482" type="qcurve"/>
      <point x="107" y="637" type="line"/>
      <point x="107" y="684"/>
      <point x="127" y="733"/>
      <point x="160" y="754"/>
      <point x="205" y="756"/>
      <point x="230" y="756" type="qcurve"/>
      <point x="297" y="756" type="line"/>
      <point x="297" y="667" type="line"/>
      <point x="254" y="667" type="line"/>
      <point x="238" y="667"/>
      <point x="217" y="660"/>
      <point x="205" y="637"/>
      <point x="200" y="597"/>
      <point x="200" y="564" type="qcurve"/>
      <point x="200" y="435" type="line"/>
      <point x="200" y="406"/>
      <point x="187" y="362"/>
      <point x="167" y="330"/>
      <point x="144" y="308"/>
      <point x="135" y="302" type="qcurve"/>
      <point x="144" y="296"/>
      <point x="167" y="274"/>
      <point x="187" y="242"/>
      <point x="200" y="198"/>
      <point x="200" y="170" type="qcurve"/>
      <point x="200" y="42" type="line"/>
      <point x="200" y="9"/>
      <point x="205" y="-32"/>
      <point x="217" y="-54"/>
      <point x="238" y="-62"/>
      <point x="254" y="-62" type="qcurve"/>
      <point x="297" y="-62" type="line"/>
      <point x="297" y="-152" type="line"/>
      <point x="230" y="-152" type="line"/>
      <point x="206" y="-152"/>
      <point x="162" y="-150"/>
      <point x="127" y="-129"/>
      <point x="107" y="-81"/>
      <point x="107" y="-35" type="qcurve"/>
      <point x="107" y="119" type="line"/>
      <point x="107" y="140"/>
      <point x="100" y="187"/>
      <point x="82" y="227"/>
      <point x="51" y="255"/>
    </contour>
  </outline>
</glyph>
<glyph name="bar" format="2">
  <advance width="279"/>
  <unicode hex="007C"/>
  <outline>
    <contour>
      <point x="91" y="710" type="line"/>
      <point x="91" y="-235" type="line"/>
      <point x="183" y="-235" type="line"/>
      <point x="183" y="710" type="line"/>
    </contour>
  </outline>
</glyph>
<glyph name="braceright" format="2">
  <advance width="328"/>
  <unicode hex="007D"/>
  <outline>
    <contour>
      <point x="301" y="345" type="curve"/>
      <point x="301" y="256" type="line"/>
      <point x="238" y="254"/>
      <point x="221" y="179"/>
      <point x="221" y="123" type="curve" smooth="yes"/>
      <point x="221" y="-31" type="line" smooth="yes"/>
      <point x="221" y="-157"/>
      <point x="165" y="-152"/>
      <point x="98" y="-152" type="curve" smooth="yes"/>
      <point x="31" y="-152" type="line"/>
      <point x="31" y="-62" type="line"/>
      <point x="74" y="-62" type="line" smooth="yes"/>
      <point x="116" y="-62"/>
      <point x="127" y="-46"/>
      <point x="127" y="42" type="curve" smooth="yes"/>
      <point x="127" y="166" type="line" smooth="yes"/>
      <point x="127" y="247"/>
      <point x="168" y="286"/>
      <point x="193" y="302" type="curve"/>
      <point x="168" y="319"/>
      <point x="127" y="357"/>
      <point x="127" y="435" type="curve" smooth="yes"/>
      <point x="127" y="564" type="line" smooth="yes"/>
      <point x="127" y="652"/>
      <point x="116" y="667"/>
      <point x="74" y="667" type="curve" smooth="yes"/>
      <point x="31" y="667" type="line"/>
      <point x="31" y="756" type="line"/>
      <point x="98" y="756" type="line" smooth="yes"/>
      <point x="163" y="756"/>
      <point x="221" y="764"/>
      <point x="221" y="637" type="curve" smooth="yes"/>
      <point x="221" y="478" type="line" smooth="yes"/>
      <point x="221" y="422"/>
      <point x="238" y="346"/>
    </contour>
  </outline>
</glyph>
<glyph name="asciitilde" format="1">
  <advance width="468"/>
  <unicode hex="007E"/>
  <outline>
    <contour>
      <point x="226" y="486" type="qcurve"/>
      <point x="210" y="501"/>
      <point x="188" y="512"/>
      <point x="174" y="512" type="qcurve"/>
      <point x="160" y="512"/>
      <point x="124" y="494"/>
      <point x="121" y="466" type="qcurve"/>
      <point x="72" y="469" type="line"/>
      <point x="73" y="490"/>
      <point x="91" y="524"/>
      <point x="118" y="548"/>
      <point x="150" y="561"/>
      <point x="166" y="561" type="qcurve"/>
      <point x="190" y="561"/>
      <point x="228" y="543"/>
      <point x="244" y="527" type="qcurve"/>
      <point x="260" y="512"/>
      <point x="283" y="502"/>
      <point x="297" y="502" type="qcurve"/>
      <point x="304" y="502"/>
      <point x="321" y="506"/>
      <point x="336" y="516"/>
      <point x="348" y="534"/>
      <point x="350" y="548" type="qcurve"/>
      <point x="398" y="545" type="line"/>
      <point x="397" y="524"/>
      <point x="379" y="491"/>
      <point x="352" y="467"/>
      <point x="320" y="454"/>
      <point x="305" y="454" type="qcurve"/>
      <point x="282" y="454"/>
      <point x="243" y="471"/>
    </contour>
  </outline>
</glyph>
<glyph name="exclamdown" format="2">
  <advance width="264"/>
  <unicode hex="00A1"/>
  <outline>
    <contour>
      <point x="86" y="-212" type="line"/>
      <point x="178" y="-212" type="line"/>
      <point x="178" y="380" type="line"/>
      <point x="86" y="380" type="line"/>
    </contour>
    <contour>
      <point x="132" y="552" type="qcurve" smooth="yes"/>
      <point x="111" y="552"/>
      <point x="76" y="520"/>
      <point x="76" y="495" type="qcurve" smooth="yes"/>
      <point x="76" y="470"/>
      <point x="111" y="438"/>
      <point x="132" y="438" type="qcurve" smooth="yes"/>
      <point x="153" y="438"/>
      <point x="187" y="470"/>
      <point x="187" y="495" type="qcurve" smooth="yes"/>
      <point x="187" y="520"/>
      <point x="153" y="552"/>
    </contour>
  </outline>
</glyph>
<glyph name="cent" format="2">
  <advance width="433"/>
  <unicode hex="00A2"/>
  <outline>
    <contour>
      <point x="343" y="103" type="curve"/>
      <point x="362" y="81"/>
      <point x="378" y="60"/>
      <point x="395" y="38" type="curve"/>
      <point x="360" y="11"/>
      <point x="316" y="-8"/>
      <point x="266" y="-10" type="curve"/>
      <point x="266" y="-68" type="line"/>
      <point x="203" y="-68" type="line"/>
      <point x="203" y="-3" type="line"/>
      <point x="106" y="20"/>
      <point x="34" y="107"/>
      <point x="34" y="210" type="curve" smooth="yes"/>
      <point x="34" y="312"/>
      <point x="106" y="399"/>
      <point x="203" y="422" type="curve"/>
      <point x="203" y="486" type="line"/>
      <point x="266" y="486" type="line"/>
      <point x="266" y="429" type="line"/>
      <point x="317" y="427"/>
      <point x="362" y="408"/>
      <point x="398" y="381" type="curve"/>
      <point x="343" y="316" type="line"/>
      <point x="323" y="332"/>
      <point x="296" y="343"/>
      <point x="266" y="345" type="curve"/>
      <point x="266" y="74" type="line"/>
      <point x="297" y="76"/>
      <point x="323" y="86"/>
    </contour>
    <contour>
      <point x="119" y="210" type="curve" smooth="yes"/>
      <point x="119" y="152"/>
      <point x="152" y="103"/>
      <point x="203" y="83" type="curve"/>
      <point x="203" y="335" type="line"/>
      <point x="152" y="316"/>
      <point x="119" y="268"/>
    </contour>
  </outline>
</glyph>
<glyph name="sterling" format="2">
  <advance width="612"/>
  <unicode hex="00A3"/>
  <outline>
    <contour>
      <point x="208" y="89" type="curve"/>
      <point x="375" y="89" type="line" smooth="yes"/>
      <point x="463" y="89"/>
      <point x="478" y="101"/>
      <point x="478" y="142" type="curve" smooth="yes"/>
      <point x="478" y="185" type="line"/>
      <point x="509" y="185"/>
      <point x="540" y="186"/>
      <point x="571" y="186" type="curve"/>
      <point x="571" y="86" type="line" smooth="yes"/>
      <point x="571" y="36"/>
      <point x="551" y="0"/>
      <point x="451" y="0" type="curve" smooth="yes"/>
      <point x="39" y="0" type="line"/>
      <point x="39" y="89" type="line"/>
      <point x="84" y="89" type="line" smooth="yes"/>
      <point x="126" y="89"/>
      <point x="137" y="102"/>
      <point x="137" y="185" type="curve" smooth="yes"/>
      <point x="137" y="272" type="line"/>
      <point x="71" y="272" type="line"/>
      <point x="71" y="362" type="line"/>
      <point x="137" y="362" type="line"/>
      <point x="137" y="542" type="line" smooth="yes"/>
      <point x="137" y="637"/>
      <point x="223" y="706"/>
      <point x="351" y="706" type="curve" smooth="yes"/>
      <point x="447" y="706"/>
      <point x="505" y="667"/>
      <point x="538" y="603" type="curve"/>
      <point x="515" y="590"/>
      <point x="492" y="576"/>
      <point x="468" y="563" type="curve"/>
      <point x="455" y="574"/>
      <point x="441" y="616"/>
      <point x="353" y="616" type="curve" smooth="yes"/>
      <point x="274" y="616"/>
      <point x="229" y="581"/>
      <point x="229" y="517" type="curve" smooth="yes"/>
      <point x="229" y="362" type="line"/>
      <point x="347" y="362" type="line"/>
      <point x="347" y="272" type="line"/>
      <point x="229" y="272" type="line"/>
      <point x="229" y="166" type="line" smooth="yes"/>
      <point x="229" y="131"/>
      <point x="229" y="107"/>
    </contour>
  </outline>
</glyph>
<glyph name="currency" format="1">
  <advance width="469"/>
  <unicode hex="00A4"/>
  <outline>
    <contour>
      <point x="82" y="361" type="qcurve"/>
      <point x="82" y="384"/>
      <point x="96" y="424"/>
      <point x="107" y="442" type="qcurve"/>
      <point x="99" y="449"/>
      <point x="87" y="462"/>
      <point x="79" y="470" type="qcurve"/>
      <point x="123" y="514" type="line"/>
      <point x="152" y="486" type="line"/>
      <point x="170" y="497"/>
      <point x="211" y="511"/>
      <point x="234" y="511" type="qcurve"/>
      <point x="279" y="511"/>
      <point x="317" y="486" type="qcurve"/>
      <point x="345" y="514" type="line"/>
      <point x="389" y="470" type="line"/>
      <point x="363" y="443" type="line"/>
      <point x="374" y="425"/>
      <point x="388" y="383"/>
      <point x="388" y="361" type="qcurve"/>
      <point x="388" y="315"/>
      <point x="361" y="277" type="qcurve"/>
      <point x="390" y="248" type="line"/>
      <point x="346" y="204" type="line"/>
      <point x="315" y="234" type="line"/>
      <point x="280" y="210"/>
      <point x="234" y="210" type="qcurve"/>
      <point x="188" y="210"/>
      <point x="153" y="233" type="qcurve"/>
      <point x="123" y="203" type="line"/>
      <point x="79" y="247" type="line"/>
      <point x="108" y="276" type="line"/>
      <point x="96" y="294"/>
      <point x="82" y="337"/>
    </contour>
    <contour>
      <point x="145" y="360" type="qcurve"/>
      <point x="145" y="323"/>
      <point x="198" y="271"/>
      <point x="235" y="271" type="qcurve"/>
      <point x="272" y="271"/>
      <point x="325" y="323"/>
      <point x="325" y="360" type="qcurve"/>
      <point x="325" y="398"/>
      <point x="272" y="451"/>
      <point x="235" y="451" type="qcurve"/>
      <point x="198" y="451"/>
      <point x="145" y="398"/>
    </contour>
  </outline>
</glyph>
<glyph name="yen" format="2">
  <advance width="696"/>
  <unicode hex="00A5"/>
  <anchor x="346" y="0" name="bottom"/>
  <anchor x="360" y="725" name="top"/>
  <anchor x="14" y="725" name="topleft"/>
  <outline>
    <contour>
      <point x="166" y="303" type="line"/>
      <point x="166" y="221" type="line"/>
      <point x="538" y="221" type="line"/>
      <point x="538" y="303" type="line"/>
    </contour>
    <contour>
      <point x="167" y="158" type="line"/>
      <point x="167" y="75" type="line"/>
      <point x="537" y="75" type="line"/>
      <point x="537" y="158" type="line"/>
    </contour>
    <contour>
      <point x="294" y="304" type="line"/>
      <point x="294" y="0" type="line"/>
      <point x="399" y="0" type="line"/>
      <point x="399" y="304" type="line"/>
      <point x="670" y="725" type="line"/>
      <point x="542" y="725" type="line"/>
      <point x="333" y="391" type="line"/>
      <point x="366" y="394" type="line"/>
      <point x="155" y="725" type="line"/>
      <point x="26" y="725" type="line"/>
    </contour>
  </outline>
</glyph>
<glyph name="brokenbar" format="2">
  <advance width="218"/>
  <unicode hex="00A6"/>
  <outline>
    <contour>
      <point x="67" y="710" type="line"/>
      <point x="67" y="355" type="line"/>
      <point x="158" y="355" type="line"/>
      <point x="158" y="710" type="line"/>
    </contour>
    <contour>
      <point x="67" y="119" type="line"/>
      <point x="67" y="-236" type="line"/>
      <point x="158" y="-236" type="line"/>
      <point x="158" y="119" type="line"/>
    </contour>
  </outline>
</glyph>
<glyph name="section" format="2">
  <advance width="573"/>
  <unicode hex="00A7"/>
  <outline>
    <contour>
      <point x="373" y="137" type="line"/>
      <point x="469" y="157"/>
      <point x="523" y="225"/>
      <point x="523" y="302" type="curve" smooth="yes"/>
      <point x="523" y="415"/>
      <point x="423" y="449"/>
      <point x="336" y="472" type="curve" smooth="yes"/>
      <point x="261" y="491"/>
      <point x="199" y="512"/>
      <point x="199" y="567" type="curve" smooth="yes"/>
      <point x="199" y="606"/>
      <point x="235" y="642"/>
      <point x="311" y="642" type="curve" smooth="yes"/>
      <point x="356" y="640"/>
      <point x="402" y="626"/>
      <point x="450" y="590" type="curve"/>
      <point x="496" y="667" type="line"/>
      <point x="445" y="706"/>
      <point x="376" y="732"/>
      <point x="300" y="732" type="curve" smooth="yes"/>
      <point x="154" y="732"/>
      <point x="90" y="640"/>
      <point x="90" y="554" type="curve" smooth="yes"/>
      <point x="90" y="480"/>
      <point x="133" y="421"/>
      <point x="237" y="389" type="curve"/>
      <point x="245" y="425" type="line"/>
      <point x="158" y="429"/>
      <point x="67" y="379"/>
      <point x="67" y="273" type="curve" smooth="yes"/>
      <point x="67" y="167"/>
      <point x="171" y="126"/>
      <point x="258" y="104" type="curve"/>
      <point x="326" y="87"/>
      <point x="390" y="67"/>
      <point x="390" y="10" type="curve" smooth="yes"/>
      <point x="390" y="-47"/>
      <point x="335" y="-80"/>
      <point x="271" y="-80" type="curve" smooth="yes"/>
      <point x="215" y="-80"/>
      <point x="159" y="-56"/>
      <point x="102" y="-13" type="curve"/>
      <point x="50" y="-99" type="line"/>
      <point x="106" y="-145"/>
      <point x="190" y="-174"/>
      <point x="277" y="-174" type="curve" smooth="yes"/>
      <point x="406" y="-174"/>
      <point x="499" y="-85"/>
      <point x="499" y="24" type="curve" smooth="yes"/>
      <point x="499" y="119"/>
      <point x="425" y="168"/>
      <point x="334" y="175" type="curve"/>
    </contour>
    <contour>
      <point x="420" y="283" type="curve" smooth="yes"/>
      <point x="419" y="228"/>
      <point x="355" y="195"/>
      <point x="302" y="192" type="curve"/>
      <point x="229" y="211"/>
      <point x="168" y="238"/>
      <point x="170" y="298" type="curve" smooth="yes"/>
      <point x="171" y="344"/>
      <point x="220" y="380"/>
      <point x="293" y="377" type="curve"/>
      <point x="353" y="367"/>
      <point x="422" y="336"/>
    </contour>
  </outline>
</glyph>
<glyph name="dieresis" format="2">
  <advance width="376"/>
  <unicode hex="00A8"/>
  <outline>
    <contour>
      <point x="236" y="529" type="curve" smooth="yes"/>
      <point x="236" y="562"/>
      <point x="264" y="586"/>
      <point x="292" y="586" type="curve" smooth="yes"/>
      <point x="319" y="586"/>
      <point x="347" y="562"/>
      <point x="347" y="529" type="curve" smooth="yes"/>
      <point x="347" y="496"/>
      <point x="319" y="473"/>
      <point x="292" y="473" type="curve" smooth="yes"/>
      <point x="264" y="473"/>
      <point x="236" y="496"/>
    </contour>
    <contour>
      <point x="46" y="529" type="curve" smooth="yes"/>
      <point x="46" y="562"/>
      <point x="74" y="586"/>
      <point x="103" y="586" type="curve" smooth="yes"/>
      <point x="129" y="586"/>
      <point x="158" y="562"/>
      <point x="158" y="529" type="curve" smooth="yes"/>
      <point x="158" y="496"/>
      <point x="129" y="473"/>
      <point x="103" y="473" type="curve" smooth="yes"/>
      <point x="74" y="473"/>
      <point x="46" y="496"/>
    </contour>
  </outline>
</glyph>
<glyph name="copyright" format="1">
  <advance width="630"/>
  <unicode hex="00A9"/>
  <outline>
    <contour>
      <point x="315" y="143" type="qcurve"/>
      <point x="363" y="143"/>
      <point x="446" y="178"/>
      <point x="508" y="239"/>
      <point x="543" y="323"/>
      <point x="543" y="372" type="qcurve"/>
      <point x="543" y="422"/>
      <point x="508" y="506"/>
      <point x="446" y="568"/>
      <point x="363" y="602"/>
      <point x="315" y="602" type="qcurve"/>
      <point x="267" y="602"/>
      <point x="184" y="568"/>
      <point x="122" y="506"/>
      <point x="87" y="422"/>
      <point x="87" y="372" type="qcurve"/>
      <point x="87" y="323"/>
      <point x="122" y="239"/>
      <point x="184" y="178"/>
      <point x="267" y="143"/>
    </contour>
    <contour>
      <point x="315" y="113" type="qcurve"/>
      <point x="261" y="113"/>
      <point x="166" y="152"/>
      <point x="95" y="222"/>
      <point x="54" y="316"/>
      <point x="54" y="372" type="qcurve"/>
      <point x="54" y="428"/>
      <point x="95" y="524"/>
      <point x="166" y="593"/>
      <point x="261" y="632"/>
      <point x="315" y="632" type="qcurve"/>
      <point x="369" y="632"/>
      <point x="464" y="593"/>
      <point x="535" y="524"/>
      <point x="576" y="428"/>
      <point x="576" y="372" type="qcurve"/>
      <point x="576" y="316"/>
      <point x="535" y="222"/>
      <point x="464" y="152"/>
      <point x="369" y="113"/>
    </contour>
    <contour>
      <point x="420" y="235" type="line"/>
      <point x="409" y="227"/>
      <point x="356" y="207"/>
      <point x="319" y="207" type="qcurve"/>
      <point x="280" y="207"/>
      <point x="219" y="234"/>
      <point x="177" y="279"/>
      <point x="154" y="339"/>
      <point x="154" y="373" type="qcurve"/>
      <point x="154" y="410"/>
      <point x="181" y="472"/>
      <point x="227" y="517"/>
      <point x="289" y="543"/>
      <point x="324" y="543" type="qcurve"/>
      <point x="350" y="543"/>
      <point x="401" y="529"/>
      <point x="412" y="520" type="qcurve"/>
      <point x="408" y="514"/>
      <point x="404" y="507"/>
      <point x="399" y="499"/>
      <point x="394" y="489"/>
      <point x="389" y="481" type="qcurve"/>
      <point x="378" y="489"/>
      <point x="340" y="496"/>
      <point x="326" y="496" type="qcurve"/>
      <point x="300" y="496"/>
      <point x="255" y="477"/>
      <point x="222" y="444"/>
      <point x="204" y="401"/>
      <point x="204" y="377" type="qcurve"/>
      <point x="204" y="354"/>
      <point x="221" y="311"/>
      <point x="253" y="278"/>
      <point x="296" y="258"/>
      <point x="323" y="258" type="qcurve"/>
      <point x="351" y="258"/>
      <point x="396" y="275"/>
      <point x="399" y="279" type="qcurve"/>
    </contour>
  </outline>
</glyph>
<glyph name="ordfeminine" format="1">
  <advance width="430"/>
  <unicode hex="00AA"/>
  <outline>
    <contour>
      <point x="41" y="454" type="qcurve"/>
      <point x="41" y="487"/>
      <point x="66" y="546"/>
      <point x="109" y="589"/>
      <point x="167" y="615"/>
      <point x="199" y="615" type="qcurve"/>
      <point x="221" y="615"/>
      <point x="257" y="604"/>
      <point x="283" y="589"/>
      <point x="299" y="571"/>
      <point x="302" y="565" type="qcurve"/>
      <point x="302" y="576"/>
      <point x="304" y="597"/>
      <point x="304" y="607" type="qcurve"/>
      <point x="364" y="607" type="line"/>
      <point x="364" y="306" type="line"/>
      <point x="302" y="306" type="line"/>
      <point x="302" y="344" type="line"/>
      <point x="299" y="338"/>
      <point x="282" y="323"/>
      <point x="257" y="309"/>
      <point x="222" y="299"/>
      <point x="200" y="299" type="qcurve"/>
      <point x="165" y="299"/>
      <point x="107" y="324"/>
      <point x="65" y="367"/>
      <point x="41" y="423"/>
    </contour>
    <contour>
      <point x="103" y="457" type="qcurve"/>
      <point x="103" y="415"/>
      <point x="159" y="359"/>
      <point x="202" y="359" type="qcurve"/>
      <point x="246" y="359"/>
      <point x="302" y="416"/>
      <point x="302" y="457" type="qcurve"/>
      <point x="302" y="499"/>
      <point x="246" y="555"/>
      <point x="202" y="555" type="qcurve"/>
      <point x="159" y="555"/>
      <point x="103" y="499"/>
    </contour>
  </outline>
</glyph>
<glyph name="guillemetleft" format="2">
  <advance width="606"/>
  <unicode hex="00AB"/>
  <outline>
    <contour>
      <point x="46" y="242" type="curve"/>
      <point x="275" y="51" type="line"/>
      <point x="275" y="142" type="line"/>
      <point x="260" y="157"/>
      <point x="180" y="227"/>
      <point x="166" y="242" type="curve"/>
      <point x="180" y="257"/>
      <point x="260" y="327"/>
      <point x="275" y="341" type="curve"/>
      <point x="275" y="433" type="line"/>
      <point x="257" y="416"/>
      <point x="64" y="259"/>
    </contour>
    <contour>
      <point x="272" y="242" type="curve"/>
      <point x="501" y="51" type="line"/>
      <point x="501" y="142" type="line"/>
      <point x="486" y="157"/>
      <point x="406" y="227"/>
      <point x="392" y="242" type="curve"/>
      <point x="406" y="257"/>
      <point x="486" y="327"/>
      <point x="501" y="341" type="curve"/>
      <point x="501" y="433" type="line"/>
      <point x="483" y="416"/>
      <point x="290" y="259"/>
    </contour>
  </outline>
</glyph>
<glyph name="guillemotleft" format="1">
  <advance width="454"/>
  <unicode hex="00AB"/>
  <outline>
    <contour>
      <point x="387" y="50" type="line"/>
      <point x="213" y="242" type="line"/>
      <point x="217" y="246"/>
      <point x="244" y="276"/>
      <point x="280" y="315"/>
      <point x="321" y="361"/>
      <point x="356" y="400"/>
      <point x="383" y="430"/>
      <point x="387" y="434" type="qcurve"/>
      <point x="387" y="330" type="line"/>
      <point x="382" y="324"/>
      <point x="362" y="300"/>
      <point x="340" y="272"/>
      <point x="320" y="248"/>
      <point x="315" y="242" type="qcurve"/>
      <point x="320" y="237"/>
      <point x="340" y="212"/>
      <point x="362" y="185"/>
      <point x="382" y="160"/>
      <point x="387" y="155" type="qcurve"/>
    </contour>
    <contour>
      <point x="213" y="50" type="line"/>
      <point x="40" y="242" type="line"/>
      <point x="44" y="246"/>
      <point x="71" y="276"/>
      <point x="106" y="315"/>
      <point x="147" y="361"/>
      <point x="182" y="400"/>
      <point x="209" y="430"/>
      <point x="213" y="434" type="qcurve"/>
      <point x="213" y="329" type="line"/>
      <point x="208" y="324"/>
      <point x="188" y="299"/>
      <point x="167" y="272"/>
      <point x="147" y="248"/>
      <point x="142" y="242" type="qcurve"/>
      <point x="147" y="237"/>
      <point x="167" y="212"/>
      <point x="188" y="185"/>
      <point x="208" y="160"/>
      <point x="213" y="155" type="qcurve"/>
    </contour>
  </outline>
</glyph>
<glyph name="logicalnot" format="1">
  <advance width="489"/>
  <unicode hex="00AC"/>
  <outline>
    <contour>
      <point x="337" y="150" type="line"/>
      <point x="337" y="186" type="line"/>
      <point x="64" y="186" type="line"/>
      <point x="64" y="252" type="line"/>
      <point x="429" y="252" type="line"/>
      <point x="429" y="150" type="line"/>
    </contour>
  </outline>
</glyph>
<glyph name="registered" format="2">
  <advance width="630"/>
  <unicode hex="00AE"/>
  <outline>
    <contour>
      <point x="315" y="113" type="curve" smooth="yes"/>
      <point x="459" y="113"/>
      <point x="576" y="224"/>
      <point x="576" y="372" type="curve" smooth="yes"/>
      <point x="576" y="522"/>
      <point x="459" y="632"/>
      <point x="315" y="632" type="curve" smooth="yes"/>
      <point x="171" y="632"/>
      <point x="54" y="522"/>
      <point x="54" y="372" type="curve" smooth="yes"/>
      <point x="54" y="224"/>
      <point x="171" y="113"/>
    </contour>
    <contour>
      <point x="315" y="143" type="curve" smooth="yes"/>
      <point x="187" y="143"/>
      <point x="87" y="241"/>
      <point x="87" y="372" type="curve" smooth="yes"/>
      <point x="87" y="505"/>
      <point x="187" y="602"/>
      <point x="315" y="602" type="curve" smooth="yes"/>
      <point x="443" y="602"/>
      <point x="543" y="505"/>
      <point x="543" y="372" type="curve" smooth="yes"/>
      <point x="543" y="241"/>
      <point x="443" y="143"/>
    </contour>
    <contour>
      <point x="209" y="210" type="line"/>
      <point x="209" y="553" type="line"/>
      <point x="303" y="553" type="line" smooth="yes"/>
      <point x="374" y="553"/>
      <point x="425" y="514"/>
      <point x="425" y="445" type="curve" smooth="yes"/>
      <point x="425" y="407"/>
      <point x="410" y="368"/>
      <point x="373" y="347" type="curve"/>
      <point x="399" y="307"/>
      <point x="429" y="256"/>
      <point x="459" y="210" type="curve"/>
      <point x="397" y="210" type="line"/>
      <point x="372" y="249"/>
      <point x="343" y="298"/>
      <point x="319" y="332" type="curve"/>
      <point x="309" y="332" type="line"/>
      <point x="261" y="332" type="line"/>
      <point x="261" y="210" type="line"/>
    </contour>
    <contour>
      <point x="261" y="381" type="line"/>
      <point x="308" y="381" type="line" smooth="yes"/>
      <point x="359" y="381"/>
      <point x="373" y="420"/>
      <point x="373" y="444" type="curve" smooth="yes"/>
      <point x="373" y="468"/>
      <point x="358" y="505"/>
      <point x="308" y="505" type="curve" smooth="yes"/>
      <point x="261" y="505" type="line"/>
    </contour>
  </outline>
</glyph>
<glyph name="macron" format="2">
  <advance width="368"/>
  <unicode hex="00AF"/>
  <outline>
    <contour>
      <point x="61" y="540" type="line"/>
      <point x="61" y="469" type="line"/>
      <point x="308" y="469" type="line"/>
      <point x="308" y="540" type="line"/>
    </contour>
  </outline>
</glyph>
<glyph name="degree" format="2">
  <advance width="285"/>
  <unicode hex="00B0"/>
  <outline>
    <contour>
      <point x="34" y="568" type="curve" smooth="yes"/>
      <point x="34" y="568" type="line" smooth="yes"/>
      <point x="34" y="510"/>
      <point x="81" y="464"/>
      <point x="140" y="464" type="curve" smooth="yes"/>
      <point x="197" y="464"/>
      <point x="243" y="510"/>
      <point x="243" y="568" type="curve" smooth="yes"/>
      <point x="243" y="626"/>
      <point x="197" y="671"/>
      <point x="140" y="671" type="curve" smooth="yes"/>
      <point x="81" y="671"/>
      <point x="34" y="626"/>
    </contour>
    <contour>
      <point x="140" y="519" type="curve"/>
      <point x="140" y="519" type="line"/>
      <point x="113" y="519"/>
      <point x="92" y="540"/>
      <point x="92" y="567" type="curve" smooth="yes"/>
      <point x="92" y="593"/>
      <point x="113" y="615"/>
      <point x="140" y="615" type="curve" smooth="yes"/>
      <point x="167" y="615"/>
      <point x="188" y="593"/>
      <point x="188" y="567" type="curve" smooth="yes"/>
      <point x="188" y="540"/>
      <point x="167" y="519"/>
    </contour>
  </outline>
</glyph>
<glyph name="plusminus" format="2">
  <advance width="497"/>
  <unicode hex="00B1"/>
  <outline>
    <contour>
      <point x="202" y="214" type="line"/>
      <point x="202" y="351" type="line"/>
      <point x="66" y="351" type="line"/>
      <point x="66" y="440" type="line"/>
      <point x="202" y="440" type="line"/>
      <point x="202" y="579" type="line"/>
      <point x="295" y="579" type="line"/>
      <point x="295" y="440" type="line"/>
      <point x="431" y="440" type="line"/>
      <point x="431" y="351" type="line"/>
      <point x="295" y="351" type="line"/>
      <point x="295" y="214" type="line"/>
    </contour>
    <contour>
      <point x="431" y="83" type="line"/>
      <point x="66" y="83" type="line"/>
      <point x="66" y="173" type="line"/>
      <point x="431" y="173" type="line"/>
    </contour>
  </outline>
</glyph>
<glyph name="twosuperior" format="1">
  <advance width="338"/>
  <unicode hex="00B2"/>
  <outline>
    <contour>
      <point x="169" y="419" type="qcurve"/>
      <point x="285" y="419" type="line"/>
      <point x="285" y="375" type="line"/>
      <point x="61" y="375" type="line"/>
      <point x="92" y="406"/>
      <point x="149" y="464"/>
      <point x="194" y="519"/>
      <point x="221" y="570"/>
      <point x="221" y="594" type="qcurve"/>
      <point x="221" y="611"/>
      <point x="209" y="636"/>
      <point x="192" y="652"/>
      <point x="171" y="660"/>
      <point x="162" y="660" type="qcurve"/>
      <point x="144" y="660"/>
      <point x="120" y="647"/>
      <point x="107" y="629"/>
      <point x="101" y="609"/>
      <point x="101" y="602" type="qcurve"/>
      <point x="101" y="585"/>
      <point x="112" y="561"/>
      <point x="120" y="551" type="qcurve"/>
      <point x="114" y="543"/>
      <point x="101" y="530"/>
      <point x="94" y="523" type="qcurve"/>
      <point x="76" y="534"/>
      <point x="56" y="583"/>
      <point x="56" y="602" type="qcurve"/>
      <point x="56" y="622"/>
      <point x="70" y="659"/>
      <point x="97" y="687"/>
      <point x="136" y="704"/>
      <point x="162" y="704" type="qcurve"/>
      <point x="186" y="704"/>
      <point x="224" y="687"/>
      <point x="252" y="659"/>
      <point x="267" y="621"/>
      <point x="267" y="600" type="qcurve"/>
      <point x="267" y="551"/>
      <point x="208" y="463"/>
    </contour>
  </outline>
</glyph>
<glyph name="threesuperior" format="1">
  <advance width="293"/>
  <unicode hex="00B3"/>
  <outline>
    <contour>
      <point x="100" y="548" type="qcurve"/>
      <point x="120" y="580"/>
      <point x="166" y="642"/>
      <point x="186" y="674" type="qcurve"/>
      <point x="68" y="674" type="line"/>
      <point x="68" y="703" type="line"/>
      <point x="234" y="703" type="line"/>
      <point x="151" y="582" type="line"/>
      <point x="188" y="575"/>
      <point x="238" y="521"/>
      <point x="238" y="481" type="qcurve"/>
      <point x="238" y="459"/>
      <point x="221" y="421"/>
      <point x="192" y="392"/>
      <point x="154" y="376"/>
      <point x="132" y="376" type="qcurve"/>
      <point x="109" y="376"/>
      <point x="69" y="395"/>
      <point x="55" y="411" type="qcurve"/>
      <point x="76" y="431" type="line"/>
      <point x="97" y="404"/>
      <point x="131" y="404" type="qcurve"/>
      <point x="147" y="404"/>
      <point x="176" y="417"/>
      <point x="197" y="438"/>
      <point x="209" y="466"/>
      <point x="209" y="481" type="qcurve"/>
      <point x="209" y="513"/>
      <point x="163" y="558"/>
      <point x="131" y="558" type="qcurve"/>
      <point x="115" y="558"/>
    </contour>
  </outline>
</glyph>
<glyph name="acute" format="2">
  <advance width="284"/>
  <unicode hex="00B4"/>
  <outline>
    <contour>
      <point x="101" y="486" type="line"/>
      <point x="132" y="530"/>
      <point x="162" y="576"/>
      <point x="193" y="620" type="curve"/>
      <point x="285" y="620" type="line"/>
      <point x="166" y="486" type="line"/>
    </contour>
  </outline>
</glyph>
<glyph name="micro" format="2">
  <advance width="552"/>
  <unicode hex="00B5"/>
  <anchor x="276" y="0" name="bottom"/>
  <anchor x="553" y="10" name="ogonek"/>
  <anchor x="278" y="432" name="top"/>
  <anchor x="478" y="418" name="topright"/>
  <outline>
    <contour>
      <point x="213" y="-17" type="curve" smooth="yes"/>
      <point x="289" y="-17"/>
      <point x="351" y="24"/>
      <point x="377" y="82" type="curve"/>
      <point x="372" y="103" type="line"/>
      <point x="382" y="0" type="line"/>
      <point x="473" y="0" type="line"/>
      <point x="473" y="418" type="line"/>
      <point x="372" y="418" type="line"/>
      <point x="372" y="227" type="line" smooth="yes"/>
      <point x="372" y="136"/>
      <point x="321" y="69"/>
      <point x="253" y="69" type="curve"/>
      <point x="204" y="71"/>
      <point x="182" y="100"/>
      <point x="180" y="144" type="curve"/>
      <point x="180" y="418" type="line"/>
      <point x="79" y="418" type="line"/>
      <point x="79" y="110" type="line"/>
      <point x="79" y="-201" type="line"/>
      <point x="180" y="-201" type="line"/>
      <point x="180" y="88" type="line"/>
      <point x="84" y="99" type="line"/>
      <point x="90" y="32"/>
      <point x="140" y="-17"/>
    </contour>
  </outline>
</glyph>
<glyph name="mu" format="2">
  <advance width="557"/>
  <unicode hex="00B5"/>
  <outline>
    <contour>
      <point x="472" y="-9" type="line"/>
      <point x="400" y="-9" type="line"/>
      <point x="390" y="107" type="line"/>
      <point x="360" y="39"/>
      <point x="305" y="-10"/>
      <point x="220" y="-10" type="curve" smooth="yes"/>
      <point x="199" y="-10"/>
      <point x="180" y="-7"/>
      <point x="164" y="-1" type="curve"/>
      <point x="164" y="-201" type="line"/>
      <point x="80" y="-201" type="line"/>
      <point x="80" y="100" type="line"/>
      <point x="79" y="105"/>
      <point x="79" y="110"/>
      <point x="79" y="115" type="curve" smooth="yes"/>
      <point x="79" y="418" type="line"/>
      <point x="164" y="418" type="line"/>
      <point x="164" y="153" type="line" smooth="yes"/>
      <point x="166" y="112"/>
      <point x="193" y="79"/>
      <point x="250" y="75" type="curve"/>
      <point x="329" y="75"/>
      <point x="386" y="133"/>
      <point x="386" y="212" type="curve" smooth="yes"/>
      <point x="386" y="418" type="line"/>
      <point x="472" y="418" type="line"/>
    </contour>
  </outline>
</glyph>
<glyph name="paragraph" format="1">
  <advance width="565"/>
  <unicode hex="00B6"/>
  <outline>
    <contour>
      <point x="290" y="0" type="line"/>
      <point x="199" y="0" type="line"/>
      <point x="199" y="429" type="line"/>
      <point x="164" y="429"/>
      <point x="104" y="455"/>
      <point x="59" y="499"/>
      <point x="34" y="559"/>
      <point x="34" y="594" type="qcurve"/>
      <point x="34" y="629"/>
      <point x="59" y="689"/>
      <point x="104" y="734"/>
      <point x="164" y="760"/>
      <point x="199" y="760" type="qcurve"/>
      <point x="456" y="760" type="line"/>
      <point x="456" y="0" type="line"/>
      <point x="365" y="0" type="line"/>
      <point x="365" y="672" type="line"/>
      <point x="290" y="672" type="line"/>
    </contour>
  </outline>
</glyph>
<glyph name="periodcentered" format="2">
  <advance width="222"/>
  <unicode hex="00B7"/>
  <outline>
    <contour>
      <point x="55" y="286" type="curve" smooth="yes"/>
      <point x="55" y="318"/>
      <point x="83" y="343"/>
      <point x="112" y="343" type="curve" smooth="yes"/>
      <point x="138" y="343"/>
      <point x="167" y="318"/>
      <point x="167" y="286" type="curve" smooth="yes"/>
      <point x="167" y="252"/>
      <point x="138" y="230"/>
      <point x="112" y="230" type="curve" smooth="yes"/>
      <point x="83" y="230"/>
      <point x="55" y="252"/>
    </contour>
  </outline>
</glyph>
<glyph name="cedilla" format="2">
  <advance width="458"/>
  <unicode hex="00B8"/>
  <outline>
    <contour>
      <point x="185" y="0" type="line"/>
      <point x="241" y="0" type="line"/>
      <point x="241" y="-7" type="line" smooth="yes"/>
      <point x="241" y="-46"/>
      <point x="267" y="-49"/>
      <point x="284" y="-62" type="curve" smooth="yes"/>
      <point x="312" y="-83"/>
      <point x="322" y="-110"/>
      <point x="322" y="-146" type="curve" smooth="yes"/>
      <point x="322" y="-201"/>
      <point x="286" y="-257"/>
      <point x="213" y="-257" type="curve" smooth="yes"/>
      <point x="167" y="-257"/>
      <point x="123" y="-231"/>
      <point x="105" y="-178" type="curve"/>
      <point x="122" y="-170"/>
      <point x="139" y="-161"/>
      <point x="155" y="-152" type="curve"/>
      <point x="162" y="-173"/>
      <point x="180" y="-189"/>
      <point x="205" y="-189" type="curve" smooth="yes"/>
      <point x="237" y="-189"/>
      <point x="254" y="-165"/>
      <point x="254" y="-134" type="curve" smooth="yes"/>
      <point x="254" y="-81"/>
      <point x="185" y="-81"/>
      <point x="185" y="-36" type="curve" smooth="yes"/>
    </contour>
  </outline>
</glyph>
<glyph name="onesuperior" format="2">
  <advance width="272"/>
  <unicode hex="00B9"/>
  <outline>
    <contour>
      <point x="42" y="661" type="line"/>
      <point x="42" y="570" type="line"/>
      <point x="103" y="570" type="line"/>
      <point x="103" y="282" type="line"/>
      <point x="197" y="282" type="line"/>
      <point x="197" y="661" type="line"/>
    </contour>
  </outline>
</glyph>
<glyph name="ordmasculine" format="2">
  <advance width="401"/>
  <unicode hex="00BA"/>
  <outline>
    <contour>
      <point x="41" y="457" type="curve" smooth="yes"/>
      <point x="41" y="544"/>
      <point x="112" y="615"/>
      <point x="201" y="615" type="curve" smooth="yes"/>
      <point x="292" y="615"/>
      <point x="360" y="544"/>
      <point x="360" y="457" type="curve" smooth="yes"/>
      <point x="360" y="370"/>
      <point x="292" y="299"/>
      <point x="201" y="299" type="curve" smooth="yes"/>
      <point x="113" y="299"/>
      <point x="41" y="363"/>
    </contour>
    <contour>
      <point x="102" y="457" type="curve" smooth="yes"/>
      <point x="102" y="403"/>
      <point x="145" y="359"/>
      <point x="199" y="359" type="curve" smooth="yes"/>
      <point x="253" y="359"/>
      <point x="298" y="403"/>
      <point x="298" y="457" type="curve" smooth="yes"/>
      <point x="298" y="511"/>
      <point x="253" y="555"/>
      <point x="199" y="555" type="curve" smooth="yes"/>
      <point x="145" y="555"/>
      <point x="102" y="511"/>
    </contour>
  </outline>
</glyph>
<glyph name="guillemotright" format="2">
  <advance width="453"/>
  <unicode hex="00BB"/>
  <outline>
    <contour>
      <point x="67" y="50" type="line"/>
      <point x="241" y="242" type="line"/>
      <point x="223" y="259"/>
      <point x="84" y="417"/>
      <point x="67" y="434" type="curve"/>
      <point x="67" y="330" type="line"/>
      <point x="81" y="315"/>
      <point x="125" y="257"/>
      <point x="139" y="242" type="curve"/>
      <point x="125" y="228"/>
      <point x="81" y="169"/>
      <point x="67" y="155" type="curve"/>
    </contour>
    <contour>
      <point x="241" y="50" type="line"/>
      <point x="414" y="242" type="line"/>
      <point x="397" y="259"/>
      <point x="258" y="417"/>
      <point x="241" y="434" type="curve"/>
      <point x="241" y="329" type="line"/>
      <point x="255" y="315"/>
      <point x="298" y="257"/>
      <point x="312" y="242" type="curve"/>
      <point x="298" y="228"/>
      <point x="255" y="169"/>
      <point x="241" y="155" type="curve"/>
    </contour>
  </outline>
</glyph>
<glyph name="onequarter" format="1">
  <advance width="795"/>
  <unicode hex="00BC"/>
  <outline>
    <contour>
      <point x="403" y="130" type="line"/>
      <point x="472" y="220"/>
      <point x="617" y="404"/>
      <point x="686" y="494" type="qcurve"/>
      <point x="686" y="173" type="line"/>
      <point x="758" y="173" type="line"/>
      <point x="758" y="130" type="line"/>
      <point x="686" y="130" type="line"/>
      <point x="686" y="0" type="line"/>
      <point x="642" y="0" type="line"/>
      <point x="642" y="130" type="line"/>
    </contour>
    <contour>
      <point x="189" y="-19" type="line"/>
      <point x="469" y="741" type="line"/>
      <point x="528" y="741" type="line"/>
      <point x="457" y="550"/>
      <point x="319" y="173"/>
      <point x="248" y="-19" type="qcurve"/>
    </contour>
    <contour>
      <point x="41" y="658" type="line"/>
      <point x="41" y="699" type="line"/>
      <point x="144" y="699" type="line"/>
      <point x="144" y="234" type="line"/>
      <point x="101" y="234" type="line"/>
      <point x="101" y="658" type="line"/>
    </contour>
    <contour>
      <point x="642" y="375" type="line"/>
      <point x="487" y="173" type="line"/>
      <point x="642" y="173" type="line"/>
    </contour>
  </outline>
</glyph>
<glyph name="onehalf" format="1">
  <advance width="834"/>
  <unicode hex="00BD"/>
  <outline>
    <contour>
      <point x="592" y="40" type="qcurve"/>
      <point x="796" y="40" type="line"/>
      <point x="796" y="0" type="line"/>
      <point x="491" y="0" type="line"/>
      <point x="536" y="44"/>
      <point x="620" y="129"/>
      <point x="686" y="209"/>
      <point x="725" y="283"/>
      <point x="725" y="316" type="qcurve"/>
      <point x="725" y="347"/>
      <point x="706" y="390"/>
      <point x="677" y="417"/>
      <point x="643" y="429"/>
      <point x="628" y="429" type="qcurve"/>
      <point x="598" y="429"/>
      <point x="559" y="408"/>
      <point x="537" y="377"/>
      <point x="528" y="342"/>
      <point x="528" y="328" type="qcurve"/>
      <point x="528" y="304"/>
      <point x="543" y="265"/>
      <point x="557" y="251" type="qcurve"/>
      <point x="532" y="227" type="line"/>
      <point x="511" y="243"/>
      <point x="487" y="301"/>
      <point x="487" y="328" type="qcurve"/>
      <point x="487" y="357"/>
      <point x="505" y="408"/>
      <point x="541" y="447"/>
      <point x="594" y="469"/>
      <point x="628" y="469" type="qcurve"/>
      <point x="659" y="469"/>
      <point x="710" y="446"/>
      <point x="747" y="407"/>
      <point x="767" y="355"/>
      <point x="767" y="325" type="qcurve"/>
      <point x="767" y="287"/>
      <point x="736" y="214"/>
      <point x="686" y="144"/>
      <point x="623" y="74"/>
    </contour>
    <contour>
      <point x="197" y="-19" type="line"/>
      <point x="477" y="741" type="line"/>
      <point x="536" y="741" type="line"/>
      <point x="465" y="550"/>
      <point x="327" y="173"/>
      <point x="256" y="-19" type="qcurve"/>
    </contour>
    <contour>
      <point x="39" y="658" type="line"/>
      <point x="39" y="699" type="line"/>
      <point x="142" y="699" type="line"/>
      <point x="142" y="234" type="line"/>
      <point x="99" y="234" type="line"/>
      <point x="99" y="658" type="line"/>
    </contour>
  </outline>
</glyph>
<glyph name="threequarters" format="1">
  <advance width="986"/>
  <unicode hex="00BE"/>
  <outline>
    <contour>
      <point x="593" y="130" type="line"/>
      <point x="662" y="220"/>
      <point x="807" y="404"/>
      <point x="876" y="494" type="qcurve"/>
      <point x="876" y="173" type="line"/>
      <point x="949" y="173" type="line"/>
      <point x="949" y="130" type="line"/>
      <point x="876" y="130" type="line"/>
      <point x="876" y="0" type="line"/>
      <point x="832" y="0" type="line"/>
      <point x="832" y="130" type="line"/>
    </contour>
    <contour>
      <point x="356" y="-19" type="line"/>
      <point x="427" y="173"/>
      <point x="566" y="550"/>
      <point x="636" y="742" type="qcurve"/>
      <point x="695" y="742" type="line"/>
      <point x="624" y="550"/>
      <point x="486" y="173"/>
      <point x="415" y="-19" type="qcurve"/>
    </contour>
    <contour>
      <point x="115" y="469" type="qcurve"/>
      <point x="147" y="520"/>
      <point x="217" y="618"/>
      <point x="250" y="668" type="qcurve"/>
      <point x="65" y="668" type="line"/>
      <point x="65" y="712" type="line"/>
      <point x="324" y="712" type="line"/>
      <point x="292" y="664"/>
      <point x="226" y="571"/>
      <point x="194" y="523" type="qcurve"/>
      <point x="223" y="518"/>
      <point x="273" y="490"/>
      <point x="310" y="449"/>
      <point x="331" y="395"/>
      <point x="331" y="364" type="qcurve"/>
      <point x="331" y="330"/>
      <point x="304" y="271"/>
      <point x="259" y="226"/>
      <point x="199" y="200"/>
      <point x="165" y="200" type="qcurve"/>
      <point x="129" y="200"/>
      <point x="67" y="229"/>
      <point x="44" y="254" type="qcurve"/>
      <point x="77" y="286" type="line"/>
      <point x="93" y="266"/>
      <point x="137" y="244"/>
      <point x="164" y="244" type="qcurve"/>
      <point x="189" y="244"/>
      <point x="233" y="263"/>
      <point x="266" y="296"/>
      <point x="286" y="340"/>
      <point x="286" y="364" type="qcurve"/>
      <point x="286" y="389"/>
      <point x="266" y="434"/>
      <point x="233" y="466"/>
      <point x="189" y="485"/>
      <point x="164" y="485" type="qcurve"/>
      <point x="135" y="485"/>
    </contour>
    <contour>
      <point x="832" y="375" type="line"/>
      <point x="677" y="173" type="line"/>
      <point x="832" y="173" type="line"/>
    </contour>
  </outline>
</glyph>
<glyph name="Agrave" format="2">
  <advance width="647"/>
  <unicode hex="00C0"/>
  <outline>
    <contour>
      <point x="646" y="0" type="line"/>
      <point x="615" y="73"/>
      <point x="354" y="685"/>
      <point x="324" y="759" type="curve"/>
      <point x="1" y="0" type="line"/>
      <point x="109" y="0" type="line"/>
      <point x="195" y="208" type="line"/>
      <point x="451" y="208" type="line"/>
      <point x="489" y="115"/>
      <point x="525" y="30"/>
      <point x="538" y="0" type="curve"/>
    </contour>
    <contour>
      <point x="313" y="494" type="line"/>
      <point x="314" y="497"/>
      <point x="321" y="517"/>
      <point x="324" y="530" type="curve"/>
      <point x="327" y="517"/>
      <point x="333" y="497"/>
      <point x="334" y="494" type="curve"/>
      <point x="345" y="466"/>
      <point x="378" y="387"/>
      <point x="414" y="300" type="curve"/>
      <point x="233" y="300" type="line"/>
    </contour>
    <contour>
      <point x="282" y="901" type="line"/>
      <point x="313" y="857"/>
      <point x="343" y="811"/>
      <point x="373" y="767" type="curve"/>
      <point x="309" y="767" type="line"/>
      <point x="269" y="811"/>
      <point x="229" y="857"/>
      <point x="190" y="901" type="curve"/>
    </contour>
  </outline>
</glyph>
<glyph name="Aacute" format="2">
  <advance width="647"/>
  <unicode hex="00C1"/>
  <outline>
    <contour>
      <point x="646" y="0" type="line"/>
      <point x="615" y="73"/>
      <point x="354" y="685"/>
      <point x="324" y="759" type="curve"/>
      <point x="1" y="0" type="line"/>
      <point x="109" y="0" type="line"/>
      <point x="195" y="208" type="line"/>
      <point x="451" y="208" type="line"/>
      <point x="489" y="115"/>
      <point x="525" y="30"/>
      <point x="538" y="0" type="curve"/>
    </contour>
    <contour>
      <point x="313" y="494" type="line"/>
      <point x="314" y="497"/>
      <point x="321" y="517"/>
      <point x="324" y="530" type="curve"/>
      <point x="327" y="517"/>
      <point x="333" y="497"/>
      <point x="334" y="494" type="curve"/>
      <point x="345" y="466"/>
      <point x="378" y="387"/>
      <point x="414" y="300" type="curve"/>
      <point x="233" y="300" type="line"/>
    </contour>
    <contour>
      <point x="277" y="767" type="line"/>
      <point x="308" y="811"/>
      <point x="338" y="857"/>
      <point x="369" y="901" type="curve"/>
      <point x="461" y="901" type="line"/>
      <point x="342" y="767" type="line"/>
    </contour>
  </outline>
</glyph>
<glyph name="Acircumflex" format="1">
  <advance width="647"/>
  <unicode hex="00C2"/>
  <outline>
    <contour>
      <point x="646" y="0" type="line"/>
      <point x="640" y="14"/>
      <point x="609" y="87"/>
      <point x="565" y="191"/>
      <point x="512" y="315"/>
      <point x="457" y="443"/>
      <point x="404" y="568"/>
      <point x="361" y="671"/>
      <point x="330" y="745"/>
      <point x="324" y="759" type="qcurve"/>
      <point x="1" y="0" type="line"/>
      <point x="109" y="0" type="line"/>
      <point x="195" y="208" type="line"/>
      <point x="451" y="208" type="line"/>
      <point x="465" y="173"/>
      <point x="492" y="108"/>
      <point x="515" y="53"/>
      <point x="533" y="11"/>
      <point x="538" y="0" type="qcurve"/>
    </contour>
    <contour>
      <point x="313" y="494" type="line"/>
      <point x="314" y="496"/>
      <point x="322" y="520"/>
      <point x="324" y="530" type="qcurve"/>
      <point x="326" y="520"/>
      <point x="333" y="496"/>
      <point x="334" y="494" type="qcurve"/>
      <point x="338" y="483"/>
      <point x="354" y="445"/>
      <point x="375" y="394"/>
      <point x="400" y="333"/>
      <point x="414" y="300" type="qcurve"/>
      <point x="233" y="300" type="line"/>
    </contour>
    <contour>
      <point x="337" y="951" type="qcurve"/>
      <point x="367" y="905"/>
      <point x="428" y="814"/>
      <point x="459" y="768" type="qcurve"/>
      <point x="395" y="768" type="line"/>
      <point x="391" y="774"/>
      <point x="375" y="795"/>
      <point x="357" y="818"/>
      <point x="341" y="840"/>
      <point x="337" y="846" type="qcurve"/>
      <point x="333" y="840"/>
      <point x="317" y="818"/>
      <point x="299" y="795"/>
      <point x="284" y="774"/>
      <point x="280" y="768" type="qcurve"/>
      <point x="215" y="768" type="line"/>
      <point x="246" y="814"/>
      <point x="307" y="905"/>
    </contour>
  </outline>
</glyph>
<glyph name="Atilde" format="1">
  <advance width="646"/>
  <unicode hex="00C3"/>
  <outline>
    <contour>
      <point x="632" y="0" type="line"/>
      <point x="616" y="36"/>
      <point x="567" y="155"/>
      <point x="509" y="297"/>
      <point x="446" y="450"/>
      <point x="388" y="592"/>
      <point x="338" y="710"/>
      <point x="323" y="747" type="qcurve"/>
      <point x="307" y="710"/>
      <point x="258" y="592"/>
      <point x="200" y="450"/>
      <point x="138" y="297"/>
      <point x="80" y="155"/>
      <point x="30" y="36"/>
      <point x="15" y="0" type="qcurve"/>
      <point x="83" y="0" type="line"/>
      <point x="103" y="46"/>
      <point x="157" y="180"/>
      <point x="186" y="255" type="qcurve"/>
      <point x="460" y="255" type="line"/>
      <point x="489" y="180"/>
      <point x="543" y="46"/>
      <point x="563" y="0" type="qcurve"/>
    </contour>
    <contour>
      <point x="313" y="572" type="qcurve"/>
      <point x="315" y="576"/>
      <point x="321" y="595"/>
      <point x="323" y="603" type="qcurve"/>
      <point x="325" y="595"/>
      <point x="331" y="576"/>
      <point x="333" y="572" type="qcurve"/>
      <point x="353" y="525"/>
      <point x="407" y="389"/>
      <point x="437" y="314" type="qcurve"/>
      <point x="209" y="314" type="line"/>
      <point x="238" y="389"/>
      <point x="293" y="525"/>
    </contour>
    <contour>
      <point x="315" y="793" type="qcurve"/>
      <point x="299" y="810"/>
      <point x="276" y="821"/>
      <point x="262" y="821" type="qcurve"/>
      <point x="254" y="821"/>
      <point x="236" y="817"/>
      <point x="218" y="806"/>
      <point x="205" y="786"/>
      <point x="203" y="771" type="qcurve"/>
      <point x="170" y="773" type="line"/>
      <point x="171" y="793"/>
      <point x="188" y="823"/>
      <point x="213" y="844"/>
      <point x="243" y="854"/>
      <point x="258" y="854" type="qcurve"/>
      <point x="281" y="854"/>
      <point x="317" y="836"/>
      <point x="333" y="819" type="qcurve"/>
      <point x="349" y="802"/>
      <point x="372" y="791"/>
      <point x="386" y="791" type="qcurve"/>
      <point x="393" y="791"/>
      <point x="412" y="795"/>
      <point x="430" y="806"/>
      <point x="443" y="826"/>
      <point x="445" y="841" type="qcurve"/>
      <point x="478" y="839" type="line"/>
      <point x="477" y="819"/>
      <point x="460" y="789"/>
      <point x="435" y="768"/>
      <point x="405" y="758"/>
      <point x="390" y="758" type="qcurve"/>
      <point x="367" y="758"/>
      <point x="331" y="777"/>
    </contour>
  </outline>
</glyph>
<glyph name="Adieresis" format="2">
  <advance width="647"/>
  <unicode hex="00C4"/>
  <outline>
    <contour>
      <point x="646" y="0" type="line"/>
      <point x="615" y="73"/>
      <point x="354" y="685"/>
      <point x="324" y="759" type="curve"/>
      <point x="1" y="0" type="line"/>
      <point x="109" y="0" type="line"/>
      <point x="195" y="208" type="line"/>
      <point x="451" y="208" type="line"/>
      <point x="489" y="115"/>
      <point x="525" y="30"/>
      <point x="538" y="0" type="curve"/>
    </contour>
    <contour>
      <point x="313" y="494" type="line"/>
      <point x="314" y="497"/>
      <point x="321" y="517"/>
      <point x="324" y="530" type="curve"/>
      <point x="327" y="517"/>
      <point x="333" y="497"/>
      <point x="334" y="494" type="curve"/>
      <point x="345" y="466"/>
      <point x="378" y="387"/>
      <point x="414" y="300" type="curve"/>
      <point x="233" y="300" type="line"/>
    </contour>
    <contour>
      <point x="172" y="830" type="curve" smooth="yes"/>
      <point x="172" y="863"/>
      <point x="200" y="887"/>
      <point x="229" y="887" type="curve" smooth="yes"/>
      <point x="255" y="887"/>
      <point x="284" y="863"/>
      <point x="284" y="830" type="curve" smooth="yes"/>
      <point x="284" y="797"/>
      <point x="255" y="774"/>
      <point x="229" y="774" type="curve" smooth="yes"/>
      <point x="200" y="774"/>
      <point x="172" y="797"/>
    </contour>
    <contour>
      <point x="362" y="830" type="curve" smooth="yes"/>
      <point x="362" y="863"/>
      <point x="390" y="887"/>
      <point x="418" y="887" type="curve" smooth="yes"/>
      <point x="445" y="887"/>
      <point x="473" y="863"/>
      <point x="473" y="830" type="curve" smooth="yes"/>
      <point x="473" y="797"/>
      <point x="445" y="774"/>
      <point x="418" y="774" type="curve" smooth="yes"/>
      <point x="390" y="774"/>
      <point x="362" y="797"/>
    </contour>
  </outline>
</glyph>
<glyph name="Aring" format="1">
  <advance width="646"/>
  <unicode hex="00C5"/>
  <outline>
    <contour>
      <point x="563" y="0" type="line"/>
      <point x="543" y="46"/>
      <point x="489" y="180"/>
      <point x="460" y="255" type="qcurve"/>
      <point x="186" y="255" type="line"/>
      <point x="157" y="180"/>
      <point x="103" y="46"/>
      <point x="83" y="0" type="qcurve"/>
      <point x="15" y="0" type="line"/>
      <point x="30" y="36"/>
      <point x="80" y="155"/>
      <point x="138" y="297"/>
      <point x="200" y="450"/>
      <point x="258" y="592"/>
      <point x="307" y="710"/>
      <point x="323" y="747" type="qcurve"/>
      <point x="338" y="710"/>
      <point x="388" y="592"/>
      <point x="446" y="450"/>
      <point x="509" y="297"/>
      <point x="567" y="155"/>
      <point x="616" y="36"/>
      <point x="632" y="0" type="qcurve"/>
    </contour>
    <contour>
      <point x="313" y="572" type="qcurve"/>
      <point x="293" y="525"/>
      <point x="238" y="389"/>
      <point x="209" y="314" type="qcurve"/>
      <point x="437" y="314" type="line"/>
      <point x="407" y="389"/>
      <point x="353" y="525"/>
      <point x="333" y="572" type="qcurve"/>
      <point x="331" y="576"/>
      <point x="325" y="595"/>
      <point x="323" y="603" type="qcurve"/>
      <point x="321" y="595"/>
      <point x="315" y="576"/>
    </contour>
    <contour>
      <point x="248" y="843" type="qcurve"/>
      <point x="248" y="874"/>
      <point x="292" y="918"/>
      <point x="324" y="918" type="qcurve"/>
      <point x="356" y="918"/>
      <point x="400" y="874"/>
      <point x="400" y="843" type="qcurve"/>
      <point x="400" y="811"/>
      <point x="356" y="767"/>
      <point x="324" y="767" type="qcurve"/>
      <point x="292" y="767"/>
      <point x="248" y="811"/>
    </contour>
    <contour>
      <point x="283" y="842" type="qcurve"/>
      <point x="283" y="825"/>
      <point x="307" y="801"/>
      <point x="324" y="801" type="qcurve"/>
      <point x="341" y="801"/>
      <point x="365" y="825"/>
      <point x="365" y="842" type="qcurve"/>
      <point x="365" y="859"/>
      <point x="341" y="883"/>
      <point x="324" y="883" type="qcurve"/>
      <point x="307" y="883"/>
      <point x="283" y="859"/>
    </contour>
  </outline>
</glyph>
<glyph name="AE" format="1">
  <advance width="684"/>
  <unicode hex="00C6"/>
  <outline>
    <contour>
      <point x="310" y="0" type="line"/>
      <point x="310" y="255" type="line"/>
      <point x="187" y="255" type="line"/>
      <point x="158" y="180"/>
      <point x="104" y="46"/>
      <point x="84" y="0" type="qcurve"/>
      <point x="16" y="0" type="line"/>
      <point x="31" y="36"/>
      <point x="79" y="150"/>
      <point x="134" y="285"/>
      <point x="193" y="429"/>
      <point x="248" y="564"/>
      <point x="295" y="677"/>
      <point x="310" y="714" type="qcurve"/>
      <point x="628" y="714" type="line"/>
      <point x="628" y="652" type="line"/>
      <point x="375" y="652" type="line"/>
      <point x="375" y="391" type="line"/>
      <point x="588" y="391" type="line"/>
      <point x="588" y="327" type="line"/>
      <point x="375" y="327" type="line"/>
      <point x="375" y="64" type="line"/>
      <point x="642" y="64" type="line"/>
      <point x="642" y="0" type="line"/>
    </contour>
    <contour>
      <point x="310" y="562" type="line"/>
      <point x="290" y="515"/>
      <point x="237" y="382"/>
      <point x="208" y="310" type="qcurve"/>
      <point x="310" y="310" type="line"/>
    </contour>
  </outline>
</glyph>
<glyph name="AE" format="2">
  <advance width="953"/>
  <unicode hex="00C6"/>
  <anchor x="535" y="0" name="bottom"/>
  <anchor x="657" y="739" name="top"/>
  <outline>
    <contour>
      <point x="478" y="725" type="line"/>
      <point x="478" y="0" type="line"/>
      <point x="890" y="0" type="line"/>
      <point x="890" y="101" type="line"/>
      <point x="583" y="101" type="line"/>
      <point x="583" y="312" type="line"/>
      <point x="836" y="312" type="line"/>
      <point x="836" y="413" type="line"/>
      <point x="583" y="413" type="line"/>
      <point x="583" y="624" type="line"/>
      <point x="876" y="624" type="line"/>
      <point x="876" y="725" type="line"/>
    </contour>
    <contour>
      <point x="493" y="607" type="curve"/>
      <point x="478" y="725" type="line"/>
      <point x="11" y="0" type="line"/>
      <point x="132" y="0" type="line"/>
      <point x="482" y="571" type="line"/>
      <point x="484" y="573"/>
      <point x="490" y="594"/>
    </contour>
    <contour>
      <point x="238" y="259" type="line"/>
      <point x="206" y="176" type="line"/>
      <point x="493" y="176" type="line"/>
      <point x="493" y="259" type="line"/>
    </contour>
  </outline>
</glyph>
<glyph name="Ccedilla" format="2">
  <advance width="638"/>
  <unicode hex="00C7"/>
  <outline>
    <contour>
      <point x="627" y="52" type="line"/>
      <point x="596" y="30"/>
      <point x="520" y="-3"/>
      <point x="422" y="-7" type="curve"/>
      <point x="422" y="-46"/>
      <point x="448" y="-49"/>
      <point x="465" y="-62" type="curve" smooth="yes"/>
      <point x="493" y="-83"/>
      <point x="503" y="-110"/>
      <point x="503" y="-146" type="curve" smooth="yes"/>
      <point x="503" y="-201"/>
      <point x="467" y="-257"/>
      <point x="394" y="-257" type="curve" smooth="yes"/>
      <point x="348" y="-257"/>
      <point x="304" y="-231"/>
      <point x="286" y="-178" type="curve"/>
      <point x="303" y="-170"/>
      <point x="320" y="-161"/>
      <point x="336" y="-152" type="curve"/>
      <point x="343" y="-173"/>
      <point x="361" y="-189"/>
      <point x="386" y="-189" type="curve" smooth="yes"/>
      <point x="418" y="-189"/>
      <point x="435" y="-165"/>
      <point x="435" y="-134" type="curve" smooth="yes"/>
      <point x="435" y="-81"/>
      <point x="366" y="-89"/>
      <point x="366" y="-22" type="curve" smooth="yes"/>
      <point x="366" y="-6" type="line"/>
      <point x="161" y="10"/>
      <point x="39" y="171"/>
      <point x="39" y="357" type="curve" smooth="yes"/>
      <point x="39" y="575"/>
      <point x="208" y="733"/>
      <point x="414" y="733" type="curve" smooth="yes"/>
      <point x="492" y="733"/>
      <point x="579" y="710"/>
      <point x="608" y="682" type="curve"/>
      <point x="588" y="649"/>
      <point x="586" y="646"/>
      <point x="559" y="597" type="curve"/>
      <point x="525" y="620"/>
      <point x="461" y="630"/>
      <point x="418" y="630" type="curve" smooth="yes"/>
      <point x="264" y="630"/>
      <point x="148" y="506"/>
      <point x="148" y="366" type="curve" smooth="yes"/>
      <point x="148" y="231"/>
      <point x="256" y="103"/>
      <point x="411" y="103" type="curve" smooth="yes"/>
      <point x="494" y="103"/>
      <point x="572" y="140"/>
      <point x="581" y="151" type="curve"/>
    </contour>
  </outline>
</glyph>
<glyph name="Egrave" format="1">
  <advance width="617"/>
  <unicode hex="00C8"/>
  <outline>
    <contour>
      <point x="89" y="0" type="line"/>
      <point x="89" y="725" type="line"/>
      <point x="565" y="725" type="line"/>
      <point x="565" y="626" type="line"/>
      <point x="199" y="626" type="line"/>
      <point x="199" y="414" type="line"/>
      <point x="525" y="414" type="line"/>
      <point x="525" y="313" type="line"/>
      <point x="199" y="313" type="line"/>
      <point x="199" y="101" type="line"/>
      <point x="579" y="101" type="line"/>
      <point x="579" y="0" type="line"/>
    </contour>
    <contour>
      <point x="312" y="901" type="line"/>
      <point x="335" y="868"/>
      <point x="380" y="800"/>
      <point x="403" y="767" type="qcurve"/>
      <point x="339" y="767" type="line"/>
      <point x="309" y="800"/>
      <point x="249" y="868"/>
      <point x="220" y="901" type="qcurve"/>
    </contour>
  </outline>
</glyph>
<glyph name="Eacute" format="1">
  <advance width="613"/>
  <unicode hex="00C9"/>
  <outline>
    <contour>
      <point x="103" y="0" type="line"/>
      <point x="103" y="714" type="line"/>
      <point x="553" y="714" type="line"/>
      <point x="553" y="652" type="line"/>
      <point x="171" y="652" type="line"/>
      <point x="171" y="391" type="line"/>
      <point x="513" y="391" type="line"/>
      <point x="513" y="327" type="line"/>
      <point x="171" y="327" type="line"/>
      <point x="171" y="64" type="line"/>
      <point x="567" y="64" type="line"/>
      <point x="567" y="0" type="line"/>
    </contour>
    <contour>
      <point x="294" y="760" type="line"/>
      <point x="385" y="894" type="line"/>
      <point x="444" y="894" type="line"/>
      <point x="418" y="860"/>
      <point x="364" y="793"/>
      <point x="337" y="760" type="qcurve"/>
    </contour>
  </outline>
</glyph>
<glyph name="Ecircumflex" format="2">
  <advance width="617"/>
  <unicode hex="00CA"/>
  <outline>
    <contour>
      <point x="89" y="0" type="line"/>
      <point x="89" y="725" type="line"/>
      <point x="565" y="725" type="line"/>
      <point x="565" y="626" type="line"/>
      <point x="199" y="626" type="line"/>
      <point x="199" y="414" type="line"/>
      <point x="525" y="414" type="line"/>
      <point x="525" y="313" type="line"/>
      <point x="199" y="313" type="line"/>
      <point x="199" y="101" type="line"/>
      <point x="579" y="101" type="line"/>
      <point x="579" y="0" type="line"/>
    </contour>
    <contour>
      <point x="339" y="951" type="curve"/>
      <point x="379" y="890"/>
      <point x="420" y="829"/>
      <point x="461" y="768" type="curve"/>
      <point x="397" y="768" type="line"/>
      <point x="386" y="783"/>
      <point x="349" y="830"/>
      <point x="339" y="846" type="curve"/>
      <point x="328" y="830"/>
      <point x="292" y="783"/>
      <point x="282" y="768" type="curve"/>
      <point x="217" y="768" type="line"/>
      <point x="258" y="829"/>
      <point x="299" y="890"/>
    </contour>
  </outline>
</glyph>
<glyph name="Edieresis" format="2">
  <advance width="617"/>
  <unicode hex="00CB"/>
  <outline>
    <contour>
      <point x="89" y="0" type="line"/>
      <point x="89" y="725" type="line"/>
      <point x="565" y="725" type="line"/>
      <point x="565" y="626" type="line"/>
      <point x="199" y="626" type="line"/>
      <point x="199" y="414" type="line"/>
      <point x="525" y="414" type="line"/>
      <point x="525" y="313" type="line"/>
      <point x="199" y="313" type="line"/>
      <point x="199" y="101" type="line"/>
      <point x="579" y="101" type="line"/>
      <point x="579" y="0" type="line"/>
    </contour>
    <contour>
      <point x="380" y="830" type="curve" smooth="yes"/>
      <point x="380" y="863"/>
      <point x="408" y="887"/>
      <point x="436" y="887" type="curve" smooth="yes"/>
      <point x="463" y="887"/>
      <point x="491" y="863"/>
      <point x="491" y="830" type="curve" smooth="yes"/>
      <point x="491" y="797"/>
      <point x="463" y="774"/>
      <point x="436" y="774" type="curve" smooth="yes"/>
      <point x="408" y="774"/>
      <point x="380" y="797"/>
    </contour>
    <contour>
      <point x="190" y="830" type="curve" smooth="yes"/>
      <point x="190" y="863"/>
      <point x="218" y="887"/>
      <point x="247" y="887" type="curve" smooth="yes"/>
      <point x="273" y="887"/>
      <point x="302" y="863"/>
      <point x="302" y="830" type="curve" smooth="yes"/>
      <point x="302" y="797"/>
      <point x="273" y="774"/>
      <point x="247" y="774" type="curve" smooth="yes"/>
      <point x="218" y="774"/>
      <point x="190" y="797"/>
    </contour>
  </outline>
</glyph>
<glyph name="Igrave" format="1">
  <advance width="274"/>
  <unicode hex="00CC"/>
  <outline>
    <contour>
      <point x="102" y="714" type="line"/>
      <point x="171" y="714" type="line"/>
      <point x="171" y="0" type="line"/>
      <point x="102" y="0" type="line"/>
    </contour>
    <contour>
      <point x="83" y="894" type="line"/>
      <point x="106" y="860"/>
      <point x="151" y="793"/>
      <point x="174" y="760" type="qcurve"/>
      <point x="130" y="760" type="line"/>
      <point x="23" y="894" type="line"/>
    </contour>
  </outline>
</glyph>
<glyph name="Iacute" format="1">
  <advance width="274"/>
  <unicode hex="00CD"/>
  <outline>
    <contour>
      <point x="102" y="714" type="line"/>
      <point x="171" y="714" type="line"/>
      <point x="171" y="0" type="line"/>
      <point x="102" y="0" type="line"/>
    </contour>
    <contour>
      <point x="99" y="760" type="line"/>
      <point x="190" y="894" type="line"/>
      <point x="249" y="894" type="line"/>
      <point x="223" y="860"/>
      <point x="169" y="793"/>
      <point x="142" y="760" type="qcurve"/>
    </contour>
  </outline>
</glyph>
<glyph name="Icircumflex" format="2">
  <advance width="287"/>
  <unicode hex="00CE"/>
  <outline>
    <contour>
      <point x="89" y="725" type="line"/>
      <point x="198" y="725" type="line"/>
      <point x="198" y="0" type="line"/>
      <point x="89" y="0" type="line"/>
    </contour>
    <contour>
      <point x="145" y="951" type="curve"/>
      <point x="185" y="890"/>
      <point x="226" y="829"/>
      <point x="267" y="768" type="curve"/>
      <point x="203" y="768" type="line"/>
      <point x="192" y="783"/>
      <point x="155" y="830"/>
      <point x="145" y="846" type="curve"/>
      <point x="134" y="830"/>
      <point x="98" y="783"/>
      <point x="88" y="768" type="curve"/>
      <point x="23" y="768" type="line"/>
      <point x="64" y="829"/>
      <point x="105" y="890"/>
    </contour>
  </outline>
</glyph>
<glyph name="Idieresis" format="2">
  <advance width="287"/>
  <unicode hex="00CF"/>
  <outline>
    <contour>
      <point x="89" y="725" type="line"/>
      <point x="198" y="725" type="line"/>
      <point x="198" y="0" type="line"/>
      <point x="89" y="0" type="line"/>
    </contour>
    <contour>
      <point x="185" y="830" type="curve" smooth="yes"/>
      <point x="185" y="863"/>
      <point x="213" y="887"/>
      <point x="241" y="887" type="curve" smooth="yes"/>
      <point x="268" y="887"/>
      <point x="296" y="863"/>
      <point x="296" y="830" type="curve" smooth="yes"/>
      <point x="296" y="797"/>
      <point x="268" y="774"/>
      <point x="241" y="774" type="curve" smooth="yes"/>
      <point x="213" y="774"/>
      <point x="185" y="797"/>
    </contour>
    <contour>
      <point x="-5" y="830" type="curve" smooth="yes"/>
      <point x="-5" y="863"/>
      <point x="23" y="887"/>
      <point x="52" y="887" type="curve" smooth="yes"/>
      <point x="78" y="887"/>
      <point x="107" y="863"/>
      <point x="107" y="830" type="curve" smooth="yes"/>
      <point x="107" y="797"/>
      <point x="78" y="774"/>
      <point x="52" y="774" type="curve" smooth="yes"/>
      <point x="23" y="774"/>
      <point x="-5" y="797"/>
    </contour>
  </outline>
</glyph>
<glyph name="Eth" format="1">
  <advance width="720"/>
  <unicode hex="00D0"/>
  <outline>
    <contour>
      <point x="44" y="378" type="line"/>
      <point x="109" y="378" type="line"/>
      <point x="109" y="714" type="line"/>
      <point x="275" y="714" type="line"/>
      <point x="383" y="714"/>
      <point x="533" y="648"/>
      <point x="627" y="544"/>
      <point x="669" y="415"/>
      <point x="669" y="352" type="qcurve"/>
      <point x="669" y="271"/>
      <point x="611" y="141"/>
      <point x="513" y="49"/>
      <point x="383" y="0"/>
      <point x="310" y="0" type="qcurve"/>
      <point x="109" y="0" type="line"/>
      <point x="109" y="330" type="line"/>
      <point x="44" y="330" type="line"/>
    </contour>
    <contour>
      <point x="303" y="65" type="line"/>
      <point x="365" y="65"/>
      <point x="474" y="105"/>
      <point x="555" y="180"/>
      <point x="601" y="288"/>
      <point x="601" y="356" type="qcurve"/>
      <point x="601" y="418"/>
      <point x="558" y="525"/>
      <point x="478" y="603"/>
      <point x="366" y="648"/>
      <point x="296" y="648" type="qcurve"/>
      <point x="178" y="648" type="line"/>
      <point x="178" y="378" type="line"/>
      <point x="336" y="378" type="line"/>
      <point x="336" y="330" type="line"/>
      <point x="178" y="330" type="line"/>
      <point x="178" y="65" type="line"/>
    </contour>
  </outline>
</glyph>
<glyph name="Ntilde" format="1">
  <advance width="813"/>
  <unicode hex="00D1"/>
  <outline>
    <contour>
      <point x="724" y="725" type="line"/>
      <point x="724" y="-33" type="line"/>
      <point x="710" y="-15"/>
      <point x="630" y="65"/>
      <point x="526" y="169"/>
      <point x="409" y="283"/>
      <point x="305" y="386"/>
      <point x="227" y="467"/>
      <point x="214" y="484" type="qcurve"/>
      <point x="195" y="510" type="line"/>
      <point x="198" y="478" type="line"/>
      <point x="198" y="0" type="line"/>
      <point x="88" y="0" type="line"/>
      <point x="88" y="759" type="line"/>
      <point x="99" y="745"/>
      <point x="150" y="693"/>
      <point x="219" y="624"/>
      <point x="302" y="544"/>
      <point x="387" y="462"/>
      <point x="470" y="383"/>
      <point x="539" y="315"/>
      <point x="589" y="263"/>
      <point x="599" y="250" type="qcurve"/>
      <point x="618" y="222" type="line"/>
      <point x="615" y="256" type="line"/>
      <point x="615" y="725" type="line"/>
    </contour>
    <contour>
      <point x="395" y="789" type="qcurve"/>
      <point x="379" y="804"/>
      <point x="357" y="815"/>
      <point x="343" y="815" type="qcurve"/>
      <point x="329" y="815"/>
      <point x="293" y="797"/>
      <point x="290" y="769" type="qcurve"/>
      <point x="241" y="772" type="line"/>
      <point x="242" y="793"/>
      <point x="260" y="827"/>
      <point x="287" y="851"/>
      <point x="319" y="864"/>
      <point x="335" y="864" type="qcurve"/>
      <point x="359" y="864"/>
      <point x="397" y="846"/>
      <point x="413" y="830" type="qcurve"/>
      <point x="429" y="815"/>
      <point x="452" y="805"/>
      <point x="466" y="805" type="qcurve"/>
      <point x="473" y="805"/>
      <point x="490" y="809"/>
      <point x="505" y="819"/>
      <point x="517" y="837"/>
      <point x="519" y="851" type="qcurve"/>
      <point x="567" y="848" type="line"/>
      <point x="566" y="827"/>
      <point x="548" y="794"/>
      <point x="521" y="770"/>
      <point x="489" y="757"/>
      <point x="474" y="757" type="qcurve"/>
      <point x="451" y="757"/>
      <point x="412" y="774"/>
    </contour>
  </outline>
</glyph>
<glyph name="Ograve" format="1">
  <advance width="817"/>
  <unicode hex="00D2"/>
  <outline>
    <contour>
      <point x="38" y="362" type="qcurve"/>
      <point x="38" y="437"/>
      <point x="96" y="572"/>
      <point x="197" y="674"/>
      <point x="331" y="733"/>
      <point x="408" y="733" type="qcurve"/>
      <point x="484" y="733"/>
      <point x="619" y="674"/>
      <point x="720" y="572"/>
      <point x="779" y="437"/>
      <point x="779" y="362" type="qcurve"/>
      <point x="779" y="285"/>
      <point x="720" y="151"/>
      <point x="619" y="50"/>
      <point x="484" y="-8"/>
      <point x="408" y="-8" type="qcurve"/>
      <point x="331" y="-8"/>
      <point x="197" y="50"/>
      <point x="96" y="151"/>
      <point x="38" y="285"/>
    </contour>
    <contour>
      <point x="147" y="361" type="qcurve"/>
      <point x="147" y="306"/>
      <point x="188" y="209"/>
      <point x="260" y="137"/>
      <point x="356" y="95"/>
      <point x="410" y="95" type="qcurve"/>
      <point x="464" y="95"/>
      <point x="559" y="137"/>
      <point x="630" y="209"/>
      <point x="671" y="306"/>
      <point x="671" y="362" type="qcurve"/>
      <point x="671" y="417"/>
      <point x="630" y="514"/>
      <point x="558" y="586"/>
      <point x="463" y="628"/>
      <point x="409" y="628" type="qcurve"/>
      <point x="355" y="628"/>
      <point x="259" y="586"/>
      <point x="188" y="514"/>
      <point x="147" y="416"/>
    </contour>
    <contour>
      <point x="387" y="901" type="line"/>
      <point x="410" y="868"/>
      <point x="455" y="800"/>
      <point x="478" y="767" type="qcurve"/>
      <point x="414" y="767" type="line"/>
      <point x="384" y="800"/>
      <point x="324" y="868"/>
      <point x="295" y="901" type="qcurve"/>
    </contour>
  </outline>
</glyph>
<glyph name="Oacute" format="1">
  <advance width="817"/>
  <unicode hex="00D3"/>
  <outline>
    <contour>
      <point x="38" y="362" type="qcurve"/>
      <point x="38" y="437"/>
      <point x="96" y="572"/>
      <point x="197" y="674"/>
      <point x="331" y="733"/>
      <point x="408" y="733" type="qcurve"/>
      <point x="484" y="733"/>
      <point x="619" y="674"/>
      <point x="720" y="572"/>
      <point x="779" y="437"/>
      <point x="779" y="362" type="qcurve"/>
      <point x="779" y="285"/>
      <point x="720" y="151"/>
      <point x="619" y="50"/>
      <point x="484" y="-8"/>
      <point x="408" y="-8" type="qcurve"/>
      <point x="331" y="-8"/>
      <point x="197" y="50"/>
      <point x="96" y="151"/>
      <point x="38" y="285"/>
    </contour>
    <contour>
      <point x="147" y="361" type="qcurve"/>
      <point x="147" y="306"/>
      <point x="188" y="209"/>
      <point x="260" y="137"/>
      <point x="356" y="95"/>
      <point x="410" y="95" type="qcurve"/>
      <point x="464" y="95"/>
      <point x="559" y="137"/>
      <point x="630" y="209"/>
      <point x="671" y="306"/>
      <point x="671" y="362" type="qcurve"/>
      <point x="671" y="417"/>
      <point x="630" y="514"/>
      <point x="558" y="586"/>
      <point x="463" y="628"/>
      <point x="409" y="628" type="qcurve"/>
      <point x="355" y="628"/>
      <point x="259" y="586"/>
      <point x="188" y="514"/>
      <point x="147" y="416"/>
    </contour>
    <contour>
      <point x="354" y="767" type="line"/>
      <point x="377" y="800"/>
      <point x="423" y="868"/>
      <point x="446" y="901" type="qcurve"/>
      <point x="538" y="901" type="line"/>
      <point x="419" y="767" type="line"/>
    </contour>
  </outline>
</glyph>
<glyph name="Ocircumflex" format="2">
  <advance width="817"/>
  <unicode hex="00D4"/>
  <outline>
    <contour>
      <point x="38" y="362" type="curve" smooth="yes"/>
      <point x="38" y="563"/>
      <point x="204" y="733"/>
      <point x="408" y="733" type="curve" smooth="yes"/>
      <point x="611" y="733"/>
      <point x="779" y="563"/>
      <point x="779" y="362" type="curve" smooth="yes"/>
      <point x="779" y="158"/>
      <point x="611" y="-8"/>
      <point x="408" y="-8" type="curve" smooth="yes"/>
      <point x="204" y="-8"/>
      <point x="38" y="158"/>
    </contour>
    <contour>
      <point x="147" y="361" type="curve" smooth="yes"/>
      <point x="147" y="214"/>
      <point x="265" y="95"/>
      <point x="410" y="95" type="curve" smooth="yes"/>
      <point x="554" y="95"/>
      <point x="671" y="214"/>
      <point x="671" y="362" type="curve" smooth="yes"/>
      <point x="671" y="509"/>
      <point x="553" y="628"/>
      <point x="409" y="628" type="curve" smooth="yes"/>
      <point x="264" y="628"/>
      <point x="147" y="509"/>
    </contour>
    <contour>
      <point x="414" y="951" type="curve"/>
      <point x="454" y="890"/>
      <point x="495" y="829"/>
      <point x="536" y="768" type="curve"/>
      <point x="472" y="768" type="line"/>
      <point x="461" y="783"/>
      <point x="424" y="830"/>
      <point x="414" y="846" type="curve"/>
      <point x="403" y="830"/>
      <point x="367" y="783"/>
      <point x="357" y="768" type="curve"/>
      <point x="292" y="768" type="line"/>
      <point x="333" y="829"/>
      <point x="374" y="890"/>
    </contour>
  </outline>
</glyph>
<glyph name="Otilde" format="1">
  <advance width="828"/>
  <unicode hex="00D5"/>
  <outline>
    <contour>
      <point x="49" y="356" type="qcurve"/>
      <point x="49" y="431"/>
      <point x="106" y="564"/>
      <point x="205" y="664"/>
      <point x="338" y="722"/>
      <point x="413" y="722" type="qcurve"/>
      <point x="488" y="722"/>
      <point x="622" y="664"/>
      <point x="721" y="564"/>
      <point x="779" y="431"/>
      <point x="779" y="356" type="qcurve"/>
      <point x="779" y="281"/>
      <point x="721" y="148"/>
      <point x="622" y="49"/>
      <point x="488" y="-8"/>
      <point x="413" y="-8" type="qcurve"/>
      <point x="338" y="-8"/>
      <point x="205" y="49"/>
      <point x="106" y="148"/>
      <point x="49" y="281"/>
    </contour>
    <contour>
      <point x="117" y="356" type="qcurve"/>
      <point x="117" y="294"/>
      <point x="164" y="185"/>
      <point x="244" y="104"/>
      <point x="352" y="57"/>
      <point x="413" y="57" type="qcurve"/>
      <point x="474" y="57"/>
      <point x="583" y="104"/>
      <point x="664" y="185"/>
      <point x="711" y="294"/>
      <point x="711" y="356" type="qcurve"/>
      <point x="711" y="418"/>
      <point x="664" y="527"/>
      <point x="583" y="609"/>
      <point x="474" y="656"/>
      <point x="413" y="656" type="qcurve"/>
      <point x="351" y="656"/>
      <point x="244" y="609"/>
      <point x="163" y="527"/>
      <point x="117" y="418"/>
    </contour>
    <contour>
      <point x="398" y="824" type="qcurve"/>
      <point x="382" y="841"/>
      <point x="359" y="852"/>
      <point x="345" y="852" type="qcurve"/>
      <point x="337" y="852"/>
      <point x="319" y="848"/>
      <point x="301" y="837"/>
      <point x="288" y="817"/>
      <point x="286" y="802" type="qcurve"/>
      <point x="253" y="804" type="line"/>
      <point x="254" y="824"/>
      <point x="271" y="854"/>
      <point x="296" y="875"/>
      <point x="326" y="885"/>
      <point x="341" y="885" type="qcurve"/>
      <point x="364" y="885"/>
      <point x="400" y="867"/>
      <point x="416" y="850" type="qcurve"/>
      <point x="432" y="833"/>
      <point x="455" y="822"/>
      <point x="469" y="822" type="qcurve"/>
      <point x="476" y="822"/>
      <point x="495" y="826"/>
      <point x="513" y="837"/>
      <point x="526" y="857"/>
      <point x="528" y="872" type="qcurve"/>
      <point x="561" y="870" type="line"/>
      <point x="560" y="850"/>
      <point x="543" y="820"/>
      <point x="518" y="799"/>
      <point x="488" y="789"/>
      <point x="473" y="789" type="qcurve"/>
      <point x="450" y="789"/>
      <point x="414" y="808"/>
    </contour>
  </outline>
</glyph>
<glyph name="Odieresis" format="1">
  <advance width="817"/>
  <unicode hex="00D6"/>
  <outline>
    <contour>
      <point x="38" y="362" type="qcurve"/>
      <point x="38" y="437"/>
      <point x="96" y="572"/>
      <point x="197" y="674"/>
      <point x="331" y="733"/>
      <point x="408" y="733" type="qcurve"/>
      <point x="484" y="733"/>
      <point x="619" y="674"/>
      <point x="720" y="572"/>
      <point x="779" y="437"/>
      <point x="779" y="362" type="qcurve"/>
      <point x="779" y="285"/>
      <point x="720" y="151"/>
      <point x="619" y="50"/>
      <point x="484" y="-8"/>
      <point x="408" y="-8" type="qcurve"/>
      <point x="331" y="-8"/>
      <point x="197" y="50"/>
      <point x="96" y="151"/>
      <point x="38" y="285"/>
    </contour>
    <contour>
      <point x="147" y="361" type="qcurve"/>
      <point x="147" y="306"/>
      <point x="188" y="209"/>
      <point x="260" y="137"/>
      <point x="356" y="95"/>
      <point x="410" y="95" type="qcurve"/>
      <point x="464" y="95"/>
      <point x="559" y="137"/>
      <point x="630" y="209"/>
      <point x="671" y="306"/>
      <point x="671" y="362" type="qcurve"/>
      <point x="671" y="417"/>
      <point x="630" y="514"/>
      <point x="558" y="586"/>
      <point x="463" y="628"/>
      <point x="409" y="628" type="qcurve"/>
      <point x="355" y="628"/>
      <point x="259" y="586"/>
      <point x="188" y="514"/>
      <point x="147" y="416"/>
    </contour>
    <contour>
      <point x="452" y="830" type="qcurve"/>
      <point x="452" y="855"/>
      <point x="487" y="887"/>
      <point x="508" y="887" type="qcurve"/>
      <point x="528" y="887"/>
      <point x="563" y="855"/>
      <point x="563" y="830" type="qcurve"/>
      <point x="563" y="805"/>
      <point x="528" y="774"/>
      <point x="508" y="774" type="qcurve"/>
      <point x="487" y="774"/>
      <point x="452" y="805"/>
    </contour>
    <contour>
      <point x="262" y="830" type="qcurve"/>
      <point x="262" y="855"/>
      <point x="297" y="887"/>
      <point x="319" y="887" type="qcurve"/>
      <point x="339" y="887"/>
      <point x="374" y="855"/>
      <point x="374" y="830" type="qcurve"/>
      <point x="374" y="805"/>
      <point x="339" y="774"/>
      <point x="319" y="774" type="qcurve"/>
      <point x="297" y="774"/>
      <point x="262" y="805"/>
    </contour>
  </outline>
</glyph>
<glyph name="multiply" format="1">
  <advance width="445"/>
  <unicode hex="00D7"/>
  <outline>
    <contour>
      <point x="315" y="0" type="line"/>
      <point x="221" y="92" type="line"/>
      <point x="131" y="1" type="line"/>
      <point x="90" y="40"/>
      <point x="53" y="79" type="qcurve"/>
      <point x="144" y="171" type="line"/>
      <point x="50" y="264" type="line"/>
      <point x="129" y="345" type="line"/>
      <point x="224" y="250" type="line"/>
      <point x="317" y="343" type="line"/>
      <point x="336" y="323"/>
      <point x="373" y="283"/>
      <point x="392" y="264" type="qcurve"/>
      <point x="303" y="173" type="line"/>
      <point x="395" y="79" type="line"/>
    </contour>
  </outline>
</glyph>
<glyph name="Oslash" format="2">
  <advance width="858"/>
  <unicode hex="00D8"/>
  <anchor x="429" y="0" name="bottom"/>
  <anchor x="429" y="725" name="top"/>
  <anchor x="428" y="363" name="center"/>
  <anchor x="511" y="835" name="topright"/>
  <anchor x="22" y="725" name="topleft"/>
  <anchor x="575" y="10" name="ogonek"/>
  <outline>
    <contour>
      <point x="756" y="685" type="line"/>
      <point x="691" y="746" type="line"/>
      <point x="90" y="44" type="line"/>
      <point x="156" y="-16" type="line"/>
    </contour>
    <component base="O"/>
  </outline>
</glyph>
<glyph name="Oslash" format="1">
  <advance width="828"/>
  <unicode hex="00D8"/>
  <outline>
    <contour>
      <point x="49" y="356" type="qcurve"/>
      <point x="49" y="431"/>
      <point x="106" y="564"/>
      <point x="205" y="664"/>
      <point x="338" y="722"/>
      <point x="413" y="722" type="qcurve"/>
      <point x="473" y="722"/>
      <point x="580" y="685"/>
      <point x="625" y="653" type="qcurve"/>
      <point x="643" y="673"/>
      <point x="673" y="710"/>
      <point x="686" y="725" type="qcurve"/>
      <point x="719" y="695" type="line"/>
      <point x="660" y="625" type="line"/>
      <point x="715" y="574"/>
      <point x="779" y="435"/>
      <point x="779" y="356" type="qcurve"/>
      <point x="779" y="281"/>
      <point x="721" y="148"/>
      <point x="622" y="49"/>
      <point x="488" y="-8"/>
      <point x="413" y="-8" type="qcurve"/>
      <point x="349" y="-8"/>
      <point x="235" y="33"/>
      <point x="188" y="69" type="qcurve"/>
      <point x="122" y="-9" type="line"/>
      <point x="89" y="21" type="line"/>
      <point x="155" y="99" type="line"/>
      <point x="105" y="149"/>
      <point x="49" y="281"/>
    </contour>
    <contour>
      <point x="231" y="120" type="line"/>
      <point x="269" y="90"/>
      <point x="361" y="57"/>
      <point x="413" y="57" type="qcurve"/>
      <point x="474" y="57"/>
      <point x="583" y="104"/>
      <point x="664" y="185"/>
      <point x="711" y="294"/>
      <point x="711" y="356" type="qcurve"/>
      <point x="711" y="420"/>
      <point x="661" y="532"/>
      <point x="617" y="574" type="qcurve"/>
    </contour>
    <contour>
      <point x="117" y="356" type="qcurve"/>
      <point x="117" y="296"/>
      <point x="160" y="191"/>
      <point x="198" y="150" type="qcurve"/>
      <point x="582" y="602" type="line"/>
      <point x="546" y="628"/>
      <point x="461" y="656"/>
      <point x="413" y="656" type="qcurve"/>
      <point x="351" y="656"/>
      <point x="244" y="609"/>
      <point x="163" y="527"/>
      <point x="117" y="418"/>
    </contour>
  </outline>
</glyph>
<glyph name="Ugrave" format="1">
  <advance width="715"/>
  <unicode hex="00D9"/>
  <outline>
    <contour>
      <point x="357" y="-8" type="qcurve"/>
      <point x="299" y="-8"/>
      <point x="199" y="30"/>
      <point x="124" y="99"/>
      <point x="81" y="196"/>
      <point x="81" y="256" type="qcurve"/>
      <point x="81" y="725" type="line"/>
      <point x="191" y="725" type="line"/>
      <point x="191" y="259" type="line"/>
      <point x="191" y="224"/>
      <point x="216" y="165"/>
      <point x="261" y="120"/>
      <point x="321" y="95"/>
      <point x="357" y="95" type="qcurve"/>
      <point x="392" y="95"/>
      <point x="453" y="120"/>
      <point x="498" y="165"/>
      <point x="524" y="224"/>
      <point x="524" y="259" type="qcurve"/>
      <point x="524" y="725" type="line"/>
      <point x="634" y="725" type="line"/>
      <point x="634" y="256" type="line"/>
      <point x="634" y="196"/>
      <point x="591" y="99"/>
      <point x="516" y="30"/>
      <point x="415" y="-8"/>
    </contour>
    <contour>
      <point x="332" y="901" type="line"/>
      <point x="355" y="868"/>
      <point x="400" y="800"/>
      <point x="423" y="767" type="qcurve"/>
      <point x="359" y="767" type="line"/>
      <point x="329" y="800"/>
      <point x="269" y="868"/>
      <point x="240" y="901" type="qcurve"/>
    </contour>
  </outline>
</glyph>
<glyph name="Uacute" format="2">
  <advance width="715"/>
  <unicode hex="00DA"/>
  <outline>
    <contour>
      <point x="357" y="-8" type="curve" smooth="yes"/>
      <point x="203" y="-8"/>
      <point x="81" y="97"/>
      <point x="81" y="256" type="curve" smooth="yes"/>
      <point x="81" y="725" type="line"/>
      <point x="191" y="725" type="line"/>
      <point x="191" y="259" type="line" smooth="yes"/>
      <point x="191" y="167"/>
      <point x="262" y="95"/>
      <point x="357" y="95" type="curve" smooth="yes"/>
      <point x="450" y="95"/>
      <point x="524" y="167"/>
      <point x="524" y="259" type="curve" smooth="yes"/>
      <point x="524" y="725" type="line"/>
      <point x="634" y="725" type="line"/>
      <point x="634" y="256" type="line" smooth="yes"/>
      <point x="634" y="97"/>
      <point x="511" y="-8"/>
    </contour>
    <contour>
      <point x="307" y="767" type="line"/>
      <point x="338" y="811"/>
      <point x="368" y="857"/>
      <point x="399" y="901" type="curve"/>
      <point x="491" y="901" type="line"/>
      <point x="372" y="767" type="line"/>
    </contour>
  </outline>
</glyph>
<glyph name="Ucircumflex" format="1">
  <advance width="715"/>
  <unicode hex="00DB"/>
  <outline>
    <contour>
      <point x="357" y="-8" type="qcurve"/>
      <point x="299" y="-8"/>
      <point x="199" y="30"/>
      <point x="124" y="99"/>
      <point x="81" y="196"/>
      <point x="81" y="256" type="qcurve"/>
      <point x="81" y="725" type="line"/>
      <point x="191" y="725" type="line"/>
      <point x="191" y="259" type="line"/>
      <point x="191" y="224"/>
      <point x="216" y="165"/>
      <point x="261" y="120"/>
      <point x="321" y="95"/>
      <point x="357" y="95" type="qcurve"/>
      <point x="392" y="95"/>
      <point x="453" y="120"/>
      <point x="498" y="165"/>
      <point x="524" y="224"/>
      <point x="524" y="259" type="qcurve"/>
      <point x="524" y="725" type="line"/>
      <point x="634" y="725" type="line"/>
      <point x="634" y="256" type="line"/>
      <point x="634" y="196"/>
      <point x="591" y="99"/>
      <point x="516" y="30"/>
      <point x="415" y="-8"/>
    </contour>
    <contour>
      <point x="363" y="973" type="qcurve"/>
      <point x="393" y="927"/>
      <point x="454" y="836"/>
      <point x="485" y="790" type="qcurve"/>
      <point x="421" y="790" type="line"/>
      <point x="417" y="796"/>
      <point x="401" y="817"/>
      <point x="383" y="840"/>
      <point x="367" y="862"/>
      <point x="363" y="868" type="qcurve"/>
      <point x="359" y="862"/>
      <point x="343" y="840"/>
      <point x="325" y="817"/>
      <point x="310" y="796"/>
      <point x="306" y="790" type="qcurve"/>
      <point x="241" y="790" type="line"/>
      <point x="272" y="836"/>
      <point x="333" y="927"/>
    </contour>
  </outline>
</glyph>
<glyph name="Udieresis" format="1">
  <advance width="715"/>
  <unicode hex="00DC"/>
  <outline>
    <contour>
      <point x="357" y="-8" type="qcurve"/>
      <point x="299" y="-8"/>
      <point x="199" y="30"/>
      <point x="124" y="99"/>
      <point x="81" y="196"/>
      <point x="81" y="256" type="qcurve"/>
      <point x="81" y="725" type="line"/>
      <point x="191" y="725" type="line"/>
      <point x="191" y="259" type="line"/>
      <point x="191" y="224"/>
      <point x="216" y="165"/>
      <point x="261" y="120"/>
      <point x="321" y="95"/>
      <point x="357" y="95" type="qcurve"/>
      <point x="392" y="95"/>
      <point x="453" y="120"/>
      <point x="498" y="165"/>
      <point x="524" y="224"/>
      <point x="524" y="259" type="qcurve"/>
      <point x="524" y="725" type="line"/>
      <point x="634" y="725" type="line"/>
      <point x="634" y="256" type="line"/>
      <point x="634" y="196"/>
      <point x="591" y="99"/>
      <point x="516" y="30"/>
      <point x="415" y="-8"/>
    </contour>
    <contour>
      <point x="407" y="830" type="qcurve"/>
      <point x="407" y="855"/>
      <point x="442" y="887"/>
      <point x="463" y="887" type="qcurve"/>
      <point x="483" y="887"/>
      <point x="518" y="855"/>
      <point x="518" y="830" type="qcurve"/>
      <point x="518" y="805"/>
      <point x="483" y="774"/>
      <point x="463" y="774" type="qcurve"/>
      <point x="442" y="774"/>
      <point x="407" y="805"/>
    </contour>
    <contour>
      <point x="217" y="830" type="qcurve"/>
      <point x="217" y="855"/>
      <point x="252" y="887"/>
      <point x="274" y="887" type="qcurve"/>
      <point x="294" y="887"/>
      <point x="329" y="855"/>
      <point x="329" y="830" type="qcurve"/>
      <point x="329" y="805"/>
      <point x="294" y="774"/>
      <point x="274" y="774" type="qcurve"/>
      <point x="252" y="774"/>
      <point x="217" y="805"/>
    </contour>
  </outline>
</glyph>
<glyph name="Yacute" format="2">
  <advance width="656"/>
  <unicode hex="00DD"/>
  <outline>
    <contour>
      <point x="383" y="239" type="line"/>
      <point x="383" y="0" type="line"/>
      <point x="273" y="0" type="line"/>
      <point x="273" y="239" type="line"/>
      <point x="246" y="283"/>
      <point x="31" y="681"/>
      <point x="4" y="725" type="curve"/>
      <point x="128" y="725" type="line"/>
      <point x="152" y="685"/>
      <point x="263" y="474"/>
      <point x="317" y="370" type="curve"/>
      <point x="328" y="337" type="line"/>
      <point x="333" y="347"/>
      <point x="337" y="360"/>
      <point x="341" y="370" type="curve"/>
      <point x="396" y="474"/>
      <point x="503" y="685"/>
      <point x="527" y="725" type="curve"/>
      <point x="650" y="725" type="line"/>
    </contour>
    <contour>
      <point x="281" y="767" type="line"/>
      <point x="312" y="811"/>
      <point x="342" y="857"/>
      <point x="373" y="901" type="curve"/>
      <point x="465" y="901" type="line"/>
      <point x="346" y="767" type="line"/>
    </contour>
  </outline>
</glyph>
<glyph name="Thorn" format="2">
  <advance width="602"/>
  <unicode hex="00DE"/>
  <anchor x="276" y="0" name="bottom"/>
  <anchor x="276" y="725" name="top"/>
  <outline>
    <contour>
      <point x="321" y="591" type="curve" smooth="yes"/>
      <point x="211" y="591" type="line"/>
      <point x="211" y="720" type="line"/>
      <point x="103" y="720" type="line"/>
      <point x="103" y="0" type="line"/>
      <point x="211" y="0" type="line"/>
      <point x="211" y="126" type="line"/>
      <point x="321" y="126" type="line" smooth="yes"/>
      <point x="499" y="126"/>
      <point x="557" y="248"/>
      <point x="557" y="363" type="curve" smooth="yes"/>
      <point x="557" y="510"/>
      <point x="470" y="591"/>
    </contour>
    <contour>
      <point x="311" y="228" type="curve" smooth="yes"/>
      <point x="211" y="228" type="line"/>
      <point x="211" y="490" type="line"/>
      <point x="312" y="490" type="line" smooth="yes"/>
      <point x="408" y="490"/>
      <point x="449" y="426"/>
      <point x="449" y="361" type="curve" smooth="yes"/>
      <point x="449" y="298"/>
      <point x="411" y="228"/>
    </contour>
  </outline>
</glyph>
<glyph name="Thorn" format="2">
  <advance width="569"/>
  <unicode hex="00DE"/>
  <outline>
    <contour>
      <point x="89" y="0" type="line"/>
      <point x="89" y="710" type="line"/>
      <point x="199" y="710" type="line"/>
      <point x="199" y="592" type="line"/>
      <point x="287" y="592" type="line" smooth="yes"/>
      <point x="438" y="592"/>
      <point x="546" y="510"/>
      <point x="546" y="363" type="curve" smooth="yes"/>
      <point x="546" y="248"/>
      <point x="481" y="126"/>
      <point x="301" y="126" type="curve" smooth="yes"/>
      <point x="199" y="126" type="line"/>
      <point x="199" y="0" type="line"/>
    </contour>
    <contour>
      <point x="199" y="229" type="line"/>
      <point x="298" y="229" type="line" smooth="yes"/>
      <point x="406" y="229"/>
      <point x="436" y="312"/>
      <point x="436" y="361" type="curve" smooth="yes"/>
      <point x="436" y="412"/>
      <point x="404" y="489"/>
      <point x="299" y="489" type="curve" smooth="yes"/>
      <point x="199" y="489" type="line"/>
    </contour>
  </outline>
</glyph>
<glyph name="germandbls" format="2">
  <advance width="563"/>
  <unicode hex="00DF"/>
  <outline>
    <contour>
      <point x="223" y="8" type="curve"/>
      <point x="235" y="35"/>
      <point x="248" y="62"/>
      <point x="260" y="90" type="curve"/>
      <point x="275" y="84"/>
      <point x="291" y="80"/>
      <point x="308" y="80" type="curve" smooth="yes"/>
      <point x="380" y="80"/>
      <point x="440" y="140"/>
      <point x="440" y="212" type="curve" smooth="yes"/>
      <point x="440" y="285"/>
      <point x="378" y="344"/>
      <point x="307" y="342" type="curve" smooth="yes"/>
      <point x="305" y="342" type="line"/>
      <point x="305" y="432" type="line"/>
      <point x="349" y="432"/>
      <point x="381" y="459"/>
      <point x="381" y="502" type="curve" smooth="yes"/>
      <point x="381" y="544"/>
      <point x="350" y="577"/>
      <point x="291" y="577" type="curve" smooth="yes"/>
      <point x="213" y="577"/>
      <point x="183" y="518"/>
      <point x="183" y="422" type="curve" smooth="yes"/>
      <point x="183" y="0" type="line"/>
      <point x="92" y="0" type="line"/>
      <point x="92" y="335" type="line"/>
      <point x="28" y="335" type="line"/>
      <point x="28" y="424" type="line"/>
      <point x="92" y="424" type="line"/>
      <point x="92" y="429" type="line" smooth="yes"/>
      <point x="92" y="575"/>
      <point x="175" y="667"/>
      <point x="288" y="666" type="curve" smooth="yes"/>
      <point x="406" y="667"/>
      <point x="472" y="590"/>
      <point x="472" y="507" type="curve" smooth="yes"/>
      <point x="472" y="461"/>
      <point x="453" y="414"/>
      <point x="412" y="395" type="curve"/>
      <point x="462" y="383"/>
      <point x="531" y="308"/>
      <point x="531" y="210" type="curve" smooth="yes"/>
      <point x="531" y="91"/>
      <point x="429" y="-9"/>
      <point x="307" y="-9" type="curve" smooth="yes"/>
      <point x="279" y="-9"/>
      <point x="248" y="-4"/>
    </contour>
  </outline>
</glyph>
